  0
SECTION
  2
HEADER
  9
$ACADVER
  1
AC1009
  9
$FILLMODE
 70
1
  9
$EXTMIN
 10
-5.2650
 20
-5.2650
 30
0.0000
  9
$EXTMAX
 10
127.0150
 20
90.9452
 30
0.0000
  0
ENDSEC
  0
SECTION
  2
TABLES
  0
TABLE
  2
LTYPE
 70
1
  0
LTYPE
  2
CONTINUOUS
 70
64
  3
Solid line
 72
65
 73
0
 40
0
  0
ENDTAB
  0
TABLE
  2
LAYER
 70
255
  0
LAYER
  2
16
 70
64
 62
174
  6
CONTINUOUS
  0
LAYER
  2
17
 70
64
 62
94
  6
CONTINUOUS
  0
LAYER
  2
20
 70
64
 62
178
  6
CONTINUOUS
  0
LAYER
  2
44
 70
64
 62
251
  6
CONTINUOUS
  0
LAYER
  2
45
 70
64
 62
251
  6
CONTINUOUS
  0
ENDTAB
  0
ENDSEC
  0
SECTION
  2
BLOCKS
  0
BLOCK
  8
0
  2
RECT
 70
64
 10
0.0000
 20
0.0000
 30
0.0000
  3
RECT
  0
SOLID
  8
0
 10
-0.5000
 20
-0.5000
 30
0.0000
 11
0.5000
 21
-0.5000
 31
0.0000
 12
-0.5000
 22
0.5000
 32
0.0000
 13
0.5000
 23
0.5000
 33
0.0000
  0
ENDBLK
  8
0
  0
BLOCK
  8
0
  2
PIE
 70
64
 10
0.0000
 20
0.0000
 30
0.0000
  3
PIE
  0
POLYLINE
  8
0
 66
1
 10
0.0000
 20
0.0000
 30
0.0000
 40
0.5000
 41
0.5000
 70
0
  0
VERTEX
  8
0
 10
0.0000
 20
-0.2500
 30
0.0000
 42
1.0000
  0
VERTEX
  8
0
 10
0.0000
 20
0.2500
 30
0.0000
 42
1.0000
  0
VERTEX
  8
0
 10
0.0000
 20
-0.2500
 30
0.0000
  0
SEQEND
  8
0
  0
ENDBLK
  8
0
  0
BLOCK
  8
0
  2
OCTAGONP
 70
64
 10
0.0000
 20
0.0000
 30
0.0000
  3
OCTAGONP
  0
POLYLINE
  8
0
 66
1
 10
0.0000
 20
0.0000
 30
0.0000
 40
0.5000
 41
0.5000
 70
0
  0
VERTEX
  8
0
 10
-0.2500
 20
-0.1036
 30
0.0000
  0
VERTEX
  8
0
 10
-0.2500
 20
0.1036
 30
0.0000
  0
VERTEX
  8
0
 10
-0.1036
 20
0.2500
 30
0.0000
  0
VERTEX
  8
0
 10
0.1036
 20
0.2500
 30
0.0000
  0
VERTEX
  8
0
 10
0.2500
 20
0.1036
 30
0.0000
  0
VERTEX
  8
0
 10
0.2500
 20
-0.1036
 30
0.0000
  0
VERTEX
  8
0
 10
0.1036
 20
-0.2500
 30
0.0000
  0
VERTEX
  8
0
 10
-0.1036
 20
-0.2500
 30
0.0000
  0
VERTEX
  8
0
 10
-0.2500
 20
-0.1036
 30
0.0000
  0
VERTEX
  8
0
 10
-0.2500
 20
0.1036
 30
0.0000
  0
SEQEND
  8
0
  0
ENDBLK
  8
0
  0
BLOCK
  8
0
  2
SQUAREP
 70
64
 10
0.0000
 20
0.0000
 30
0.0000
  3
SQUAREP
  0
SOLID
  8
0
 10
-0.5000
 20
-0.5000
 30
0.0000
 11
0.5000
 21
-0.5000
 31
0.0000
 12
-0.5000
 22
0.5000
 32
0.0000
 13
0.5000
 23
0.5000
 33
0.0000
  0
ENDBLK
  8
0
  0
BLOCK
  8
0
  2
ROUNDP
 70
64
 10
0.0000
 20
0.0000
 30
0.0000
  3
ROUNDP
  0
POLYLINE
  8
0
 66
1
 10
0.0000
 20
0.0000
 30
0.0000
 40
0.5000
 41
0.5000
 70
0
  0
VERTEX
  8
0
 10
0.0000
 20
-0.2500
 30
0.0000
 42
1.0000
  0
VERTEX
  8
0
 10
0.0000
 20
0.2500
 30
0.0000
 42
1.0000
  0
VERTEX
  8
0
 10
0.0000
 20
-0.2500
 30
0.0000
  0
SEQEND
  8
0
  0
ENDBLK
  8
0
  0
BLOCK
  8
0
  2
ANNULUSP
 70
64
 10
0.0000
 20
0.0000
 30
0.0000
  3
ANNULUSP
  0
POLYLINE
  8
0
 66
1
 10
0.0000
 20
0.0000
 30
0.0000
 40
0.5000
 41
0.5000
 70
0
  0
VERTEX
  8
0
 10
0.0000
 20
-0.2500
 30
0.0000
 42
1.0000
  0
VERTEX
  8
0
 10
0.0000
 20
0.2500
 30
0.0000
 42
1.0000
  0
VERTEX
  8
0
 10
0.0000
 20
-0.2500
 30
0.0000
  0
SEQEND
  8
0
  0
ENDBLK
  8
0
  0
BLOCK
  8
0
  2
THERMALP
 70
64
 10
0.0000
 20
0.0000
 30
0.0000
  3
THERMALP
  0
POLYLINE
  8
0
 66
1
 10
0.0000
 20
0.0000
 30
0.0000
 40
0.1000
 41
0.1000
 70
0
  0
VERTEX
  8
0
 10
-0.2379
 20
0.4500
 30
0.0000
  0
VERTEX
  8
0
 10
0.2379
 20
0.4500
 30
0.0000
  0
SEQEND
  8
0
  0
POLYLINE
  8
0
 66
1
 10
0.0000
 20
0.0000
 30
0.0000
 40
0.0500
 41
0.0500
 70
0
  0
VERTEX
  8
0
 10
0.2379
 20
0.4250
 30
0.0000
 42
1.0000
  0
VERTEX
  8
0
 10
0.2379
 20
0.4750
 30
0.0000
  0
SEQEND
  8
0
  0
POLYLINE
  8
0
 66
1
 10
0.0000
 20
0.0000
 30
0.0000
 40
0.0500
 41
0.0500
 70
0
  0
VERTEX
  8
0
 10
-0.2379
 20
0.4750
 30
0.0000
 42
1.0000
  0
VERTEX
  8
0
 10
-0.2379
 20
0.4250
 30
0.0000
  0
SEQEND
  8
0
  0
POLYLINE
  8
0
 66
1
 10
0.0000
 20
0.0000
 30
0.0000
 40
0.1000
 41
0.1000
 70
0
  0
VERTEX
  8
0
 10
0.4500
 20
0.2379
 30
0.0000
  0
VERTEX
  8
0
 10
0.4500
 20
-0.2379
 30
0.0000
  0
SEQEND
  8
0
  0
POLYLINE
  8
0
 66
1
 10
0.0000
 20
0.0000
 30
0.0000
 40
0.0500
 41
0.0500
 70
0
  0
VERTEX
  8
0
 10
0.4250
 20
-0.2379
 30
0.0000
 42
1.0000
  0
VERTEX
  8
0
 10
0.4750
 20
-0.2379
 30
0.0000
  0
SEQEND
  8
0
  0
POLYLINE
  8
0
 66
1
 10
0.0000
 20
0.0000
 30
0.0000
 40
0.0500
 41
0.0500
 70
0
  0
VERTEX
  8
0
 10
0.4750
 20
0.2379
 30
0.0000
 42
1.0000
  0
VERTEX
  8
0
 10
0.4250
 20
0.2379
 30
0.0000
  0
SEQEND
  8
0
  0
POLYLINE
  8
0
 66
1
 10
0.0000
 20
0.0000
 30
0.0000
 40
0.1000
 41
0.1000
 70
0
  0
VERTEX
  8
0
 10
0.2379
 20
-0.4500
 30
0.0000
  0
VERTEX
  8
0
 10
-0.2379
 20
-0.4500
 30
0.0000
  0
SEQEND
  8
0
  0
POLYLINE
  8
0
 66
1
 10
0.0000
 20
0.0000
 30
0.0000
 40
0.0500
 41
0.0500
 70
0
  0
VERTEX
  8
0
 10
-0.2379
 20
-0.4250
 30
0.0000
 42
1.0000
  0
VERTEX
  8
0
 10
-0.2379
 20
-0.4750
 30
0.0000
  0
SEQEND
  8
0
  0
POLYLINE
  8
0
 66
1
 10
0.0000
 20
0.0000
 30
0.0000
 40
0.0500
 41
0.0500
 70
0
  0
VERTEX
  8
0
 10
0.2379
 20
-0.4750
 30
0.0000
 42
1.0000
  0
VERTEX
  8
0
 10
0.2379
 20
-0.4250
 30
0.0000
  0
SEQEND
  8
0
  0
POLYLINE
  8
0
 66
1
 10
0.0000
 20
0.0000
 30
0.0000
 40
0.1000
 41
0.1000
 70
0
  0
VERTEX
  8
0
 10
-0.4500
 20
-0.2379
 30
0.0000
  0
VERTEX
  8
0
 10
-0.4500
 20
0.2379
 30
0.0000
  0
SEQEND
  8
0
  0
POLYLINE
  8
0
 66
1
 10
0.0000
 20
0.0000
 30
0.0000
 40
0.0500
 41
0.0500
 70
0
  0
VERTEX
  8
0
 10
-0.4250
 20
0.2379
 30
0.0000
 42
1.0000
  0
VERTEX
  8
0
 10
-0.4750
 20
0.2379
 30
0.0000
  0
SEQEND
  8
0
  0
POLYLINE
  8
0
 66
1
 10
0.0000
 20
0.0000
 30
0.0000
 40
0.0500
 41
0.0500
 70
0
  0
VERTEX
  8
0
 10
-0.4750
 20
-0.2379
 30
0.0000
 42
1.0000
  0
VERTEX
  8
0
 10
-0.4250
 20
-0.2379
 30
0.0000
  0
SEQEND
  8
0
  0
ENDBLK
  8
0
  0
BLOCK
  8
0
  2
OCTAGONV
 70
64
 10
0.0000
 20
0.0000
 30
0.0000
  3
OCTAGONV
  0
POLYLINE
  8
0
 66
1
 10
0.0000
 20
0.0000
 30
0.0000
 40
0.5000
 41
0.5000
 70
0
  0
VERTEX
  8
0
 10
-0.2500
 20
-0.1036
 30
0.0000
  0
VERTEX
  8
0
 10
-0.2500
 20
0.1036
 30
0.0000
  0
VERTEX
  8
0
 10
-0.1036
 20
0.2500
 30
0.0000
  0
VERTEX
  8
0
 10
0.1036
 20
0.2500
 30
0.0000
  0
VERTEX
  8
0
 10
0.2500
 20
0.1036
 30
0.0000
  0
VERTEX
  8
0
 10
0.2500
 20
-0.1036
 30
0.0000
  0
VERTEX
  8
0
 10
0.1036
 20
-0.2500
 30
0.0000
  0
VERTEX
  8
0
 10
-0.1036
 20
-0.2500
 30
0.0000
  0
VERTEX
  8
0
 10
-0.2500
 20
-0.1036
 30
0.0000
  0
VERTEX
  8
0
 10
-0.2500
 20
0.1036
 30
0.0000
  0
SEQEND
  8
0
  0
ENDBLK
  8
0
  0
BLOCK
  8
0
  2
SQUAREV
 70
64
 10
0.0000
 20
0.0000
 30
0.0000
  3
SQUAREV
  0
SOLID
  8
0
 10
-0.5000
 20
-0.5000
 30
0.0000
 11
0.5000
 21
-0.5000
 31
0.0000
 12
-0.5000
 22
0.5000
 32
0.0000
 13
0.5000
 23
0.5000
 33
0.0000
  0
ENDBLK
  8
0
  0
BLOCK
  8
0
  2
ROUNDV
 70
64
 10
0.0000
 20
0.0000
 30
0.0000
  3
ROUNDV
  0
POLYLINE
  8
0
 66
1
 10
0.0000
 20
0.0000
 30
0.0000
 40
0.5000
 41
0.5000
 70
0
  0
VERTEX
  8
0
 10
0.0000
 20
-0.2500
 30
0.0000
 42
1.0000
  0
VERTEX
  8
0
 10
0.0000
 20
0.2500
 30
0.0000
 42
1.0000
  0
VERTEX
  8
0
 10
0.0000
 20
-0.2500
 30
0.0000
  0
SEQEND
  8
0
  0
ENDBLK
  8
0
  0
BLOCK
  8
0
  2
ANNULUSV
 70
64
 10
0.0000
 20
0.0000
 30
0.0000
  3
ANNULUSV
  0
POLYLINE
  8
0
 66
1
 10
0.0000
 20
0.0000
 30
0.0000
 40
0.5000
 41
0.5000
 70
0
  0
VERTEX
  8
0
 10
0.0000
 20
-0.2500
 30
0.0000
 42
1.0000
  0
VERTEX
  8
0
 10
0.0000
 20
0.2500
 30
0.0000
 42
1.0000
  0
VERTEX
  8
0
 10
0.0000
 20
-0.2500
 30
0.0000
  0
SEQEND
  8
0
  0
ENDBLK
  8
0
  0
BLOCK
  8
0
  2
THERMALV
 70
64
 10
0.0000
 20
0.0000
 30
0.0000
  3
THERMALV
  0
POLYLINE
  8
0
 66
1
 10
0.0000
 20
0.0000
 30
0.0000
 40
0.1000
 41
0.1000
 70
0
  0
VERTEX
  8
0
 10
-0.2379
 20
0.4500
 30
0.0000
  0
VERTEX
  8
0
 10
0.2379
 20
0.4500
 30
0.0000
  0
SEQEND
  8
0
  0
POLYLINE
  8
0
 66
1
 10
0.0000
 20
0.0000
 30
0.0000
 40
0.0500
 41
0.0500
 70
0
  0
VERTEX
  8
0
 10
0.2379
 20
0.4250
 30
0.0000
 42
1.0000
  0
VERTEX
  8
0
 10
0.2379
 20
0.4750
 30
0.0000
  0
SEQEND
  8
0
  0
POLYLINE
  8
0
 66
1
 10
0.0000
 20
0.0000
 30
0.0000
 40
0.0500
 41
0.0500
 70
0
  0
VERTEX
  8
0
 10
-0.2379
 20
0.4750
 30
0.0000
 42
1.0000
  0
VERTEX
  8
0
 10
-0.2379
 20
0.4250
 30
0.0000
  0
SEQEND
  8
0
  0
POLYLINE
  8
0
 66
1
 10
0.0000
 20
0.0000
 30
0.0000
 40
0.1000
 41
0.1000
 70
0
  0
VERTEX
  8
0
 10
0.4500
 20
0.2379
 30
0.0000
  0
VERTEX
  8
0
 10
0.4500
 20
-0.2379
 30
0.0000
  0
SEQEND
  8
0
  0
POLYLINE
  8
0
 66
1
 10
0.0000
 20
0.0000
 30
0.0000
 40
0.0500
 41
0.0500
 70
0
  0
VERTEX
  8
0
 10
0.4250
 20
-0.2379
 30
0.0000
 42
1.0000
  0
VERTEX
  8
0
 10
0.4750
 20
-0.2379
 30
0.0000
  0
SEQEND
  8
0
  0
POLYLINE
  8
0
 66
1
 10
0.0000
 20
0.0000
 30
0.0000
 40
0.0500
 41
0.0500
 70
0
  0
VERTEX
  8
0
 10
0.4750
 20
0.2379
 30
0.0000
 42
1.0000
  0
VERTEX
  8
0
 10
0.4250
 20
0.2379
 30
0.0000
  0
SEQEND
  8
0
  0
POLYLINE
  8
0
 66
1
 10
0.0000
 20
0.0000
 30
0.0000
 40
0.1000
 41
0.1000
 70
0
  0
VERTEX
  8
0
 10
0.2379
 20
-0.4500
 30
0.0000
  0
VERTEX
  8
0
 10
-0.2379
 20
-0.4500
 30
0.0000
  0
SEQEND
  8
0
  0
POLYLINE
  8
0
 66
1
 10
0.0000
 20
0.0000
 30
0.0000
 40
0.0500
 41
0.0500
 70
0
  0
VERTEX
  8
0
 10
-0.2379
 20
-0.4250
 30
0.0000
 42
1.0000
  0
VERTEX
  8
0
 10
-0.2379
 20
-0.4750
 30
0.0000
  0
SEQEND
  8
0
  0
POLYLINE
  8
0
 66
1
 10
0.0000
 20
0.0000
 30
0.0000
 40
0.0500
 41
0.0500
 70
0
  0
VERTEX
  8
0
 10
0.2379
 20
-0.4750
 30
0.0000
 42
1.0000
  0
VERTEX
  8
0
 10
0.2379
 20
-0.4250
 30
0.0000
  0
SEQEND
  8
0
  0
POLYLINE
  8
0
 66
1
 10
0.0000
 20
0.0000
 30
0.0000
 40
0.1000
 41
0.1000
 70
0
  0
VERTEX
  8
0
 10
-0.4500
 20
-0.2379
 30
0.0000
  0
VERTEX
  8
0
 10
-0.4500
 20
0.2379
 30
0.0000
  0
SEQEND
  8
0
  0
POLYLINE
  8
0
 66
1
 10
0.0000
 20
0.0000
 30
0.0000
 40
0.0500
 41
0.0500
 70
0
  0
VERTEX
  8
0
 10
-0.4250
 20
0.2379
 30
0.0000
 42
1.0000
  0
VERTEX
  8
0
 10
-0.4750
 20
0.2379
 30
0.0000
  0
SEQEND
  8
0
  0
POLYLINE
  8
0
 66
1
 10
0.0000
 20
0.0000
 30
0.0000
 40
0.0500
 41
0.0500
 70
0
  0
VERTEX
  8
0
 10
-0.4750
 20
-0.2379
 30
0.0000
 42
1.0000
  0
VERTEX
  8
0
 10
-0.4250
 20
-0.2379
 30
0.0000
  0
SEQEND
  8
0
  0
ENDBLK
  8
0
  0
BLOCK
  8
0
  2
LONGP100
 70
64
 10
0.0000
 20
0.0000
 30
0.0000
  3
LONGP100
  0
POLYLINE
  8
0
 66
1
 10
0.0000
 20
0.0000
 30
0.0000
 40
1.0000
 41
1.0000
 70
0
  0
VERTEX
  8
0
 10
-0.5000
 20
0.0000
 30
0.0000
  0
VERTEX
  8
0
 10
0.5000
 20
0.0000
 30
0.0000
  0
SEQEND
  8
0
  0
POLYLINE
  8
0
 66
1
 10
0.0000
 20
0.0000
 30
0.0000
 40
0.5000
 41
0.5000
 70
0
  0
VERTEX
  8
0
 10
0.5000
 20
-0.2500
 30
0.0000
 42
1.0000
  0
VERTEX
  8
0
 10
0.5000
 20
0.2500
 30
0.0000
  0
SEQEND
  8
0
  0
POLYLINE
  8
0
 66
1
 10
0.0000
 20
0.0000
 30
0.0000
 40
0.5000
 41
0.5000
 70
0
  0
VERTEX
  8
0
 10
-0.5000
 20
0.2500
 30
0.0000
 42
1.0000
  0
VERTEX
  8
0
 10
-0.5000
 20
-0.2500
 30
0.0000
  0
SEQEND
  8
0
  0
ENDBLK
  8
0
  0
ENDSEC
  0
SECTION
  2
ENTITIES
  0
POLYLINE
  8
20
 66
1
 10
0.0000
 20
0.0000
 30
0.0000
 40
0.4064
 41
0.4064
 70
0
  0
VERTEX
  8
20
 10
0.0000
 20
70.0000
 30
0.0000
  0
VERTEX
  8
20
 10
100.0000
 20
70.0000
 30
0.0000
  0
SEQEND
  8
0
  0
POLYLINE
  8
20
 66
1
 10
0.0000
 20
0.0000
 30
0.0000
 40
0.2032
 41
0.2032
 70
0
  0
VERTEX
  8
20
 10
100.0000
 20
69.8984
 30
0.0000
 42
1.0000
  0
VERTEX
  8
20
 10
100.0000
 20
70.1016
 30
0.0000
  0
SEQEND
  8
0
  0
POLYLINE
  8
20
 66
1
 10
0.0000
 20
0.0000
 30
0.0000
 40
0.2032
 41
0.2032
 70
0
  0
VERTEX
  8
20
 10
0.0000
 20
70.1016
 30
0.0000
 42
1.0000
  0
VERTEX
  8
20
 10
0.0000
 20
69.8984
 30
0.0000
  0
SEQEND
  8
0
  0
POLYLINE
  8
20
 66
1
 10
0.0000
 20
0.0000
 30
0.0000
 40
0.4064
 41
0.4064
 70
0
  0
VERTEX
  8
20
 10
0.0000
 20
0.0000
 30
0.0000
  0
VERTEX
  8
20
 10
100.0000
 20
0.0000
 30
0.0000
  0
SEQEND
  8
0
  0
POLYLINE
  8
20
 66
1
 10
0.0000
 20
0.0000
 30
0.0000
 40
0.2032
 41
0.2032
 70
0
  0
VERTEX
  8
20
 10
100.0000
 20
-0.1016
 30
0.0000
 42
1.0000
  0
VERTEX
  8
20
 10
100.0000
 20
0.1016
 30
0.0000
  0
SEQEND
  8
0
  0
POLYLINE
  8
20
 66
1
 10
0.0000
 20
0.0000
 30
0.0000
 40
0.2032
 41
0.2032
 70
0
  0
VERTEX
  8
20
 10
0.0000
 20
0.1016
 30
0.0000
 42
1.0000
  0
VERTEX
  8
20
 10
0.0000
 20
-0.1016
 30
0.0000
  0
SEQEND
  8
0
  0
POLYLINE
  8
20
 66
1
 10
0.0000
 20
0.0000
 30
0.0000
 40
0.4064
 41
0.4064
 70
0
  0
VERTEX
  8
20
 10
0.0000
 20
0.0000
 30
0.0000
  0
VERTEX
  8
20
 10
0.0000
 20
70.0000
 30
0.0000
  0
SEQEND
  8
0
  0
POLYLINE
  8
20
 66
1
 10
0.0000
 20
0.0000
 30
0.0000
 40
0.2032
 41
0.2032
 70
0
  0
VERTEX
  8
20
 10
0.1016
 20
70.0000
 30
0.0000
 42
1.0000
  0
VERTEX
  8
20
 10
-0.1016
 20
70.0000
 30
0.0000
  0
SEQEND
  8
0
  0
POLYLINE
  8
20
 66
1
 10
0.0000
 20
0.0000
 30
0.0000
 40
0.2032
 41
0.2032
 70
0
  0
VERTEX
  8
20
 10
-0.1016
 20
0.0000
 30
0.0000
 42
1.0000
  0
VERTEX
  8
20
 10
0.1016
 20
0.0000
 30
0.0000
  0
SEQEND
  8
0
  0
POLYLINE
  8
20
 66
1
 10
0.0000
 20
0.0000
 30
0.0000
 40
0.4064
 41
0.4064
 70
0
  0
VERTEX
  8
20
 10
100.0000
 20
0.0000
 30
0.0000
  0
VERTEX
  8
20
 10
100.0000
 20
70.0000
 30
0.0000
  0
SEQEND
  8
0
  0
POLYLINE
  8
20
 66
1
 10
0.0000
 20
0.0000
 30
0.0000
 40
0.2032
 41
0.2032
 70
0
  0
VERTEX
  8
20
 10
100.1016
 20
70.0000
 30
0.0000
 42
1.0000
  0
VERTEX
  8
20
 10
99.8984
 20
70.0000
 30
0.0000
  0
SEQEND
  8
0
  0
POLYLINE
  8
20
 66
1
 10
0.0000
 20
0.0000
 30
0.0000
 40
0.2032
 41
0.2032
 70
0
  0
VERTEX
  8
20
 10
99.8984
 20
0.0000
 30
0.0000
 42
1.0000
  0
VERTEX
  8
20
 10
100.1016
 20
0.0000
 30
0.0000
  0
SEQEND
  8
0
  0
CIRCLE
  8
20
 10
25.0000
 20
35.0000
 30
0.0000
 40
1.6000
  0
CIRCLE
  8
20
 10
15.0000
 20
65.0000
 30
0.0000
 40
1.6000
  0
CIRCLE
  8
20
 10
95.0000
 20
65.0000
 30
0.0000
 40
1.6000
  0
CIRCLE
  8
20
 10
95.0000
 20
5.0000
 30
0.0000
 40
1.6000
  0
CIRCLE
  8
20
 10
15.0000
 20
5.0000
 30
0.0000
 40
1.6000
  0
CIRCLE
  8
20
 10
53.5000
 20
23.7000
 30
0.0000
 40
0.3000
  0
INSERT
  8
17
  2
ROUNDP
 10
53.7700
 20
51.2700
 30
0.0000
 41
1.6510
 42
1.6510
 43
1.0000
 50
90.0000
  0
CIRCLE
  8
44
 10
53.7700
 20
51.2700
 30
0.0000
 40
0.3500
  0
INSERT
  8
17
  2
ROUNDP
 10
53.7700
 20
56.2700
 30
0.0000
 41
1.6510
 42
1.6510
 43
1.0000
 50
90.0000
  0
CIRCLE
  8
44
 10
53.7700
 20
56.2700
 30
0.0000
 40
0.3500
  0
INSERT
  8
17
  2
ROUNDP
 10
48.6700
 20
51.2900
 30
0.0000
 41
1.6510
 42
1.6510
 43
1.0000
 50
90.0000
  0
CIRCLE
  8
44
 10
48.6700
 20
51.2900
 30
0.0000
 40
0.3500
  0
INSERT
  8
17
  2
ROUNDP
 10
48.6700
 20
56.2900
 30
0.0000
 41
1.6510
 42
1.6510
 43
1.0000
 50
90.0000
  0
CIRCLE
  8
44
 10
48.6700
 20
56.2900
 30
0.0000
 40
0.3500
  0
INSERT
  8
17
  2
ROUNDP
 10
61.0360
 20
47.1800
 30
0.0000
 41
1.3208
 42
1.3208
 43
1.0000
 50
180.0000
  0
CIRCLE
  8
44
 10
61.0360
 20
47.1800
 30
0.0000
 40
0.4064
  0
INSERT
  8
17
  2
OCTAGONP
 10
59.0040
 20
47.1800
 30
0.0000
 41
1.3208
 42
1.3208
 43
1.0000
 50
180.0000
  0
CIRCLE
  8
44
 10
59.0040
 20
47.1800
 30
0.0000
 40
0.4064
  0
INSERT
  8
17
  2
LONGP100
 10
76.5600
 20
38.7500
 30
0.0000
 41
1.3208
 42
1.3208
 43
1.0000
 50
270.0000
  0
CIRCLE
  8
44
 10
76.5600
 20
38.7500
 30
0.0000
 40
0.4064
  0
INSERT
  8
17
  2
LONGP100
 10
74.0200
 20
38.7500
 30
0.0000
 41
1.3208
 42
1.3208
 43
1.0000
 50
270.0000
  0
CIRCLE
  8
44
 10
74.0200
 20
38.7500
 30
0.0000
 40
0.4064
  0
INSERT
  8
17
  2
LONGP100
 10
71.4800
 20
38.7500
 30
0.0000
 41
1.3208
 42
1.3208
 43
1.0000
 50
270.0000
  0
CIRCLE
  8
44
 10
71.4800
 20
38.7500
 30
0.0000
 40
0.4064
  0
INSERT
  8
17
  2
LONGP100
 10
68.9400
 20
38.7500
 30
0.0000
 41
1.3208
 42
1.3208
 43
1.0000
 50
270.0000
  0
CIRCLE
  8
44
 10
68.9400
 20
38.7500
 30
0.0000
 40
0.4064
  0
INSERT
  8
17
  2
LONGP100
 10
66.4000
 20
38.7500
 30
0.0000
 41
1.3208
 42
1.3208
 43
1.0000
 50
270.0000
  0
CIRCLE
  8
44
 10
66.4000
 20
38.7500
 30
0.0000
 40
0.4064
  0
INSERT
  8
17
  2
LONGP100
 10
63.8600
 20
38.7500
 30
0.0000
 41
1.3208
 42
1.3208
 43
1.0000
 50
270.0000
  0
CIRCLE
  8
44
 10
63.8600
 20
38.7500
 30
0.0000
 40
0.4064
  0
INSERT
  8
17
  2
LONGP100
 10
61.3200
 20
38.7500
 30
0.0000
 41
1.3208
 42
1.3208
 43
1.0000
 50
270.0000
  0
CIRCLE
  8
44
 10
61.3200
 20
38.7500
 30
0.0000
 40
0.4064
  0
INSERT
  8
17
  2
LONGP100
 10
58.7800
 20
38.7500
 30
0.0000
 41
1.3208
 42
1.3208
 43
1.0000
 50
270.0000
  0
CIRCLE
  8
44
 10
58.7800
 20
38.7500
 30
0.0000
 40
0.4064
  0
INSERT
  8
17
  2
LONGP100
 10
56.2400
 20
38.7500
 30
0.0000
 41
1.3208
 42
1.3208
 43
1.0000
 50
270.0000
  0
CIRCLE
  8
44
 10
56.2400
 20
38.7500
 30
0.0000
 40
0.4064
  0
INSERT
  8
17
  2
LONGP100
 10
53.7000
 20
38.7500
 30
0.0000
 41
1.3208
 42
1.3208
 43
1.0000
 50
270.0000
  0
CIRCLE
  8
44
 10
53.7000
 20
38.7500
 30
0.0000
 40
0.4064
  0
INSERT
  8
17
  2
LONGP100
 10
51.1600
 20
38.7500
 30
0.0000
 41
1.3208
 42
1.3208
 43
1.0000
 50
270.0000
  0
CIRCLE
  8
44
 10
51.1600
 20
38.7500
 30
0.0000
 40
0.4064
  0
INSERT
  8
17
  2
LONGP100
 10
48.6200
 20
38.7500
 30
0.0000
 41
1.3208
 42
1.3208
 43
1.0000
 50
270.0000
  0
CIRCLE
  8
44
 10
48.6200
 20
38.7500
 30
0.0000
 40
0.4064
  0
INSERT
  8
17
  2
LONGP100
 10
46.0800
 20
38.7500
 30
0.0000
 41
1.3208
 42
1.3208
 43
1.0000
 50
270.0000
  0
CIRCLE
  8
44
 10
46.0800
 20
38.7500
 30
0.0000
 40
0.4064
  0
INSERT
  8
17
  2
LONGP100
 10
43.5400
 20
38.7500
 30
0.0000
 41
1.3208
 42
1.3208
 43
1.0000
 50
270.0000
  0
CIRCLE
  8
44
 10
43.5400
 20
38.7500
 30
0.0000
 40
0.4064
  0
INSERT
  8
17
  2
LONGP100
 10
43.5400
 20
31.1300
 30
0.0000
 41
1.3208
 42
1.3208
 43
1.0000
 50
270.0000
  0
CIRCLE
  8
44
 10
43.5400
 20
31.1300
 30
0.0000
 40
0.4064
  0
INSERT
  8
17
  2
LONGP100
 10
46.0800
 20
31.1300
 30
0.0000
 41
1.3208
 42
1.3208
 43
1.0000
 50
270.0000
  0
CIRCLE
  8
44
 10
46.0800
 20
31.1300
 30
0.0000
 40
0.4064
  0
INSERT
  8
17
  2
LONGP100
 10
48.6200
 20
31.1300
 30
0.0000
 41
1.3208
 42
1.3208
 43
1.0000
 50
270.0000
  0
CIRCLE
  8
44
 10
48.6200
 20
31.1300
 30
0.0000
 40
0.4064
  0
INSERT
  8
17
  2
LONGP100
 10
51.1600
 20
31.1300
 30
0.0000
 41
1.3208
 42
1.3208
 43
1.0000
 50
270.0000
  0
CIRCLE
  8
44
 10
51.1600
 20
31.1300
 30
0.0000
 40
0.4064
  0
INSERT
  8
17
  2
LONGP100
 10
53.7000
 20
31.1300
 30
0.0000
 41
1.3208
 42
1.3208
 43
1.0000
 50
270.0000
  0
CIRCLE
  8
44
 10
53.7000
 20
31.1300
 30
0.0000
 40
0.4064
  0
INSERT
  8
17
  2
LONGP100
 10
56.2400
 20
31.1300
 30
0.0000
 41
1.3208
 42
1.3208
 43
1.0000
 50
270.0000
  0
CIRCLE
  8
44
 10
56.2400
 20
31.1300
 30
0.0000
 40
0.4064
  0
INSERT
  8
17
  2
LONGP100
 10
58.7800
 20
31.1300
 30
0.0000
 41
1.3208
 42
1.3208
 43
1.0000
 50
270.0000
  0
CIRCLE
  8
44
 10
58.7800
 20
31.1300
 30
0.0000
 40
0.4064
  0
INSERT
  8
17
  2
LONGP100
 10
61.3200
 20
31.1300
 30
0.0000
 41
1.3208
 42
1.3208
 43
1.0000
 50
270.0000
  0
CIRCLE
  8
44
 10
61.3200
 20
31.1300
 30
0.0000
 40
0.4064
  0
INSERT
  8
17
  2
LONGP100
 10
63.8600
 20
31.1300
 30
0.0000
 41
1.3208
 42
1.3208
 43
1.0000
 50
270.0000
  0
CIRCLE
  8
44
 10
63.8600
 20
31.1300
 30
0.0000
 40
0.4064
  0
INSERT
  8
17
  2
LONGP100
 10
66.4000
 20
31.1300
 30
0.0000
 41
1.3208
 42
1.3208
 43
1.0000
 50
270.0000
  0
CIRCLE
  8
44
 10
66.4000
 20
31.1300
 30
0.0000
 40
0.4064
  0
INSERT
  8
17
  2
LONGP100
 10
68.9400
 20
31.1300
 30
0.0000
 41
1.3208
 42
1.3208
 43
1.0000
 50
270.0000
  0
CIRCLE
  8
44
 10
68.9400
 20
31.1300
 30
0.0000
 40
0.4064
  0
INSERT
  8
17
  2
LONGP100
 10
71.4800
 20
31.1300
 30
0.0000
 41
1.3208
 42
1.3208
 43
1.0000
 50
270.0000
  0
CIRCLE
  8
44
 10
71.4800
 20
31.1300
 30
0.0000
 40
0.4064
  0
INSERT
  8
17
  2
LONGP100
 10
74.0200
 20
31.1300
 30
0.0000
 41
1.3208
 42
1.3208
 43
1.0000
 50
270.0000
  0
CIRCLE
  8
44
 10
74.0200
 20
31.1300
 30
0.0000
 40
0.4064
  0
INSERT
  8
17
  2
LONGP100
 10
76.5600
 20
31.1300
 30
0.0000
 41
1.3208
 42
1.3208
 43
1.0000
 50
270.0000
  0
CIRCLE
  8
44
 10
76.5600
 20
31.1300
 30
0.0000
 40
0.4064
  0
INSERT
  8
17
  2
SQUAREP
 10
87.7300
 20
14.2300
 30
0.0000
 41
1.8796
 42
1.8796
 43
1.0000
 50
0.0000
  0
CIRCLE
  8
44
 10
87.7300
 20
14.2300
 30
0.0000
 40
0.5080
  0
INSERT
  8
17
  2
OCTAGONP
 10
87.7300
 20
16.7700
 30
0.0000
 41
1.8796
 42
1.8796
 43
1.0000
 50
0.0000
  0
CIRCLE
  8
44
 10
87.7300
 20
16.7700
 30
0.0000
 40
0.5080
  0
INSERT
  8
17
  2
OCTAGONP
 10
90.2700
 20
14.2300
 30
0.0000
 41
1.8796
 42
1.8796
 43
1.0000
 50
0.0000
  0
CIRCLE
  8
44
 10
90.2700
 20
14.2300
 30
0.0000
 40
0.5080
  0
INSERT
  8
17
  2
OCTAGONP
 10
90.2700
 20
16.7700
 30
0.0000
 41
1.8796
 42
1.8796
 43
1.0000
 50
0.0000
  0
CIRCLE
  8
44
 10
90.2700
 20
16.7700
 30
0.0000
 40
0.5080
  0
INSERT
  8
17
  2
OCTAGONP
 10
92.8100
 20
14.2300
 30
0.0000
 41
1.8796
 42
1.8796
 43
1.0000
 50
0.0000
  0
CIRCLE
  8
44
 10
92.8100
 20
14.2300
 30
0.0000
 40
0.5080
  0
INSERT
  8
17
  2
OCTAGONP
 10
92.8100
 20
16.7700
 30
0.0000
 41
1.8796
 42
1.8796
 43
1.0000
 50
0.0000
  0
CIRCLE
  8
44
 10
92.8100
 20
16.7700
 30
0.0000
 40
0.5080
  0
INSERT
  8
17
  2
SQUAREP
 10
78.7870
 20
66.1300
 30
0.0000
 41
2.0320
 42
2.0320
 43
1.0000
 50
180.0000
  0
CIRCLE
  8
44
 10
78.7870
 20
66.1300
 30
0.0000
 40
0.6500
  0
INSERT
  8
17
  2
ROUNDP
 10
83.6930
 20
66.1300
 30
0.0000
 41
2.0320
 42
2.0320
 43
1.0000
 50
180.0000
  0
CIRCLE
  8
44
 10
83.6930
 20
66.1300
 30
0.0000
 40
0.6500
  0
INSERT
  8
17
  2
ROUNDP
 10
76.5000
 20
43.0000
 30
0.0000
 41
1.8796
 42
1.8796
 43
1.0000
 50
270.0000
  0
CIRCLE
  8
44
 10
76.5000
 20
43.0000
 30
0.0000
 40
0.5080
  0
INSERT
  8
17
  2
ROUNDP
 10
73.9600
 20
43.0000
 30
0.0000
 41
1.8796
 42
1.8796
 43
1.0000
 50
270.0000
  0
CIRCLE
  8
44
 10
73.9600
 20
43.0000
 30
0.0000
 40
0.5080
  0
INSERT
  8
17
  2
ROUNDP
 10
71.4200
 20
43.0000
 30
0.0000
 41
1.8796
 42
1.8796
 43
1.0000
 50
270.0000
  0
CIRCLE
  8
44
 10
71.4200
 20
43.0000
 30
0.0000
 40
0.5080
  0
INSERT
  8
17
  2
ROUNDP
 10
68.8800
 20
43.0000
 30
0.0000
 41
1.8796
 42
1.8796
 43
1.0000
 50
270.0000
  0
CIRCLE
  8
44
 10
68.8800
 20
43.0000
 30
0.0000
 40
0.5080
  0
INSERT
  8
17
  2
ROUNDP
 10
66.3400
 20
43.0000
 30
0.0000
 41
1.8796
 42
1.8796
 43
1.0000
 50
270.0000
  0
CIRCLE
  8
44
 10
66.3400
 20
43.0000
 30
0.0000
 40
0.5080
  0
INSERT
  8
17
  2
ROUNDP
 10
63.8000
 20
43.0000
 30
0.0000
 41
1.8796
 42
1.8796
 43
1.0000
 50
270.0000
  0
CIRCLE
  8
44
 10
63.8000
 20
43.0000
 30
0.0000
 40
0.5080
  0
INSERT
  8
17
  2
ROUNDP
 10
61.2600
 20
43.0000
 30
0.0000
 41
1.8796
 42
1.8796
 43
1.0000
 50
270.0000
  0
CIRCLE
  8
44
 10
61.2600
 20
43.0000
 30
0.0000
 40
0.5080
  0
INSERT
  8
17
  2
ROUNDP
 10
58.7200
 20
43.0000
 30
0.0000
 41
1.8796
 42
1.8796
 43
1.0000
 50
270.0000
  0
CIRCLE
  8
44
 10
58.7200
 20
43.0000
 30
0.0000
 40
0.5080
  0
INSERT
  8
17
  2
ROUNDP
 10
56.1800
 20
43.0000
 30
0.0000
 41
1.8796
 42
1.8796
 43
1.0000
 50
270.0000
  0
CIRCLE
  8
44
 10
56.1800
 20
43.0000
 30
0.0000
 40
0.5080
  0
INSERT
  8
17
  2
ROUNDP
 10
53.6400
 20
43.0000
 30
0.0000
 41
1.8796
 42
1.8796
 43
1.0000
 50
270.0000
  0
CIRCLE
  8
44
 10
53.6400
 20
43.0000
 30
0.0000
 40
0.5080
  0
INSERT
  8
17
  2
ROUNDP
 10
51.1000
 20
43.0000
 30
0.0000
 41
1.8796
 42
1.8796
 43
1.0000
 50
270.0000
  0
CIRCLE
  8
44
 10
51.1000
 20
43.0000
 30
0.0000
 40
0.5080
  0
INSERT
  8
17
  2
ROUNDP
 10
48.5600
 20
43.0000
 30
0.0000
 41
1.8796
 42
1.8796
 43
1.0000
 50
270.0000
  0
CIRCLE
  8
44
 10
48.5600
 20
43.0000
 30
0.0000
 40
0.5080
  0
INSERT
  8
17
  2
ROUNDP
 10
46.0200
 20
43.0000
 30
0.0000
 41
1.8796
 42
1.8796
 43
1.0000
 50
270.0000
  0
CIRCLE
  8
44
 10
46.0200
 20
43.0000
 30
0.0000
 40
0.5080
  0
INSERT
  8
17
  2
ROUNDP
 10
43.4800
 20
43.0000
 30
0.0000
 41
1.8796
 42
1.8796
 43
1.0000
 50
270.0000
  0
CIRCLE
  8
44
 10
43.4800
 20
43.0000
 30
0.0000
 40
0.5080
  0
INSERT
  8
17
  2
ROUNDP
 10
78.8900
 20
14.0700
 30
0.0000
 41
1.8796
 42
1.8796
 43
1.0000
 50
180.0000
  0
CIRCLE
  8
44
 10
78.8900
 20
14.0700
 30
0.0000
 40
0.5080
  0
INSERT
  8
17
  2
ROUNDP
 10
78.8900
 20
16.6100
 30
0.0000
 41
1.8796
 42
1.8796
 43
1.0000
 50
180.0000
  0
CIRCLE
  8
44
 10
78.8900
 20
16.6100
 30
0.0000
 40
0.5080
  0
INSERT
  8
17
  2
ROUNDP
 10
76.5000
 20
26.5000
 30
0.0000
 41
1.8796
 42
1.8796
 43
1.0000
 50
270.0000
  0
CIRCLE
  8
44
 10
76.5000
 20
26.5000
 30
0.0000
 40
0.5080
  0
INSERT
  8
17
  2
ROUNDP
 10
73.9600
 20
26.5000
 30
0.0000
 41
1.8796
 42
1.8796
 43
1.0000
 50
270.0000
  0
CIRCLE
  8
44
 10
73.9600
 20
26.5000
 30
0.0000
 40
0.5080
  0
INSERT
  8
17
  2
ROUNDP
 10
71.4200
 20
26.5000
 30
0.0000
 41
1.8796
 42
1.8796
 43
1.0000
 50
270.0000
  0
CIRCLE
  8
44
 10
71.4200
 20
26.5000
 30
0.0000
 40
0.5080
  0
INSERT
  8
17
  2
ROUNDP
 10
68.8800
 20
26.5000
 30
0.0000
 41
1.8796
 42
1.8796
 43
1.0000
 50
270.0000
  0
CIRCLE
  8
44
 10
68.8800
 20
26.5000
 30
0.0000
 40
0.5080
  0
INSERT
  8
17
  2
ROUNDP
 10
66.3400
 20
26.5000
 30
0.0000
 41
1.8796
 42
1.8796
 43
1.0000
 50
270.0000
  0
CIRCLE
  8
44
 10
66.3400
 20
26.5000
 30
0.0000
 40
0.5080
  0
INSERT
  8
17
  2
ROUNDP
 10
63.8000
 20
26.5000
 30
0.0000
 41
1.8796
 42
1.8796
 43
1.0000
 50
270.0000
  0
CIRCLE
  8
44
 10
63.8000
 20
26.5000
 30
0.0000
 40
0.5080
  0
INSERT
  8
17
  2
ROUNDP
 10
61.2600
 20
26.5000
 30
0.0000
 41
1.8796
 42
1.8796
 43
1.0000
 50
270.0000
  0
CIRCLE
  8
44
 10
61.2600
 20
26.5000
 30
0.0000
 40
0.5080
  0
INSERT
  8
17
  2
ROUNDP
 10
58.7200
 20
26.5000
 30
0.0000
 41
1.8796
 42
1.8796
 43
1.0000
 50
270.0000
  0
CIRCLE
  8
44
 10
58.7200
 20
26.5000
 30
0.0000
 40
0.5080
  0
INSERT
  8
17
  2
ROUNDP
 10
56.1800
 20
26.5000
 30
0.0000
 41
1.8796
 42
1.8796
 43
1.0000
 50
270.0000
  0
CIRCLE
  8
44
 10
56.1800
 20
26.5000
 30
0.0000
 40
0.5080
  0
INSERT
  8
17
  2
ROUNDP
 10
53.6400
 20
26.5000
 30
0.0000
 41
1.8796
 42
1.8796
 43
1.0000
 50
270.0000
  0
CIRCLE
  8
44
 10
53.6400
 20
26.5000
 30
0.0000
 40
0.5080
  0
INSERT
  8
17
  2
ROUNDP
 10
51.1000
 20
26.5000
 30
0.0000
 41
1.8796
 42
1.8796
 43
1.0000
 50
270.0000
  0
CIRCLE
  8
44
 10
51.1000
 20
26.5000
 30
0.0000
 40
0.5080
  0
INSERT
  8
17
  2
ROUNDP
 10
48.5600
 20
26.5000
 30
0.0000
 41
1.8796
 42
1.8796
 43
1.0000
 50
270.0000
  0
CIRCLE
  8
44
 10
48.5600
 20
26.5000
 30
0.0000
 40
0.5080
  0
INSERT
  8
17
  2
ROUNDP
 10
46.0200
 20
26.5000
 30
0.0000
 41
1.8796
 42
1.8796
 43
1.0000
 50
270.0000
  0
CIRCLE
  8
44
 10
46.0200
 20
26.5000
 30
0.0000
 40
0.5080
  0
INSERT
  8
17
  2
ROUNDP
 10
43.4800
 20
26.5000
 30
0.0000
 41
1.8796
 42
1.8796
 43
1.0000
 50
270.0000
  0
CIRCLE
  8
44
 10
43.4800
 20
26.5000
 30
0.0000
 40
0.5080
  0
INSERT
  8
17
  2
ROUNDP
 10
4.0000
 20
42.0500
 30
0.0000
 41
1.6500
 42
1.6500
 43
1.0000
 50
270.0000
  0
CIRCLE
  8
44
 10
4.0000
 20
42.0500
 30
0.0000
 40
0.5500
  0
INSERT
  8
17
  2
ROUNDP
 10
4.0000
 20
39.5100
 30
0.0000
 41
1.6500
 42
1.6500
 43
1.0000
 50
270.0000
  0
CIRCLE
  8
44
 10
4.0000
 20
39.5100
 30
0.0000
 40
0.5500
  0
INSERT
  8
17
  2
ROUNDP
 10
4.0000
 20
36.9700
 30
0.0000
 41
1.6500
 42
1.6500
 43
1.0000
 50
270.0000
  0
CIRCLE
  8
44
 10
4.0000
 20
36.9700
 30
0.0000
 40
0.5500
  0
INSERT
  8
17
  2
ROUNDP
 10
4.0000
 20
34.4300
 30
0.0000
 41
1.6500
 42
1.6500
 43
1.0000
 50
270.0000
  0
CIRCLE
  8
44
 10
4.0000
 20
34.4300
 30
0.0000
 40
0.5500
  0
INSERT
  8
17
  2
ROUNDP
 10
4.0000
 20
31.8900
 30
0.0000
 41
1.6500
 42
1.6500
 43
1.0000
 50
270.0000
  0
CIRCLE
  8
44
 10
4.0000
 20
31.8900
 30
0.0000
 40
0.5500
  0
INSERT
  8
17
  2
ROUNDP
 10
4.0000
 20
29.3500
 30
0.0000
 41
1.6500
 42
1.6500
 43
1.0000
 50
270.0000
  0
CIRCLE
  8
44
 10
4.0000
 20
29.3500
 30
0.0000
 40
0.5500
  0
INSERT
  8
17
  2
ROUNDP
 10
4.0000
 20
26.8100
 30
0.0000
 41
1.6500
 42
1.6500
 43
1.0000
 50
270.0000
  0
CIRCLE
  8
44
 10
4.0000
 20
26.8100
 30
0.0000
 40
0.5500
  0
INSERT
  8
17
  2
ROUNDP
 10
4.0000
 20
24.2700
 30
0.0000
 41
1.6500
 42
1.6500
 43
1.0000
 50
270.0000
  0
CIRCLE
  8
44
 10
4.0000
 20
24.2700
 30
0.0000
 40
0.5500
  0
INSERT
  8
17
  2
ROUNDP
 10
4.0000
 20
21.7300
 30
0.0000
 41
1.6500
 42
1.6500
 43
1.0000
 50
270.0000
  0
CIRCLE
  8
44
 10
4.0000
 20
21.7300
 30
0.0000
 40
0.5500
  0
INSERT
  8
17
  2
ROUNDP
 10
4.0000
 20
19.1900
 30
0.0000
 41
1.6500
 42
1.6500
 43
1.0000
 50
270.0000
  0
CIRCLE
  8
44
 10
4.0000
 20
19.1900
 30
0.0000
 40
0.5500
  0
INSERT
  8
17
  2
ROUNDP
 10
4.0000
 20
16.6500
 30
0.0000
 41
1.6500
 42
1.6500
 43
1.0000
 50
270.0000
  0
CIRCLE
  8
44
 10
4.0000
 20
16.6500
 30
0.0000
 40
0.5500
  0
INSERT
  8
17
  2
ROUNDP
 10
4.0000
 20
14.1100
 30
0.0000
 41
1.6500
 42
1.6500
 43
1.0000
 50
270.0000
  0
CIRCLE
  8
44
 10
4.0000
 20
14.1100
 30
0.0000
 40
0.5500
  0
INSERT
  8
17
  2
ROUNDP
 10
4.0000
 20
11.5700
 30
0.0000
 41
1.6500
 42
1.6500
 43
1.0000
 50
270.0000
  0
CIRCLE
  8
44
 10
4.0000
 20
11.5700
 30
0.0000
 40
0.5500
  0
INSERT
  8
17
  2
ROUNDP
 10
4.0000
 20
9.0300
 30
0.0000
 41
1.6500
 42
1.6500
 43
1.0000
 50
270.0000
  0
CIRCLE
  8
44
 10
4.0000
 20
9.0300
 30
0.0000
 40
0.5500
  0
INSERT
  8
17
  2
ROUNDP
 10
4.0000
 20
6.4900
 30
0.0000
 41
1.6500
 42
1.6500
 43
1.0000
 50
270.0000
  0
CIRCLE
  8
44
 10
4.0000
 20
6.4900
 30
0.0000
 40
0.5500
  0
INSERT
  8
17
  2
ROUNDP
 10
4.0000
 20
3.9500
 30
0.0000
 41
1.6500
 42
1.6500
 43
1.0000
 50
270.0000
  0
CIRCLE
  8
44
 10
4.0000
 20
3.9500
 30
0.0000
 40
0.5500
  0
INSERT
  8
17
  2
ROUNDP
 10
53.7400
 20
47.1000
 30
0.0000
 41
1.6500
 42
1.6500
 43
1.0000
 50
180.0000
  0
CIRCLE
  8
44
 10
53.7400
 20
47.1000
 30
0.0000
 40
0.5500
  0
INSERT
  8
17
  2
ROUNDP
 10
51.2000
 20
47.1000
 30
0.0000
 41
1.6500
 42
1.6500
 43
1.0000
 50
180.0000
  0
CIRCLE
  8
44
 10
51.2000
 20
47.1000
 30
0.0000
 40
0.5500
  0
INSERT
  8
17
  2
ROUNDP
 10
48.6600
 20
47.1000
 30
0.0000
 41
1.6500
 42
1.6500
 43
1.0000
 50
180.0000
  0
CIRCLE
  8
44
 10
48.6600
 20
47.1000
 30
0.0000
 40
0.5500
  0
INSERT
  8
17
  2
LONGP100
 10
81.2700
 20
47.2800
 30
0.0000
 41
1.3208
 42
1.3208
 43
1.0000
 50
270.0000
  0
CIRCLE
  8
44
 10
81.2700
 20
47.2800
 30
0.0000
 40
0.4064
  0
INSERT
  8
17
  2
LONGP100
 10
86.3500
 20
47.2800
 30
0.0000
 41
1.3208
 42
1.3208
 43
1.0000
 50
270.0000
  0
CIRCLE
  8
44
 10
86.3500
 20
47.2800
 30
0.0000
 40
0.4064
  0
INSERT
  8
17
  2
LONGP100
 10
83.8100
 20
47.2800
 30
0.0000
 41
1.3208
 42
1.3208
 43
1.0000
 50
270.0000
  0
CIRCLE
  8
44
 10
83.8100
 20
47.2800
 30
0.0000
 40
0.4064
  0
INSERT
  8
17
  2
OCTAGONP
 10
20.6000
 20
53.1000
 30
0.0000
 41
1.6002
 42
1.6002
 43
1.0000
 50
0.0000
  0
CIRCLE
  8
44
 10
20.6000
 20
53.1000
 30
0.0000
 40
0.4064
  0
INSERT
  8
17
  2
OCTAGONP
 10
69.0000
 20
53.3000
 30
0.0000
 41
1.6002
 42
1.6002
 43
1.0000
 50
0.0000
  0
CIRCLE
  8
44
 10
69.0000
 20
53.3000
 30
0.0000
 40
0.4064
  0
INSERT
  8
17
  2
OCTAGONP
 10
59.0000
 20
60.6000
 30
0.0000
 41
1.6002
 42
1.6002
 43
1.0000
 50
0.0000
  0
CIRCLE
  8
44
 10
59.0000
 20
60.6000
 30
0.0000
 40
0.4064
  0
INSERT
  8
17
  2
OCTAGONP
 10
59.0000
 20
56.0000
 30
0.0000
 41
1.6002
 42
1.6002
 43
1.0000
 50
0.0000
  0
CIRCLE
  8
44
 10
59.0000
 20
56.0000
 30
0.0000
 40
0.4064
  0
INSERT
  8
17
  2
OCTAGONP
 10
48.5000
 20
21.0000
 30
0.0000
 41
1.6002
 42
1.6002
 43
1.0000
 50
0.0000
  0
CIRCLE
  8
44
 10
48.5000
 20
21.0000
 30
0.0000
 40
0.4064
  0
INSERT
  8
17
  2
OCTAGONP
 10
51.0000
 20
19.0000
 30
0.0000
 41
1.6002
 42
1.6002
 43
1.0000
 50
0.0000
  0
CIRCLE
  8
44
 10
51.0000
 20
19.0000
 30
0.0000
 40
0.4064
  0
INSERT
  8
17
  2
OCTAGONP
 10
53.5000
 20
23.5000
 30
0.0000
 41
1.6002
 42
1.6002
 43
1.0000
 50
0.0000
  0
CIRCLE
  8
44
 10
53.5000
 20
23.5000
 30
0.0000
 40
0.4064
  0
INSERT
  8
17
  2
OCTAGONP
 10
61.5000
 20
19.0000
 30
0.0000
 41
1.6002
 42
1.6002
 43
1.0000
 50
0.0000
  0
CIRCLE
  8
44
 10
61.5000
 20
19.0000
 30
0.0000
 40
0.4064
  0
INSERT
  8
17
  2
OCTAGONP
 10
90.5000
 20
21.0000
 30
0.0000
 41
1.6002
 42
1.6002
 43
1.0000
 50
0.0000
  0
CIRCLE
  8
44
 10
90.5000
 20
21.0000
 30
0.0000
 40
0.4064
  0
INSERT
  8
17
  2
OCTAGONP
 10
97.5000
 20
23.5000
 30
0.0000
 41
1.6002
 42
1.6002
 43
1.0000
 50
0.0000
  0
CIRCLE
  8
44
 10
97.5000
 20
23.5000
 30
0.0000
 40
0.4064
  0
INSERT
  8
17
  2
OCTAGONP
 10
61.7000
 20
6.4000
 30
0.0000
 41
1.6002
 42
1.6002
 43
1.0000
 50
0.0000
  0
CIRCLE
  8
44
 10
61.7000
 20
6.4000
 30
0.0000
 40
0.4064
  0
INSERT
  8
17
  2
OCTAGONP
 10
51.0000
 20
1.8000
 30
0.0000
 41
1.6002
 42
1.6002
 43
1.0000
 50
0.0000
  0
CIRCLE
  8
44
 10
51.0000
 20
1.8000
 30
0.0000
 40
0.4064
  0
INSERT
  8
17
  2
OCTAGONP
 10
28.8000
 20
50.0000
 30
0.0000
 41
1.6002
 42
1.6002
 43
1.0000
 50
0.0000
  0
CIRCLE
  8
44
 10
28.8000
 20
50.0000
 30
0.0000
 40
0.4064
  0
INSERT
  8
17
  2
OCTAGONP
 10
66.4000
 20
49.9000
 30
0.0000
 41
1.6002
 42
1.6002
 43
1.0000
 50
0.0000
  0
CIRCLE
  8
44
 10
66.4000
 20
49.9000
 30
0.0000
 40
0.4064
  0
INSERT
  8
17
  2
OCTAGONP
 10
31.1000
 20
45.5000
 30
0.0000
 41
1.6002
 42
1.6002
 43
1.0000
 50
0.0000
  0
CIRCLE
  8
44
 10
31.1000
 20
45.5000
 30
0.0000
 40
0.4064
  0
INSERT
  8
17
  2
OCTAGONP
 10
63.8000
 20
45.4000
 30
0.0000
 41
1.6002
 42
1.6002
 43
1.0000
 50
0.0000
  0
CIRCLE
  8
44
 10
63.8000
 20
45.4000
 30
0.0000
 40
0.4064
  0
INSERT
  8
17
  2
OCTAGONP
 10
76.5000
 20
50.8000
 30
0.0000
 41
1.6002
 42
1.6002
 43
1.0000
 50
0.0000
  0
CIRCLE
  8
44
 10
76.5000
 20
50.8000
 30
0.0000
 40
0.4064
  0
INSERT
  8
17
  2
OCTAGONP
 10
86.4000
 20
50.8000
 30
0.0000
 41
1.6002
 42
1.6002
 43
1.0000
 50
0.0000
  0
CIRCLE
  8
44
 10
86.4000
 20
50.8000
 30
0.0000
 40
0.4064
  0
INSERT
  8
17
  2
OCTAGONP
 10
69.1000
 20
60.6000
 30
0.0000
 41
1.6002
 42
1.6002
 43
1.0000
 50
0.0000
  0
CIRCLE
  8
44
 10
69.1000
 20
60.6000
 30
0.0000
 40
0.4064
  0
INSERT
  8
17
  2
OCTAGONP
 10
83.8000
 20
60.5000
 30
0.0000
 41
1.6002
 42
1.6002
 43
1.0000
 50
0.0000
  0
CIRCLE
  8
44
 10
83.8000
 20
60.5000
 30
0.0000
 40
0.4064
  0
INSERT
  8
17
  2
OCTAGONP
 10
92.6800
 20
52.8900
 30
0.0000
 41
1.3208
 42
1.3208
 43
1.0000
 50
270.0000
  0
CIRCLE
  8
44
 10
92.6800
 20
52.8900
 30
0.0000
 40
0.4064
  0
INSERT
  8
17
  2
OCTAGONP
 10
92.6800
 20
42.7300
 30
0.0000
 41
1.3208
 42
1.3208
 43
1.0000
 50
270.0000
  0
CIRCLE
  8
44
 10
92.6800
 20
42.7300
 30
0.0000
 40
0.4064
  0
INSERT
  8
17
  2
OCTAGONP
 10
84.0600
 20
42.2300
 30
0.0000
 41
1.3208
 42
1.3208
 43
1.0000
 50
270.0000
  0
CIRCLE
  8
44
 10
84.0600
 20
42.2300
 30
0.0000
 40
0.4064
  0
INSERT
  8
17
  2
OCTAGONP
 10
84.0600
 20
32.0700
 30
0.0000
 41
1.3208
 42
1.3208
 43
1.0000
 50
270.0000
  0
CIRCLE
  8
44
 10
84.0600
 20
32.0700
 30
0.0000
 40
0.4064
  0
INSERT
  8
17
  2
OCTAGONP
 10
18.3400
 20
36.9500
 30
0.0000
 41
1.3208
 42
1.3208
 43
1.0000
 50
180.0000
  0
CIRCLE
  8
44
 10
18.3400
 20
36.9500
 30
0.0000
 40
0.4064
  0
INSERT
  8
17
  2
OCTAGONP
 10
8.1800
 20
36.9500
 30
0.0000
 41
1.3208
 42
1.3208
 43
1.0000
 50
180.0000
  0
CIRCLE
  8
44
 10
8.1800
 20
36.9500
 30
0.0000
 40
0.4064
  0
INSERT
  8
17
  2
SQUAREP
 10
92.7000
 20
33.0400
 30
0.0000
 41
1.3080
 42
1.3080
 43
1.0000
 50
90.0000
  0
CIRCLE
  8
44
 10
92.7000
 20
33.0400
 30
0.0000
 40
0.4000
  0
INSERT
  8
17
  2
OCTAGONP
 10
92.7000
 20
35.0400
 30
0.0000
 41
1.3080
 42
1.3080
 43
1.0000
 50
90.0000
  0
CIRCLE
  8
44
 10
92.7000
 20
35.0400
 30
0.0000
 40
0.4000
  0
INSERT
  8
17
  2
OCTAGONP
 10
92.7000
 20
37.0400
 30
0.0000
 41
1.3080
 42
1.3080
 43
1.0000
 50
90.0000
  0
CIRCLE
  8
44
 10
92.7000
 20
37.0400
 30
0.0000
 40
0.4000
  0
INSERT
  8
17
  2
OCTAGONP
 10
87.7000
 20
33.0400
 30
0.0000
 41
1.3080
 42
1.3080
 43
1.0000
 50
90.0000
  0
CIRCLE
  8
44
 10
87.7000
 20
33.0400
 30
0.0000
 40
0.4000
  0
INSERT
  8
17
  2
OCTAGONP
 10
87.7000
 20
35.0400
 30
0.0000
 41
1.3080
 42
1.3080
 43
1.0000
 50
90.0000
  0
CIRCLE
  8
44
 10
87.7000
 20
35.0400
 30
0.0000
 40
0.4000
  0
INSERT
  8
17
  2
OCTAGONP
 10
87.7000
 20
37.0400
 30
0.0000
 41
1.3080
 42
1.3080
 43
1.0000
 50
90.0000
  0
CIRCLE
  8
44
 10
87.7000
 20
37.0400
 30
0.0000
 40
0.4000
  0
POLYLINE
  8
16
 66
1
 10
0.0000
 20
0.0000
 30
0.0000
 40
1.6510
 41
1.6510
 70
0
  0
VERTEX
  8
16
 10
58.7500
 20
26.5000
 30
0.0000
  0
VERTEX
  8
16
 10
58.7500
 20
31.1250
 30
0.0000
  0
SEQEND
  8
0
  0
POLYLINE
  8
16
 66
1
 10
0.0000
 20
0.0000
 30
0.0000
 40
0.8255
 41
0.8255
 70
0
  0
VERTEX
  8
16
 10
59.1628
 20
31.1250
 30
0.0000
 42
1.0000
  0
VERTEX
  8
16
 10
58.3372
 20
31.1250
 30
0.0000
  0
SEQEND
  8
0
  0
POLYLINE
  8
16
 66
1
 10
0.0000
 20
0.0000
 30
0.0000
 40
0.8255
 41
0.8255
 70
0
  0
VERTEX
  8
16
 10
58.3372
 20
26.5000
 30
0.0000
 42
1.0000
  0
VERTEX
  8
16
 10
59.1628
 20
26.5000
 30
0.0000
  0
SEQEND
  8
0
  0
POLYLINE
  8
16
 66
1
 10
0.0000
 20
0.0000
 30
0.0000
 40
1.6510
 41
1.6510
 70
0
  0
VERTEX
  8
16
 10
58.7500
 20
31.1250
 30
0.0000
  0
VERTEX
  8
16
 10
58.7800
 20
31.1300
 30
0.0000
  0
SEQEND
  8
0
  0
POLYLINE
  8
16
 66
1
 10
0.0000
 20
0.0000
 30
0.0000
 40
0.8255
 41
0.8255
 70
0
  0
VERTEX
  8
16
 10
58.8479
 20
30.7229
 30
0.0000
 42
1.0000
  0
VERTEX
  8
16
 10
58.7121
 20
31.5371
 30
0.0000
  0
SEQEND
  8
0
  0
POLYLINE
  8
16
 66
1
 10
0.0000
 20
0.0000
 30
0.0000
 40
0.8255
 41
0.8255
 70
0
  0
VERTEX
  8
16
 10
58.6821
 20
31.5321
 30
0.0000
 42
1.0000
  0
VERTEX
  8
16
 10
58.8179
 20
30.7179
 30
0.0000
  0
SEQEND
  8
0
  0
POLYLINE
  8
16
 66
1
 10
0.0000
 20
0.0000
 30
0.0000
 40
1.6510
 41
1.6510
 70
0
  0
VERTEX
  8
16
 10
58.7500
 20
26.5000
 30
0.0000
  0
VERTEX
  8
16
 10
58.7200
 20
26.5000
 30
0.0000
  0
SEQEND
  8
0
  0
POLYLINE
  8
16
 66
1
 10
0.0000
 20
0.0000
 30
0.0000
 40
0.8255
 41
0.8255
 70
0
  0
VERTEX
  8
16
 10
58.7200
 20
26.9127
 30
0.0000
 42
1.0000
  0
VERTEX
  8
16
 10
58.7200
 20
26.0873
 30
0.0000
  0
SEQEND
  8
0
  0
POLYLINE
  8
16
 66
1
 10
0.0000
 20
0.0000
 30
0.0000
 40
0.8255
 41
0.8255
 70
0
  0
VERTEX
  8
16
 10
58.7500
 20
26.0873
 30
0.0000
 42
1.0000
  0
VERTEX
  8
16
 10
58.7500
 20
26.9127
 30
0.0000
  0
SEQEND
  8
0
  0
POLYLINE
  8
16
 66
1
 10
0.0000
 20
0.0000
 30
0.0000
 40
1.6510
 41
1.6510
 70
0
  0
VERTEX
  8
16
 10
56.2500
 20
26.5000
 30
0.0000
  0
VERTEX
  8
16
 10
56.2500
 20
31.1250
 30
0.0000
  0
SEQEND
  8
0
  0
POLYLINE
  8
16
 66
1
 10
0.0000
 20
0.0000
 30
0.0000
 40
0.8255
 41
0.8255
 70
0
  0
VERTEX
  8
16
 10
56.6628
 20
31.1250
 30
0.0000
 42
1.0000
  0
VERTEX
  8
16
 10
55.8372
 20
31.1250
 30
0.0000
  0
SEQEND
  8
0
  0
POLYLINE
  8
16
 66
1
 10
0.0000
 20
0.0000
 30
0.0000
 40
0.8255
 41
0.8255
 70
0
  0
VERTEX
  8
16
 10
55.8372
 20
26.5000
 30
0.0000
 42
1.0000
  0
VERTEX
  8
16
 10
56.6628
 20
26.5000
 30
0.0000
  0
SEQEND
  8
0
  0
POLYLINE
  8
16
 66
1
 10
0.0000
 20
0.0000
 30
0.0000
 40
1.6510
 41
1.6510
 70
0
  0
VERTEX
  8
16
 10
56.2500
 20
31.1250
 30
0.0000
  0
VERTEX
  8
16
 10
56.2400
 20
31.1300
 30
0.0000
  0
SEQEND
  8
0
  0
POLYLINE
  8
16
 66
1
 10
0.0000
 20
0.0000
 30
0.0000
 40
0.8255
 41
0.8255
 70
0
  0
VERTEX
  8
16
 10
56.4246
 20
31.4992
 30
0.0000
 42
1.0000
  0
VERTEX
  8
16
 10
56.0554
 20
30.7608
 30
0.0000
  0
SEQEND
  8
0
  0
POLYLINE
  8
16
 66
1
 10
0.0000
 20
0.0000
 30
0.0000
 40
0.8255
 41
0.8255
 70
0
  0
VERTEX
  8
16
 10
56.0654
 20
30.7558
 30
0.0000
 42
1.0000
  0
VERTEX
  8
16
 10
56.4346
 20
31.4942
 30
0.0000
  0
SEQEND
  8
0
  0
POLYLINE
  8
16
 66
1
 10
0.0000
 20
0.0000
 30
0.0000
 40
1.6510
 41
1.6510
 70
0
  0
VERTEX
  8
16
 10
56.2500
 20
26.5000
 30
0.0000
  0
VERTEX
  8
16
 10
56.1800
 20
26.5000
 30
0.0000
  0
SEQEND
  8
0
  0
POLYLINE
  8
16
 66
1
 10
0.0000
 20
0.0000
 30
0.0000
 40
0.8255
 41
0.8255
 70
0
  0
VERTEX
  8
16
 10
56.1800
 20
26.9127
 30
0.0000
 42
1.0000
  0
VERTEX
  8
16
 10
56.1800
 20
26.0873
 30
0.0000
  0
SEQEND
  8
0
  0
POLYLINE
  8
16
 66
1
 10
0.0000
 20
0.0000
 30
0.0000
 40
0.8255
 41
0.8255
 70
0
  0
VERTEX
  8
16
 10
56.2500
 20
26.0873
 30
0.0000
 42
1.0000
  0
VERTEX
  8
16
 10
56.2500
 20
26.9127
 30
0.0000
  0
SEQEND
  8
0
  0
POLYLINE
  8
16
 66
1
 10
0.0000
 20
0.0000
 30
0.0000
 40
1.4224
 41
1.4224
 70
0
  0
VERTEX
  8
16
 10
61.3200
 20
38.7500
 30
0.0000
  0
VERTEX
  8
16
 10
61.2000
 20
38.7500
 30
0.0000
  0
SEQEND
  8
0
  0
POLYLINE
  8
16
 66
1
 10
0.0000
 20
0.0000
 30
0.0000
 40
0.7112
 41
0.7112
 70
0
  0
VERTEX
  8
16
 10
61.2000
 20
39.1056
 30
0.0000
 42
1.0000
  0
VERTEX
  8
16
 10
61.2000
 20
38.3944
 30
0.0000
  0
SEQEND
  8
0
  0
POLYLINE
  8
16
 66
1
 10
0.0000
 20
0.0000
 30
0.0000
 40
0.7112
 41
0.7112
 70
0
  0
VERTEX
  8
16
 10
61.3200
 20
38.3944
 30
0.0000
 42
1.0000
  0
VERTEX
  8
16
 10
61.3200
 20
39.1056
 30
0.0000
  0
SEQEND
  8
0
  0
POLYLINE
  8
16
 66
1
 10
0.0000
 20
0.0000
 30
0.0000
 40
1.4224
 41
1.4224
 70
0
  0
VERTEX
  8
16
 10
61.2000
 20
38.7500
 30
0.0000
  0
VERTEX
  8
16
 10
61.2000
 20
34.9000
 30
0.0000
  0
SEQEND
  8
0
  0
POLYLINE
  8
16
 66
1
 10
0.0000
 20
0.0000
 30
0.0000
 40
0.7112
 41
0.7112
 70
0
  0
VERTEX
  8
16
 10
60.8444
 20
34.9000
 30
0.0000
 42
1.0000
  0
VERTEX
  8
16
 10
61.5556
 20
34.9000
 30
0.0000
  0
SEQEND
  8
0
  0
POLYLINE
  8
16
 66
1
 10
0.0000
 20
0.0000
 30
0.0000
 40
0.7112
 41
0.7112
 70
0
  0
VERTEX
  8
16
 10
61.5556
 20
38.7500
 30
0.0000
 42
1.0000
  0
VERTEX
  8
16
 10
60.8444
 20
38.7500
 30
0.0000
  0
SEQEND
  8
0
  0
POLYLINE
  8
16
 66
1
 10
0.0000
 20
0.0000
 30
0.0000
 40
1.4224
 41
1.4224
 70
0
  0
VERTEX
  8
16
 10
61.2000
 20
34.9000
 30
0.0000
  0
VERTEX
  8
16
 10
56.2400
 20
34.9000
 30
0.0000
  0
SEQEND
  8
0
  0
POLYLINE
  8
16
 66
1
 10
0.0000
 20
0.0000
 30
0.0000
 40
0.7112
 41
0.7112
 70
0
  0
VERTEX
  8
16
 10
56.2400
 20
35.2556
 30
0.0000
 42
1.0000
  0
VERTEX
  8
16
 10
56.2400
 20
34.5444
 30
0.0000
  0
SEQEND
  8
0
  0
POLYLINE
  8
16
 66
1
 10
0.0000
 20
0.0000
 30
0.0000
 40
0.7112
 41
0.7112
 70
0
  0
VERTEX
  8
16
 10
61.2000
 20
34.5444
 30
0.0000
 42
1.0000
  0
VERTEX
  8
16
 10
61.2000
 20
35.2556
 30
0.0000
  0
SEQEND
  8
0
  0
POLYLINE
  8
16
 66
1
 10
0.0000
 20
0.0000
 30
0.0000
 40
1.4224
 41
1.4224
 70
0
  0
VERTEX
  8
16
 10
56.2000
 20
34.9000
 30
0.0000
  0
VERTEX
  8
16
 10
56.2400
 20
34.9000
 30
0.0000
  0
SEQEND
  8
0
  0
POLYLINE
  8
16
 66
1
 10
0.0000
 20
0.0000
 30
0.0000
 40
0.7112
 41
0.7112
 70
0
  0
VERTEX
  8
16
 10
56.2400
 20
34.5444
 30
0.0000
 42
1.0000
  0
VERTEX
  8
16
 10
56.2400
 20
35.2556
 30
0.0000
  0
SEQEND
  8
0
  0
POLYLINE
  8
16
 66
1
 10
0.0000
 20
0.0000
 30
0.0000
 40
0.7112
 41
0.7112
 70
0
  0
VERTEX
  8
16
 10
56.2000
 20
35.2556
 30
0.0000
 42
1.0000
  0
VERTEX
  8
16
 10
56.2000
 20
34.5444
 30
0.0000
  0
SEQEND
  8
0
  0
POLYLINE
  8
16
 66
1
 10
0.0000
 20
0.0000
 30
0.0000
 40
1.4224
 41
1.4224
 70
0
  0
VERTEX
  8
16
 10
56.2400
 20
34.9000
 30
0.0000
  0
VERTEX
  8
16
 10
56.2400
 20
31.1300
 30
0.0000
  0
SEQEND
  8
0
  0
POLYLINE
  8
16
 66
1
 10
0.0000
 20
0.0000
 30
0.0000
 40
0.7112
 41
0.7112
 70
0
  0
VERTEX
  8
16
 10
55.8844
 20
31.1300
 30
0.0000
 42
1.0000
  0
VERTEX
  8
16
 10
56.5956
 20
31.1300
 30
0.0000
  0
SEQEND
  8
0
  0
POLYLINE
  8
16
 66
1
 10
0.0000
 20
0.0000
 30
0.0000
 40
0.7112
 41
0.7112
 70
0
  0
VERTEX
  8
16
 10
56.5956
 20
34.9000
 30
0.0000
 42
1.0000
  0
VERTEX
  8
16
 10
55.8844
 20
34.9000
 30
0.0000
  0
SEQEND
  8
0
  0
POLYLINE
  8
16
 66
1
 10
0.0000
 20
0.0000
 30
0.0000
 40
1.6764
 41
1.6764
 70
0
  0
VERTEX
  8
16
 10
61.0360
 20
38.7500
 30
0.0000
  0
VERTEX
  8
16
 10
61.0360
 20
47.1800
 30
0.0000
  0
SEQEND
  8
0
  0
POLYLINE
  8
16
 66
1
 10
0.0000
 20
0.0000
 30
0.0000
 40
0.8382
 41
0.8382
 70
0
  0
VERTEX
  8
16
 10
61.4551
 20
47.1800
 30
0.0000
 42
1.0000
  0
VERTEX
  8
16
 10
60.6169
 20
47.1800
 30
0.0000
  0
SEQEND
  8
0
  0
POLYLINE
  8
16
 66
1
 10
0.0000
 20
0.0000
 30
0.0000
 40
0.8382
 41
0.8382
 70
0
  0
VERTEX
  8
16
 10
60.6169
 20
38.7500
 30
0.0000
 42
1.0000
  0
VERTEX
  8
16
 10
61.4551
 20
38.7500
 30
0.0000
  0
SEQEND
  8
0
  0
POLYLINE
  8
16
 66
1
 10
0.0000
 20
0.0000
 30
0.0000
 40
1.4224
 41
1.4224
 70
0
  0
VERTEX
  8
16
 10
61.2000
 20
38.7500
 30
0.0000
  0
VERTEX
  8
16
 10
61.0360
 20
38.7500
 30
0.0000
  0
SEQEND
  8
0
  0
POLYLINE
  8
16
 66
1
 10
0.0000
 20
0.0000
 30
0.0000
 40
0.7112
 41
0.7112
 70
0
  0
VERTEX
  8
16
 10
61.0360
 20
39.1056
 30
0.0000
 42
1.0000
  0
VERTEX
  8
16
 10
61.0360
 20
38.3944
 30
0.0000
  0
SEQEND
  8
0
  0
POLYLINE
  8
16
 66
1
 10
0.0000
 20
0.0000
 30
0.0000
 40
0.7112
 41
0.7112
 70
0
  0
VERTEX
  8
16
 10
61.2000
 20
38.3944
 30
0.0000
 42
1.0000
  0
VERTEX
  8
16
 10
61.2000
 20
39.1056
 30
0.0000
  0
SEQEND
  8
0
  0
CIRCLE
  8
44
 10
61.1960
 20
38.7500
 30
0.0000
 40
0.3000
  0
POLYLINE
  8
16
 66
1
 10
0.0000
 20
0.0000
 30
0.0000
 40
1.6510
 41
1.6510
 70
0
  0
VERTEX
  8
16
 10
61.3750
 20
26.5000
 30
0.0000
  0
VERTEX
  8
16
 10
61.3750
 20
31.1250
 30
0.0000
  0
SEQEND
  8
0
  0
POLYLINE
  8
16
 66
1
 10
0.0000
 20
0.0000
 30
0.0000
 40
0.8255
 41
0.8255
 70
0
  0
VERTEX
  8
16
 10
61.7878
 20
31.1250
 30
0.0000
 42
1.0000
  0
VERTEX
  8
16
 10
60.9622
 20
31.1250
 30
0.0000
  0
SEQEND
  8
0
  0
POLYLINE
  8
16
 66
1
 10
0.0000
 20
0.0000
 30
0.0000
 40
0.8255
 41
0.8255
 70
0
  0
VERTEX
  8
16
 10
60.9622
 20
26.5000
 30
0.0000
 42
1.0000
  0
VERTEX
  8
16
 10
61.7878
 20
26.5000
 30
0.0000
  0
SEQEND
  8
0
  0
POLYLINE
  8
16
 66
1
 10
0.0000
 20
0.0000
 30
0.0000
 40
1.6510
 41
1.6510
 70
0
  0
VERTEX
  8
16
 10
61.3750
 20
31.1250
 30
0.0000
  0
VERTEX
  8
16
 10
61.3200
 20
31.1300
 30
0.0000
  0
SEQEND
  8
0
  0
POLYLINE
  8
16
 66
1
 10
0.0000
 20
0.0000
 30
0.0000
 40
0.8255
 41
0.8255
 70
0
  0
VERTEX
  8
16
 10
61.3574
 20
31.5411
 30
0.0000
 42
1.0000
  0
VERTEX
  8
16
 10
61.2826
 20
30.7189
 30
0.0000
  0
SEQEND
  8
0
  0
POLYLINE
  8
16
 66
1
 10
0.0000
 20
0.0000
 30
0.0000
 40
0.8255
 41
0.8255
 70
0
  0
VERTEX
  8
16
 10
61.3376
 20
30.7139
 30
0.0000
 42
1.0000
  0
VERTEX
  8
16
 10
61.4124
 20
31.5361
 30
0.0000
  0
SEQEND
  8
0
  0
POLYLINE
  8
16
 66
1
 10
0.0000
 20
0.0000
 30
0.0000
 40
1.6510
 41
1.6510
 70
0
  0
VERTEX
  8
16
 10
61.3750
 20
26.5000
 30
0.0000
  0
VERTEX
  8
16
 10
61.2600
 20
26.5000
 30
0.0000
  0
SEQEND
  8
0
  0
POLYLINE
  8
16
 66
1
 10
0.0000
 20
0.0000
 30
0.0000
 40
0.8255
 41
0.8255
 70
0
  0
VERTEX
  8
16
 10
61.2600
 20
26.9127
 30
0.0000
 42
1.0000
  0
VERTEX
  8
16
 10
61.2600
 20
26.0873
 30
0.0000
  0
SEQEND
  8
0
  0
POLYLINE
  8
16
 66
1
 10
0.0000
 20
0.0000
 30
0.0000
 40
0.8255
 41
0.8255
 70
0
  0
VERTEX
  8
16
 10
61.3750
 20
26.0873
 30
0.0000
 42
1.0000
  0
VERTEX
  8
16
 10
61.3750
 20
26.9127
 30
0.0000
  0
SEQEND
  8
0
  0
POLYLINE
  8
16
 66
1
 10
0.0000
 20
0.0000
 30
0.0000
 40
1.4224
 41
1.4224
 70
0
  0
VERTEX
  8
16
 10
58.6800
 20
42.9500
 30
0.0000
  0
VERTEX
  8
16
 10
58.7200
 20
43.0000
 30
0.0000
  0
SEQEND
  8
0
  0
POLYLINE
  8
16
 66
1
 10
0.0000
 20
0.0000
 30
0.0000
 40
0.7112
 41
0.7112
 70
0
  0
VERTEX
  8
16
 10
58.9977
 20
42.7779
 30
0.0000
 42
1.0000
  0
VERTEX
  8
16
 10
58.4423
 20
43.2221
 30
0.0000
  0
SEQEND
  8
0
  0
POLYLINE
  8
16
 66
1
 10
0.0000
 20
0.0000
 30
0.0000
 40
0.7112
 41
0.7112
 70
0
  0
VERTEX
  8
16
 10
58.4023
 20
43.1721
 30
0.0000
 42
1.0000
  0
VERTEX
  8
16
 10
58.9577
 20
42.7279
 30
0.0000
  0
SEQEND
  8
0
  0
POLYLINE
  8
16
 66
1
 10
0.0000
 20
0.0000
 30
0.0000
 40
1.4224
 41
1.4224
 70
0
  0
VERTEX
  8
16
 10
53.7700
 20
56.2700
 30
0.0000
  0
VERTEX
  8
16
 10
50.9700
 20
56.2700
 30
0.0000
  0
SEQEND
  8
0
  0
POLYLINE
  8
16
 66
1
 10
0.0000
 20
0.0000
 30
0.0000
 40
0.7112
 41
0.7112
 70
0
  0
VERTEX
  8
16
 10
50.9700
 20
56.6256
 30
0.0000
 42
1.0000
  0
VERTEX
  8
16
 10
50.9700
 20
55.9144
 30
0.0000
  0
SEQEND
  8
0
  0
POLYLINE
  8
16
 66
1
 10
0.0000
 20
0.0000
 30
0.0000
 40
0.7112
 41
0.7112
 70
0
  0
VERTEX
  8
16
 10
53.7700
 20
55.9144
 30
0.0000
 42
1.0000
  0
VERTEX
  8
16
 10
53.7700
 20
56.6256
 30
0.0000
  0
SEQEND
  8
0
  0
POLYLINE
  8
16
 66
1
 10
0.0000
 20
0.0000
 30
0.0000
 40
1.4224
 41
1.4224
 70
0
  0
VERTEX
  8
16
 10
50.9700
 20
56.2700
 30
0.0000
  0
VERTEX
  8
16
 10
48.6700
 20
56.2900
 30
0.0000
  0
SEQEND
  8
0
  0
POLYLINE
  8
16
 66
1
 10
0.0000
 20
0.0000
 30
0.0000
 40
0.7112
 41
0.7112
 70
0
  0
VERTEX
  8
16
 10
48.6731
 20
56.6456
 30
0.0000
 42
1.0000
  0
VERTEX
  8
16
 10
48.6669
 20
55.9344
 30
0.0000
  0
SEQEND
  8
0
  0
POLYLINE
  8
16
 66
1
 10
0.0000
 20
0.0000
 30
0.0000
 40
0.7112
 41
0.7112
 70
0
  0
VERTEX
  8
16
 10
50.9669
 20
55.9144
 30
0.0000
 42
1.0000
  0
VERTEX
  8
16
 10
50.9731
 20
56.6256
 30
0.0000
  0
SEQEND
  8
0
  0
POLYLINE
  8
16
 66
1
 10
0.0000
 20
0.0000
 30
0.0000
 40
1.4224
 41
1.4224
 70
0
  0
VERTEX
  8
16
 10
48.6700
 20
56.2900
 30
0.0000
  0
VERTEX
  8
16
 10
18.3400
 20
56.2900
 30
0.0000
  0
SEQEND
  8
0
  0
POLYLINE
  8
16
 66
1
 10
0.0000
 20
0.0000
 30
0.0000
 40
0.7112
 41
0.7112
 70
0
  0
VERTEX
  8
16
 10
18.3400
 20
56.6456
 30
0.0000
 42
1.0000
  0
VERTEX
  8
16
 10
18.3400
 20
55.9344
 30
0.0000
  0
SEQEND
  8
0
  0
POLYLINE
  8
16
 66
1
 10
0.0000
 20
0.0000
 30
0.0000
 40
0.7112
 41
0.7112
 70
0
  0
VERTEX
  8
16
 10
48.6700
 20
55.9344
 30
0.0000
 42
1.0000
  0
VERTEX
  8
16
 10
48.6700
 20
56.6456
 30
0.0000
  0
SEQEND
  8
0
  0
POLYLINE
  8
16
 66
1
 10
0.0000
 20
0.0000
 30
0.0000
 40
1.4224
 41
1.4224
 70
0
  0
VERTEX
  8
16
 10
18.3400
 20
56.2900
 30
0.0000
  0
VERTEX
  8
16
 10
18.3400
 20
36.9500
 30
0.0000
  0
SEQEND
  8
0
  0
POLYLINE
  8
16
 66
1
 10
0.0000
 20
0.0000
 30
0.0000
 40
0.7112
 41
0.7112
 70
0
  0
VERTEX
  8
16
 10
17.9844
 20
36.9500
 30
0.0000
 42
1.0000
  0
VERTEX
  8
16
 10
18.6956
 20
36.9500
 30
0.0000
  0
SEQEND
  8
0
  0
POLYLINE
  8
16
 66
1
 10
0.0000
 20
0.0000
 30
0.0000
 40
0.7112
 41
0.7112
 70
0
  0
VERTEX
  8
16
 10
18.6956
 20
56.2900
 30
0.0000
 42
1.0000
  0
VERTEX
  8
16
 10
17.9844
 20
56.2900
 30
0.0000
  0
SEQEND
  8
0
  0
POLYLINE
  8
16
 66
1
 10
0.0000
 20
0.0000
 30
0.0000
 40
1.4224
 41
1.4224
 70
0
  0
VERTEX
  8
16
 10
83.6930
 20
66.1300
 30
0.0000
  0
VERTEX
  8
16
 10
83.8100
 20
66.1300
 30
0.0000
  0
SEQEND
  8
0
  0
POLYLINE
  8
16
 66
1
 10
0.0000
 20
0.0000
 30
0.0000
 40
0.7112
 41
0.7112
 70
0
  0
VERTEX
  8
16
 10
83.8100
 20
65.7744
 30
0.0000
 42
1.0000
  0
VERTEX
  8
16
 10
83.8100
 20
66.4856
 30
0.0000
  0
SEQEND
  8
0
  0
POLYLINE
  8
16
 66
1
 10
0.0000
 20
0.0000
 30
0.0000
 40
0.7112
 41
0.7112
 70
0
  0
VERTEX
  8
16
 10
83.6930
 20
66.4856
 30
0.0000
 42
1.0000
  0
VERTEX
  8
16
 10
83.6930
 20
65.7744
 30
0.0000
  0
SEQEND
  8
0
  0
POLYLINE
  8
16
 66
1
 10
0.0000
 20
0.0000
 30
0.0000
 40
1.4224
 41
1.4224
 70
0
  0
VERTEX
  8
16
 10
83.8100
 20
66.1300
 30
0.0000
  0
VERTEX
  8
16
 10
83.8100
 20
47.2800
 30
0.0000
  0
SEQEND
  8
0
  0
POLYLINE
  8
16
 66
1
 10
0.0000
 20
0.0000
 30
0.0000
 40
0.7112
 41
0.7112
 70
0
  0
VERTEX
  8
16
 10
83.4544
 20
47.2800
 30
0.0000
 42
1.0000
  0
VERTEX
  8
16
 10
84.1656
 20
47.2800
 30
0.0000
  0
SEQEND
  8
0
  0
POLYLINE
  8
16
 66
1
 10
0.0000
 20
0.0000
 30
0.0000
 40
0.7112
 41
0.7112
 70
0
  0
VERTEX
  8
16
 10
84.1656
 20
66.1300
 30
0.0000
 42
1.0000
  0
VERTEX
  8
16
 10
83.4544
 20
66.1300
 30
0.0000
  0
SEQEND
  8
0
  0
POLYLINE
  8
16
 66
1
 10
0.0000
 20
0.0000
 30
0.0000
 40
1.0160
 41
1.0160
 70
0
  0
VERTEX
  8
16
 10
4.0000
 20
6.4900
 30
0.0000
  0
VERTEX
  8
16
 10
10.7000
 20
6.4900
 30
0.0000
  0
SEQEND
  8
0
  0
POLYLINE
  8
16
 66
1
 10
0.0000
 20
0.0000
 30
0.0000
 40
0.5080
 41
0.5080
 70
0
  0
VERTEX
  8
16
 10
10.7000
 20
6.2360
 30
0.0000
 42
1.0000
  0
VERTEX
  8
16
 10
10.7000
 20
6.7440
 30
0.0000
  0
SEQEND
  8
0
  0
POLYLINE
  8
16
 66
1
 10
0.0000
 20
0.0000
 30
0.0000
 40
0.5080
 41
0.5080
 70
0
  0
VERTEX
  8
16
 10
4.0000
 20
6.7440
 30
0.0000
 42
1.0000
  0
VERTEX
  8
16
 10
4.0000
 20
6.2360
 30
0.0000
  0
SEQEND
  8
0
  0
POLYLINE
  8
16
 66
1
 10
0.0000
 20
0.0000
 30
0.0000
 40
1.0160
 41
1.0160
 70
0
  0
VERTEX
  8
16
 10
10.7000
 20
8.6000
 30
0.0000
  0
VERTEX
  8
16
 10
18.9000
 20
8.6000
 30
0.0000
  0
SEQEND
  8
0
  0
POLYLINE
  8
16
 66
1
 10
0.0000
 20
0.0000
 30
0.0000
 40
0.5080
 41
0.5080
 70
0
  0
VERTEX
  8
16
 10
18.9000
 20
8.3460
 30
0.0000
 42
1.0000
  0
VERTEX
  8
16
 10
18.9000
 20
8.8540
 30
0.0000
  0
SEQEND
  8
0
  0
POLYLINE
  8
16
 66
1
 10
0.0000
 20
0.0000
 30
0.0000
 40
0.5080
 41
0.5080
 70
0
  0
VERTEX
  8
16
 10
10.7000
 20
8.8540
 30
0.0000
 42
1.0000
  0
VERTEX
  8
16
 10
10.7000
 20
8.3460
 30
0.0000
  0
SEQEND
  8
0
  0
POLYLINE
  8
16
 66
1
 10
0.0000
 20
0.0000
 30
0.0000
 40
1.0160
 41
1.0160
 70
0
  0
VERTEX
  8
16
 10
18.9000
 20
6.3000
 30
0.0000
  0
VERTEX
  8
16
 10
61.6000
 20
6.3000
 30
0.0000
  0
SEQEND
  8
0
  0
POLYLINE
  8
16
 66
1
 10
0.0000
 20
0.0000
 30
0.0000
 40
0.5080
 41
0.5080
 70
0
  0
VERTEX
  8
16
 10
61.6000
 20
6.0460
 30
0.0000
 42
1.0000
  0
VERTEX
  8
16
 10
61.6000
 20
6.5540
 30
0.0000
  0
SEQEND
  8
0
  0
POLYLINE
  8
16
 66
1
 10
0.0000
 20
0.0000
 30
0.0000
 40
0.5080
 41
0.5080
 70
0
  0
VERTEX
  8
16
 10
18.9000
 20
6.5540
 30
0.0000
 42
1.0000
  0
VERTEX
  8
16
 10
18.9000
 20
6.0460
 30
0.0000
  0
SEQEND
  8
0
  0
POLYLINE
  8
16
 66
1
 10
0.0000
 20
0.0000
 30
0.0000
 40
1.4224
 41
1.4224
 70
0
  0
VERTEX
  8
16
 10
61.2600
 20
26.5000
 30
0.0000
  0
VERTEX
  8
16
 10
61.4000
 20
26.5000
 30
0.0000
  0
SEQEND
  8
0
  0
POLYLINE
  8
16
 66
1
 10
0.0000
 20
0.0000
 30
0.0000
 40
0.7112
 41
0.7112
 70
0
  0
VERTEX
  8
16
 10
61.4000
 20
26.1444
 30
0.0000
 42
1.0000
  0
VERTEX
  8
16
 10
61.4000
 20
26.8556
 30
0.0000
  0
SEQEND
  8
0
  0
POLYLINE
  8
16
 66
1
 10
0.0000
 20
0.0000
 30
0.0000
 40
0.7112
 41
0.7112
 70
0
  0
VERTEX
  8
16
 10
61.2600
 20
26.8556
 30
0.0000
 42
1.0000
  0
VERTEX
  8
16
 10
61.2600
 20
26.1444
 30
0.0000
  0
SEQEND
  8
0
  0
POLYLINE
  8
16
 66
1
 10
0.0000
 20
0.0000
 30
0.0000
 40
1.6764
 41
1.6764
 70
0
  0
VERTEX
  8
16
 10
61.4000
 20
26.5000
 30
0.0000
  0
VERTEX
  8
16
 10
61.4000
 20
19.3000
 30
0.0000
  0
SEQEND
  8
0
  0
POLYLINE
  8
16
 66
1
 10
0.0000
 20
0.0000
 30
0.0000
 40
0.8382
 41
0.8382
 70
0
  0
VERTEX
  8
16
 10
60.9809
 20
19.3000
 30
0.0000
 42
1.0000
  0
VERTEX
  8
16
 10
61.8191
 20
19.3000
 30
0.0000
  0
SEQEND
  8
0
  0
POLYLINE
  8
16
 66
1
 10
0.0000
 20
0.0000
 30
0.0000
 40
0.8382
 41
0.8382
 70
0
  0
VERTEX
  8
16
 10
61.8191
 20
26.5000
 30
0.0000
 42
1.0000
  0
VERTEX
  8
16
 10
60.9809
 20
26.5000
 30
0.0000
  0
SEQEND
  8
0
  0
POLYLINE
  8
16
 66
1
 10
0.0000
 20
0.0000
 30
0.0000
 40
1.4224
 41
1.4224
 70
0
  0
VERTEX
  8
16
 10
83.8100
 20
47.2800
 30
0.0000
  0
VERTEX
  8
16
 10
83.9000
 20
47.2800
 30
0.0000
  0
SEQEND
  8
0
  0
POLYLINE
  8
16
 66
1
 10
0.0000
 20
0.0000
 30
0.0000
 40
0.7112
 41
0.7112
 70
0
  0
VERTEX
  8
16
 10
83.9000
 20
46.9244
 30
0.0000
 42
1.0000
  0
VERTEX
  8
16
 10
83.9000
 20
47.6356
 30
0.0000
  0
SEQEND
  8
0
  0
POLYLINE
  8
16
 66
1
 10
0.0000
 20
0.0000
 30
0.0000
 40
0.7112
 41
0.7112
 70
0
  0
VERTEX
  8
16
 10
83.8100
 20
47.6356
 30
0.0000
 42
1.0000
  0
VERTEX
  8
16
 10
83.8100
 20
46.9244
 30
0.0000
  0
SEQEND
  8
0
  0
POLYLINE
  8
16
 66
1
 10
0.0000
 20
0.0000
 30
0.0000
 40
1.4224
 41
1.4224
 70
0
  0
VERTEX
  8
16
 10
83.9000
 20
47.2800
 30
0.0000
  0
VERTEX
  8
16
 10
83.9000
 20
44.6000
 30
0.0000
  0
SEQEND
  8
0
  0
POLYLINE
  8
16
 66
1
 10
0.0000
 20
0.0000
 30
0.0000
 40
0.7112
 41
0.7112
 70
0
  0
VERTEX
  8
16
 10
83.5444
 20
44.6000
 30
0.0000
 42
1.0000
  0
VERTEX
  8
16
 10
84.2556
 20
44.6000
 30
0.0000
  0
SEQEND
  8
0
  0
POLYLINE
  8
16
 66
1
 10
0.0000
 20
0.0000
 30
0.0000
 40
0.7112
 41
0.7112
 70
0
  0
VERTEX
  8
16
 10
84.2556
 20
47.2800
 30
0.0000
 42
1.0000
  0
VERTEX
  8
16
 10
83.5444
 20
47.2800
 30
0.0000
  0
SEQEND
  8
0
  0
POLYLINE
  8
16
 66
1
 10
0.0000
 20
0.0000
 30
0.0000
 40
1.4224
 41
1.4224
 70
0
  0
VERTEX
  8
16
 10
83.9000
 20
44.6000
 30
0.0000
  0
VERTEX
  8
16
 10
87.7000
 20
44.6000
 30
0.0000
  0
SEQEND
  8
0
  0
POLYLINE
  8
16
 66
1
 10
0.0000
 20
0.0000
 30
0.0000
 40
0.7112
 41
0.7112
 70
0
  0
VERTEX
  8
16
 10
87.7000
 20
44.2444
 30
0.0000
 42
1.0000
  0
VERTEX
  8
16
 10
87.7000
 20
44.9556
 30
0.0000
  0
SEQEND
  8
0
  0
POLYLINE
  8
16
 66
1
 10
0.0000
 20
0.0000
 30
0.0000
 40
0.7112
 41
0.7112
 70
0
  0
VERTEX
  8
16
 10
83.9000
 20
44.9556
 30
0.0000
 42
1.0000
  0
VERTEX
  8
16
 10
83.9000
 20
44.2444
 30
0.0000
  0
SEQEND
  8
0
  0
POLYLINE
  8
16
 66
1
 10
0.0000
 20
0.0000
 30
0.0000
 40
1.4224
 41
1.4224
 70
0
  0
VERTEX
  8
16
 10
87.7000
 20
44.6000
 30
0.0000
  0
VERTEX
  8
16
 10
87.7000
 20
37.1000
 30
0.0000
  0
SEQEND
  8
0
  0
POLYLINE
  8
16
 66
1
 10
0.0000
 20
0.0000
 30
0.0000
 40
0.7112
 41
0.7112
 70
0
  0
VERTEX
  8
16
 10
87.3444
 20
37.1000
 30
0.0000
 42
1.0000
  0
VERTEX
  8
16
 10
88.0556
 20
37.1000
 30
0.0000
  0
SEQEND
  8
0
  0
POLYLINE
  8
16
 66
1
 10
0.0000
 20
0.0000
 30
0.0000
 40
0.7112
 41
0.7112
 70
0
  0
VERTEX
  8
16
 10
88.0556
 20
44.6000
 30
0.0000
 42
1.0000
  0
VERTEX
  8
16
 10
87.3444
 20
44.6000
 30
0.0000
  0
SEQEND
  8
0
  0
POLYLINE
  8
16
 66
1
 10
0.0000
 20
0.0000
 30
0.0000
 40
1.4224
 41
1.4224
 70
0
  0
VERTEX
  8
16
 10
87.7000
 20
37.1000
 30
0.0000
  0
VERTEX
  8
16
 10
87.7000
 20
37.0400
 30
0.0000
  0
SEQEND
  8
0
  0
POLYLINE
  8
16
 66
1
 10
0.0000
 20
0.0000
 30
0.0000
 40
0.7112
 41
0.7112
 70
0
  0
VERTEX
  8
16
 10
87.3444
 20
37.0400
 30
0.0000
 42
1.0000
  0
VERTEX
  8
16
 10
88.0556
 20
37.0400
 30
0.0000
  0
SEQEND
  8
0
  0
POLYLINE
  8
16
 66
1
 10
0.0000
 20
0.0000
 30
0.0000
 40
0.7112
 41
0.7112
 70
0
  0
VERTEX
  8
16
 10
88.0556
 20
37.1000
 30
0.0000
 42
1.0000
  0
VERTEX
  8
16
 10
87.3444
 20
37.1000
 30
0.0000
  0
SEQEND
  8
0
  0
POLYLINE
  8
16
 66
1
 10
0.0000
 20
0.0000
 30
0.0000
 40
1.4224
 41
1.4224
 70
0
  0
VERTEX
  8
16
 10
92.8100
 20
16.7700
 30
0.0000
  0
VERTEX
  8
16
 10
92.7000
 20
16.7700
 30
0.0000
  0
SEQEND
  8
0
  0
POLYLINE
  8
16
 66
1
 10
0.0000
 20
0.0000
 30
0.0000
 40
0.7112
 41
0.7112
 70
0
  0
VERTEX
  8
16
 10
92.7000
 20
17.1256
 30
0.0000
 42
1.0000
  0
VERTEX
  8
16
 10
92.7000
 20
16.4144
 30
0.0000
  0
SEQEND
  8
0
  0
POLYLINE
  8
16
 66
1
 10
0.0000
 20
0.0000
 30
0.0000
 40
0.7112
 41
0.7112
 70
0
  0
VERTEX
  8
16
 10
92.8100
 20
16.4144
 30
0.0000
 42
1.0000
  0
VERTEX
  8
16
 10
92.8100
 20
17.1256
 30
0.0000
  0
SEQEND
  8
0
  0
POLYLINE
  8
16
 66
1
 10
0.0000
 20
0.0000
 30
0.0000
 40
1.4224
 41
1.4224
 70
0
  0
VERTEX
  8
16
 10
92.7000
 20
16.7700
 30
0.0000
  0
VERTEX
  8
16
 10
92.7000
 20
32.9000
 30
0.0000
  0
SEQEND
  8
0
  0
POLYLINE
  8
16
 66
1
 10
0.0000
 20
0.0000
 30
0.0000
 40
0.7112
 41
0.7112
 70
0
  0
VERTEX
  8
16
 10
93.0556
 20
32.9000
 30
0.0000
 42
1.0000
  0
VERTEX
  8
16
 10
92.3444
 20
32.9000
 30
0.0000
  0
SEQEND
  8
0
  0
POLYLINE
  8
16
 66
1
 10
0.0000
 20
0.0000
 30
0.0000
 40
0.7112
 41
0.7112
 70
0
  0
VERTEX
  8
16
 10
92.3444
 20
16.7700
 30
0.0000
 42
1.0000
  0
VERTEX
  8
16
 10
93.0556
 20
16.7700
 30
0.0000
  0
SEQEND
  8
0
  0
POLYLINE
  8
16
 66
1
 10
0.0000
 20
0.0000
 30
0.0000
 40
1.4224
 41
1.4224
 70
0
  0
VERTEX
  8
16
 10
92.7000
 20
32.9000
 30
0.0000
  0
VERTEX
  8
16
 10
92.7000
 20
33.0400
 30
0.0000
  0
SEQEND
  8
0
  0
POLYLINE
  8
16
 66
1
 10
0.0000
 20
0.0000
 30
0.0000
 40
0.7112
 41
0.7112
 70
0
  0
VERTEX
  8
16
 10
93.0556
 20
33.0400
 30
0.0000
 42
1.0000
  0
VERTEX
  8
16
 10
92.3444
 20
33.0400
 30
0.0000
  0
SEQEND
  8
0
  0
POLYLINE
  8
16
 66
1
 10
0.0000
 20
0.0000
 30
0.0000
 40
0.7112
 41
0.7112
 70
0
  0
VERTEX
  8
16
 10
92.3444
 20
32.9000
 30
0.0000
 42
1.0000
  0
VERTEX
  8
16
 10
93.0556
 20
32.9000
 30
0.0000
  0
SEQEND
  8
0
  0
POLYLINE
  8
16
 66
1
 10
0.0000
 20
0.0000
 30
0.0000
 40
1.4224
 41
1.4224
 70
0
  0
VERTEX
  8
16
 10
92.7000
 20
33.0000
 30
0.0000
  0
VERTEX
  8
16
 10
92.7000
 20
33.0400
 30
0.0000
  0
SEQEND
  8
0
  0
POLYLINE
  8
16
 66
1
 10
0.0000
 20
0.0000
 30
0.0000
 40
0.7112
 41
0.7112
 70
0
  0
VERTEX
  8
16
 10
93.0556
 20
33.0400
 30
0.0000
 42
1.0000
  0
VERTEX
  8
16
 10
92.3444
 20
33.0400
 30
0.0000
  0
SEQEND
  8
0
  0
POLYLINE
  8
16
 66
1
 10
0.0000
 20
0.0000
 30
0.0000
 40
0.7112
 41
0.7112
 70
0
  0
VERTEX
  8
16
 10
92.3444
 20
33.0000
 30
0.0000
 42
1.0000
  0
VERTEX
  8
16
 10
93.0556
 20
33.0000
 30
0.0000
  0
SEQEND
  8
0
  0
POLYLINE
  8
16
 66
1
 10
0.0000
 20
0.0000
 30
0.0000
 40
1.0160
 41
1.0160
 70
0
  0
VERTEX
  8
16
 10
89.4000
 20
37.0400
 30
0.0000
  0
VERTEX
  8
16
 10
89.4000
 20
32.9000
 30
0.0000
  0
SEQEND
  8
0
  0
POLYLINE
  8
16
 66
1
 10
0.0000
 20
0.0000
 30
0.0000
 40
0.5080
 41
0.5080
 70
0
  0
VERTEX
  8
16
 10
89.1460
 20
32.9000
 30
0.0000
 42
1.0000
  0
VERTEX
  8
16
 10
89.6540
 20
32.9000
 30
0.0000
  0
SEQEND
  8
0
  0
POLYLINE
  8
16
 66
1
 10
0.0000
 20
0.0000
 30
0.0000
 40
0.5080
 41
0.5080
 70
0
  0
VERTEX
  8
16
 10
89.6540
 20
37.0400
 30
0.0000
 42
1.0000
  0
VERTEX
  8
16
 10
89.1460
 20
37.0400
 30
0.0000
  0
SEQEND
  8
0
  0
POLYLINE
  8
16
 66
1
 10
0.0000
 20
0.0000
 30
0.0000
 40
1.4224
 41
1.4224
 70
0
  0
VERTEX
  8
16
 10
58.7200
 20
43.0000
 30
0.0000
  0
VERTEX
  8
16
 10
59.0040
 20
43.0000
 30
0.0000
  0
SEQEND
  8
0
  0
POLYLINE
  8
16
 66
1
 10
0.0000
 20
0.0000
 30
0.0000
 40
0.7112
 41
0.7112
 70
0
  0
VERTEX
  8
16
 10
59.0040
 20
42.6444
 30
0.0000
 42
1.0000
  0
VERTEX
  8
16
 10
59.0040
 20
43.3556
 30
0.0000
  0
SEQEND
  8
0
  0
POLYLINE
  8
16
 66
1
 10
0.0000
 20
0.0000
 30
0.0000
 40
0.7112
 41
0.7112
 70
0
  0
VERTEX
  8
16
 10
58.7200
 20
43.3556
 30
0.0000
 42
1.0000
  0
VERTEX
  8
16
 10
58.7200
 20
42.6444
 30
0.0000
  0
SEQEND
  8
0
  0
POLYLINE
  8
16
 66
1
 10
0.0000
 20
0.0000
 30
0.0000
 40
1.0160
 41
1.0160
 70
0
  0
VERTEX
  8
16
 10
89.3000
 20
37.1000
 30
0.0000
  0
VERTEX
  8
16
 10
87.7000
 20
37.1000
 30
0.0000
  0
SEQEND
  8
0
  0
POLYLINE
  8
16
 66
1
 10
0.0000
 20
0.0000
 30
0.0000
 40
0.5080
 41
0.5080
 70
0
  0
VERTEX
  8
16
 10
87.7000
 20
37.3540
 30
0.0000
 42
1.0000
  0
VERTEX
  8
16
 10
87.7000
 20
36.8460
 30
0.0000
  0
SEQEND
  8
0
  0
POLYLINE
  8
16
 66
1
 10
0.0000
 20
0.0000
 30
0.0000
 40
0.5080
 41
0.5080
 70
0
  0
VERTEX
  8
16
 10
89.3000
 20
36.8460
 30
0.0000
 42
1.0000
  0
VERTEX
  8
16
 10
89.3000
 20
37.3540
 30
0.0000
  0
SEQEND
  8
0
  0
POLYLINE
  8
16
 66
1
 10
0.0000
 20
0.0000
 30
0.0000
 40
1.0160
 41
1.0160
 70
0
  0
VERTEX
  8
16
 10
89.4000
 20
32.9000
 30
0.0000
  0
VERTEX
  8
16
 10
92.7000
 20
32.9000
 30
0.0000
  0
SEQEND
  8
0
  0
POLYLINE
  8
16
 66
1
 10
0.0000
 20
0.0000
 30
0.0000
 40
0.5080
 41
0.5080
 70
0
  0
VERTEX
  8
16
 10
92.7000
 20
32.6460
 30
0.0000
 42
1.0000
  0
VERTEX
  8
16
 10
92.7000
 20
33.1540
 30
0.0000
  0
SEQEND
  8
0
  0
POLYLINE
  8
16
 66
1
 10
0.0000
 20
0.0000
 30
0.0000
 40
0.5080
 41
0.5080
 70
0
  0
VERTEX
  8
16
 10
89.4000
 20
33.1540
 30
0.0000
 42
1.0000
  0
VERTEX
  8
16
 10
89.4000
 20
32.6460
 30
0.0000
  0
SEQEND
  8
0
  0
POLYLINE
  8
16
 66
1
 10
0.0000
 20
0.0000
 30
0.0000
 40
1.0160
 41
1.0160
 70
0
  0
VERTEX
  8
16
 10
10.7000
 20
8.6000
 30
0.0000
  0
VERTEX
  8
16
 10
10.7000
 20
6.4900
 30
0.0000
  0
SEQEND
  8
0
  0
POLYLINE
  8
16
 66
1
 10
0.0000
 20
0.0000
 30
0.0000
 40
0.5080
 41
0.5080
 70
0
  0
VERTEX
  8
16
 10
10.4460
 20
6.4900
 30
0.0000
 42
1.0000
  0
VERTEX
  8
16
 10
10.9540
 20
6.4900
 30
0.0000
  0
SEQEND
  8
0
  0
POLYLINE
  8
16
 66
1
 10
0.0000
 20
0.0000
 30
0.0000
 40
0.5080
 41
0.5080
 70
0
  0
VERTEX
  8
16
 10
10.9540
 20
8.6000
 30
0.0000
 42
1.0000
  0
VERTEX
  8
16
 10
10.4460
 20
8.6000
 30
0.0000
  0
SEQEND
  8
0
  0
POLYLINE
  8
16
 66
1
 10
0.0000
 20
0.0000
 30
0.0000
 40
1.0160
 41
1.0160
 70
0
  0
VERTEX
  8
16
 10
18.9000
 20
8.6000
 30
0.0000
  0
VERTEX
  8
16
 10
18.9000
 20
6.3000
 30
0.0000
  0
SEQEND
  8
0
  0
POLYLINE
  8
16
 66
1
 10
0.0000
 20
0.0000
 30
0.0000
 40
0.5080
 41
0.5080
 70
0
  0
VERTEX
  8
16
 10
18.6460
 20
6.3000
 30
0.0000
 42
1.0000
  0
VERTEX
  8
16
 10
19.1540
 20
6.3000
 30
0.0000
  0
SEQEND
  8
0
  0
POLYLINE
  8
16
 66
1
 10
0.0000
 20
0.0000
 30
0.0000
 40
0.5080
 41
0.5080
 70
0
  0
VERTEX
  8
16
 10
19.1540
 20
8.6000
 30
0.0000
 42
1.0000
  0
VERTEX
  8
16
 10
18.6460
 20
8.6000
 30
0.0000
  0
SEQEND
  8
0
  0
POLYLINE
  8
16
 66
1
 10
0.0000
 20
0.0000
 30
0.0000
 40
1.0160
 41
1.0160
 70
0
  0
VERTEX
  8
16
 10
3.7000
 20
42.1000
 30
0.0000
  0
VERTEX
  8
16
 10
1.6000
 20
42.1000
 30
0.0000
  0
SEQEND
  8
0
  0
POLYLINE
  8
16
 66
1
 10
0.0000
 20
0.0000
 30
0.0000
 40
0.5080
 41
0.5080
 70
0
  0
VERTEX
  8
16
 10
1.6000
 20
42.3540
 30
0.0000
 42
1.0000
  0
VERTEX
  8
16
 10
1.6000
 20
41.8460
 30
0.0000
  0
SEQEND
  8
0
  0
POLYLINE
  8
16
 66
1
 10
0.0000
 20
0.0000
 30
0.0000
 40
0.5080
 41
0.5080
 70
0
  0
VERTEX
  8
16
 10
3.7000
 20
41.8460
 30
0.0000
 42
1.0000
  0
VERTEX
  8
16
 10
3.7000
 20
42.3540
 30
0.0000
  0
SEQEND
  8
0
  0
POLYLINE
  8
16
 66
1
 10
0.0000
 20
0.0000
 30
0.0000
 40
1.0160
 41
1.0160
 70
0
  0
VERTEX
  8
16
 10
1.6000
 20
42.1000
 30
0.0000
  0
VERTEX
  8
16
 10
1.6000
 20
6.6000
 30
0.0000
  0
SEQEND
  8
0
  0
POLYLINE
  8
16
 66
1
 10
0.0000
 20
0.0000
 30
0.0000
 40
0.5080
 41
0.5080
 70
0
  0
VERTEX
  8
16
 10
1.3460
 20
6.6000
 30
0.0000
 42
1.0000
  0
VERTEX
  8
16
 10
1.8540
 20
6.6000
 30
0.0000
  0
SEQEND
  8
0
  0
POLYLINE
  8
16
 66
1
 10
0.0000
 20
0.0000
 30
0.0000
 40
0.5080
 41
0.5080
 70
0
  0
VERTEX
  8
16
 10
1.8540
 20
42.1000
 30
0.0000
 42
1.0000
  0
VERTEX
  8
16
 10
1.3460
 20
42.1000
 30
0.0000
  0
SEQEND
  8
0
  0
POLYLINE
  8
16
 66
1
 10
0.0000
 20
0.0000
 30
0.0000
 40
1.0160
 41
1.0160
 70
0
  0
VERTEX
  8
16
 10
1.6000
 20
6.6000
 30
0.0000
  0
VERTEX
  8
16
 10
4.2000
 20
6.6000
 30
0.0000
  0
SEQEND
  8
0
  0
POLYLINE
  8
16
 66
1
 10
0.0000
 20
0.0000
 30
0.0000
 40
0.5080
 41
0.5080
 70
0
  0
VERTEX
  8
16
 10
4.2000
 20
6.3460
 30
0.0000
 42
1.0000
  0
VERTEX
  8
16
 10
4.2000
 20
6.8540
 30
0.0000
  0
SEQEND
  8
0
  0
POLYLINE
  8
16
 66
1
 10
0.0000
 20
0.0000
 30
0.0000
 40
0.5080
 41
0.5080
 70
0
  0
VERTEX
  8
16
 10
1.6000
 20
6.8540
 30
0.0000
 42
1.0000
  0
VERTEX
  8
16
 10
1.6000
 20
6.3460
 30
0.0000
  0
SEQEND
  8
0
  0
POLYLINE
  8
16
 66
1
 10
0.0000
 20
0.0000
 30
0.0000
 40
1.4224
 41
1.4224
 70
0
  0
VERTEX
  8
16
 10
4.0000
 20
36.9700
 30
0.0000
  0
VERTEX
  8
16
 10
8.1800
 20
36.9700
 30
0.0000
  0
SEQEND
  8
0
  0
POLYLINE
  8
16
 66
1
 10
0.0000
 20
0.0000
 30
0.0000
 40
0.7112
 41
0.7112
 70
0
  0
VERTEX
  8
16
 10
8.1800
 20
36.6144
 30
0.0000
 42
1.0000
  0
VERTEX
  8
16
 10
8.1800
 20
37.3256
 30
0.0000
  0
SEQEND
  8
0
  0
POLYLINE
  8
16
 66
1
 10
0.0000
 20
0.0000
 30
0.0000
 40
0.7112
 41
0.7112
 70
0
  0
VERTEX
  8
16
 10
4.0000
 20
37.3256
 30
0.0000
 42
1.0000
  0
VERTEX
  8
16
 10
4.0000
 20
36.6144
 30
0.0000
  0
SEQEND
  8
0
  0
POLYLINE
  8
16
 66
1
 10
0.0000
 20
0.0000
 30
0.0000
 40
1.4224
 41
1.4224
 70
0
  0
VERTEX
  8
16
 10
8.1800
 20
36.9700
 30
0.0000
  0
VERTEX
  8
16
 10
8.1800
 20
36.9500
 30
0.0000
  0
SEQEND
  8
0
  0
POLYLINE
  8
16
 66
1
 10
0.0000
 20
0.0000
 30
0.0000
 40
0.7112
 41
0.7112
 70
0
  0
VERTEX
  8
16
 10
7.8244
 20
36.9500
 30
0.0000
 42
1.0000
  0
VERTEX
  8
16
 10
8.5356
 20
36.9500
 30
0.0000
  0
SEQEND
  8
0
  0
POLYLINE
  8
16
 66
1
 10
0.0000
 20
0.0000
 30
0.0000
 40
0.7112
 41
0.7112
 70
0
  0
VERTEX
  8
16
 10
8.5356
 20
36.9700
 30
0.0000
 42
1.0000
  0
VERTEX
  8
16
 10
7.8244
 20
36.9700
 30
0.0000
  0
SEQEND
  8
0
  0
POLYLINE
  8
16
 66
1
 10
0.0000
 20
0.0000
 30
0.0000
 40
1.2700
 41
1.2700
 70
0
  0
VERTEX
  8
16
 10
53.7700
 20
56.2700
 30
0.0000
  0
VERTEX
  8
16
 10
59.1000
 20
56.2700
 30
0.0000
  0
SEQEND
  8
0
  0
POLYLINE
  8
16
 66
1
 10
0.0000
 20
0.0000
 30
0.0000
 40
0.6350
 41
0.6350
 70
0
  0
VERTEX
  8
16
 10
59.1000
 20
55.9525
 30
0.0000
 42
1.0000
  0
VERTEX
  8
16
 10
59.1000
 20
56.5875
 30
0.0000
  0
SEQEND
  8
0
  0
POLYLINE
  8
16
 66
1
 10
0.0000
 20
0.0000
 30
0.0000
 40
0.6350
 41
0.6350
 70
0
  0
VERTEX
  8
16
 10
53.7700
 20
56.5875
 30
0.0000
 42
1.0000
  0
VERTEX
  8
16
 10
53.7700
 20
55.9525
 30
0.0000
  0
SEQEND
  8
0
  0
POLYLINE
  8
16
 66
1
 10
0.0000
 20
0.0000
 30
0.0000
 40
1.2700
 41
1.2700
 70
0
  0
VERTEX
  8
16
 10
59.1000
 20
56.2700
 30
0.0000
  0
VERTEX
  8
16
 10
59.1000
 20
56.2000
 30
0.0000
  0
SEQEND
  8
0
  0
POLYLINE
  8
16
 66
1
 10
0.0000
 20
0.0000
 30
0.0000
 40
0.6350
 41
0.6350
 70
0
  0
VERTEX
  8
16
 10
58.7825
 20
56.2000
 30
0.0000
 42
1.0000
  0
VERTEX
  8
16
 10
59.4175
 20
56.2000
 30
0.0000
  0
SEQEND
  8
0
  0
POLYLINE
  8
16
 66
1
 10
0.0000
 20
0.0000
 30
0.0000
 40
0.6350
 41
0.6350
 70
0
  0
VERTEX
  8
16
 10
59.4175
 20
56.2700
 30
0.0000
 42
1.0000
  0
VERTEX
  8
16
 10
58.7825
 20
56.2700
 30
0.0000
  0
SEQEND
  8
0
  0
POLYLINE
  8
16
 66
1
 10
0.0000
 20
0.0000
 30
0.0000
 40
1.2700
 41
1.2700
 70
0
  0
VERTEX
  8
16
 10
59.1000
 20
56.2000
 30
0.0000
  0
VERTEX
  8
16
 10
59.0040
 20
56.2000
 30
0.0000
  0
SEQEND
  8
0
  0
POLYLINE
  8
16
 66
1
 10
0.0000
 20
0.0000
 30
0.0000
 40
0.6350
 41
0.6350
 70
0
  0
VERTEX
  8
16
 10
59.0040
 20
56.5175
 30
0.0000
 42
1.0000
  0
VERTEX
  8
16
 10
59.0040
 20
55.8825
 30
0.0000
  0
SEQEND
  8
0
  0
POLYLINE
  8
16
 66
1
 10
0.0000
 20
0.0000
 30
0.0000
 40
0.6350
 41
0.6350
 70
0
  0
VERTEX
  8
16
 10
59.1000
 20
55.8825
 30
0.0000
 42
1.0000
  0
VERTEX
  8
16
 10
59.1000
 20
56.5175
 30
0.0000
  0
SEQEND
  8
0
  0
POLYLINE
  8
16
 66
1
 10
0.0000
 20
0.0000
 30
0.0000
 40
1.2700
 41
1.2700
 70
0
  0
VERTEX
  8
16
 10
59.0040
 20
55.3000
 30
0.0000
  0
VERTEX
  8
16
 10
59.0040
 20
47.1800
 30
0.0000
  0
SEQEND
  8
0
  0
POLYLINE
  8
16
 66
1
 10
0.0000
 20
0.0000
 30
0.0000
 40
0.6350
 41
0.6350
 70
0
  0
VERTEX
  8
16
 10
58.6865
 20
47.1800
 30
0.0000
 42
1.0000
  0
VERTEX
  8
16
 10
59.3215
 20
47.1800
 30
0.0000
  0
SEQEND
  8
0
  0
POLYLINE
  8
16
 66
1
 10
0.0000
 20
0.0000
 30
0.0000
 40
0.6350
 41
0.6350
 70
0
  0
VERTEX
  8
16
 10
59.3215
 20
55.3000
 30
0.0000
 42
1.0000
  0
VERTEX
  8
16
 10
58.6865
 20
55.3000
 30
0.0000
  0
SEQEND
  8
0
  0
POLYLINE
  8
16
 66
1
 10
0.0000
 20
0.0000
 30
0.0000
 40
1.2700
 41
1.2700
 70
0
  0
VERTEX
  8
16
 10
59.0040
 20
47.1800
 30
0.0000
  0
VERTEX
  8
16
 10
58.9000
 20
47.1800
 30
0.0000
  0
SEQEND
  8
0
  0
POLYLINE
  8
16
 66
1
 10
0.0000
 20
0.0000
 30
0.0000
 40
0.6350
 41
0.6350
 70
0
  0
VERTEX
  8
16
 10
58.9000
 20
47.4975
 30
0.0000
 42
1.0000
  0
VERTEX
  8
16
 10
58.9000
 20
46.8625
 30
0.0000
  0
SEQEND
  8
0
  0
POLYLINE
  8
16
 66
1
 10
0.0000
 20
0.0000
 30
0.0000
 40
0.6350
 41
0.6350
 70
0
  0
VERTEX
  8
16
 10
59.0040
 20
46.8625
 30
0.0000
 42
1.0000
  0
VERTEX
  8
16
 10
59.0040
 20
47.4975
 30
0.0000
  0
SEQEND
  8
0
  0
POLYLINE
  8
16
 66
1
 10
0.0000
 20
0.0000
 30
0.0000
 40
1.2700
 41
1.2700
 70
0
  0
VERTEX
  8
16
 10
58.9000
 20
47.1800
 30
0.0000
  0
VERTEX
  8
16
 10
58.9000
 20
47.1000
 30
0.0000
  0
SEQEND
  8
0
  0
POLYLINE
  8
16
 66
1
 10
0.0000
 20
0.0000
 30
0.0000
 40
0.6350
 41
0.6350
 70
0
  0
VERTEX
  8
16
 10
58.5825
 20
47.1000
 30
0.0000
 42
1.0000
  0
VERTEX
  8
16
 10
59.2175
 20
47.1000
 30
0.0000
  0
SEQEND
  8
0
  0
POLYLINE
  8
16
 66
1
 10
0.0000
 20
0.0000
 30
0.0000
 40
0.6350
 41
0.6350
 70
0
  0
VERTEX
  8
16
 10
59.2175
 20
47.1800
 30
0.0000
 42
1.0000
  0
VERTEX
  8
16
 10
58.5825
 20
47.1800
 30
0.0000
  0
SEQEND
  8
0
  0
POLYLINE
  8
16
 66
1
 10
0.0000
 20
0.0000
 30
0.0000
 40
1.2700
 41
1.2700
 70
0
  0
VERTEX
  8
16
 10
58.9000
 20
47.1000
 30
0.0000
  0
VERTEX
  8
16
 10
58.7800
 20
47.1000
 30
0.0000
  0
SEQEND
  8
0
  0
POLYLINE
  8
16
 66
1
 10
0.0000
 20
0.0000
 30
0.0000
 40
0.6350
 41
0.6350
 70
0
  0
VERTEX
  8
16
 10
58.7800
 20
47.4175
 30
0.0000
 42
1.0000
  0
VERTEX
  8
16
 10
58.7800
 20
46.7825
 30
0.0000
  0
SEQEND
  8
0
  0
POLYLINE
  8
16
 66
1
 10
0.0000
 20
0.0000
 30
0.0000
 40
0.6350
 41
0.6350
 70
0
  0
VERTEX
  8
16
 10
58.9000
 20
46.7825
 30
0.0000
 42
1.0000
  0
VERTEX
  8
16
 10
58.9000
 20
47.4175
 30
0.0000
  0
SEQEND
  8
0
  0
POLYLINE
  8
16
 66
1
 10
0.0000
 20
0.0000
 30
0.0000
 40
1.6764
 41
1.6764
 70
0
  0
VERTEX
  8
16
 10
58.7800
 20
47.1000
 30
0.0000
  0
VERTEX
  8
16
 10
58.7800
 20
38.7500
 30
0.0000
  0
SEQEND
  8
0
  0
POLYLINE
  8
16
 66
1
 10
0.0000
 20
0.0000
 30
0.0000
 40
0.8382
 41
0.8382
 70
0
  0
VERTEX
  8
16
 10
58.3609
 20
38.7500
 30
0.0000
 42
1.0000
  0
VERTEX
  8
16
 10
59.1991
 20
38.7500
 30
0.0000
  0
SEQEND
  8
0
  0
POLYLINE
  8
16
 66
1
 10
0.0000
 20
0.0000
 30
0.0000
 40
0.8382
 41
0.8382
 70
0
  0
VERTEX
  8
16
 10
59.1991
 20
47.1000
 30
0.0000
 42
1.0000
  0
VERTEX
  8
16
 10
58.3609
 20
47.1000
 30
0.0000
  0
SEQEND
  8
0
  0
POLYLINE
  8
16
 66
1
 10
0.0000
 20
0.0000
 30
0.0000
 40
1.2700
 41
1.2700
 70
0
  0
VERTEX
  8
16
 10
69.1000
 20
60.6000
 30
0.0000
  0
VERTEX
  8
16
 10
60.1000
 20
60.6000
 30
0.0000
  0
SEQEND
  8
0
  0
POLYLINE
  8
16
 66
1
 10
0.0000
 20
0.0000
 30
0.0000
 40
0.6350
 41
0.6350
 70
0
  0
VERTEX
  8
16
 10
60.1000
 20
60.9175
 30
0.0000
 42
1.0000
  0
VERTEX
  8
16
 10
60.1000
 20
60.2825
 30
0.0000
  0
SEQEND
  8
0
  0
POLYLINE
  8
16
 66
1
 10
0.0000
 20
0.0000
 30
0.0000
 40
0.6350
 41
0.6350
 70
0
  0
VERTEX
  8
16
 10
69.1000
 20
60.2825
 30
0.0000
 42
1.0000
  0
VERTEX
  8
16
 10
69.1000
 20
60.9175
 30
0.0000
  0
SEQEND
  8
0
  0
POLYLINE
  8
16
 66
1
 10
0.0000
 20
0.0000
 30
0.0000
 40
1.2700
 41
1.2700
 70
0
  0
VERTEX
  8
16
 10
60.1000
 20
60.6000
 30
0.0000
  0
VERTEX
  8
16
 10
59.0040
 20
60.5000
 30
0.0000
  0
SEQEND
  8
0
  0
POLYLINE
  8
16
 66
1
 10
0.0000
 20
0.0000
 30
0.0000
 40
0.6350
 41
0.6350
 70
0
  0
VERTEX
  8
16
 10
58.9752
 20
60.8162
 30
0.0000
 42
1.0000
  0
VERTEX
  8
16
 10
59.0328
 20
60.1838
 30
0.0000
  0
SEQEND
  8
0
  0
POLYLINE
  8
16
 66
1
 10
0.0000
 20
0.0000
 30
0.0000
 40
0.6350
 41
0.6350
 70
0
  0
VERTEX
  8
16
 10
60.1288
 20
60.2838
 30
0.0000
 42
1.0000
  0
VERTEX
  8
16
 10
60.0712
 20
60.9162
 30
0.0000
  0
SEQEND
  8
0
  0
POLYLINE
  8
16
 66
1
 10
0.0000
 20
0.0000
 30
0.0000
 40
1.2700
 41
1.2700
 70
0
  0
VERTEX
  8
16
 10
4.0000
 20
42.0500
 30
0.0000
  0
VERTEX
  8
16
 10
13.0000
 20
42.0500
 30
0.0000
  0
SEQEND
  8
0
  0
POLYLINE
  8
16
 66
1
 10
0.0000
 20
0.0000
 30
0.0000
 40
0.6350
 41
0.6350
 70
0
  0
VERTEX
  8
16
 10
13.0000
 20
41.7325
 30
0.0000
 42
1.0000
  0
VERTEX
  8
16
 10
13.0000
 20
42.3675
 30
0.0000
  0
SEQEND
  8
0
  0
POLYLINE
  8
16
 66
1
 10
0.0000
 20
0.0000
 30
0.0000
 40
0.6350
 41
0.6350
 70
0
  0
VERTEX
  8
16
 10
4.0000
 20
42.3675
 30
0.0000
 42
1.0000
  0
VERTEX
  8
16
 10
4.0000
 20
41.7325
 30
0.0000
  0
SEQEND
  8
0
  0
POLYLINE
  8
16
 66
1
 10
0.0000
 20
0.0000
 30
0.0000
 40
1.2700
 41
1.2700
 70
0
  0
VERTEX
  8
16
 10
13.0000
 20
42.0500
 30
0.0000
  0
VERTEX
  8
16
 10
13.0000
 20
60.6000
 30
0.0000
  0
SEQEND
  8
0
  0
POLYLINE
  8
16
 66
1
 10
0.0000
 20
0.0000
 30
0.0000
 40
0.6350
 41
0.6350
 70
0
  0
VERTEX
  8
16
 10
13.3175
 20
60.6000
 30
0.0000
 42
1.0000
  0
VERTEX
  8
16
 10
12.6825
 20
60.6000
 30
0.0000
  0
SEQEND
  8
0
  0
POLYLINE
  8
16
 66
1
 10
0.0000
 20
0.0000
 30
0.0000
 40
0.6350
 41
0.6350
 70
0
  0
VERTEX
  8
16
 10
12.6825
 20
42.0500
 30
0.0000
 42
1.0000
  0
VERTEX
  8
16
 10
13.3175
 20
42.0500
 30
0.0000
  0
SEQEND
  8
0
  0
POLYLINE
  8
16
 66
1
 10
0.0000
 20
0.0000
 30
0.0000
 40
1.2700
 41
1.2700
 70
0
  0
VERTEX
  8
16
 10
13.0000
 20
60.6000
 30
0.0000
  0
VERTEX
  8
16
 10
60.1000
 20
60.6000
 30
0.0000
  0
SEQEND
  8
0
  0
POLYLINE
  8
16
 66
1
 10
0.0000
 20
0.0000
 30
0.0000
 40
0.6350
 41
0.6350
 70
0
  0
VERTEX
  8
16
 10
60.1000
 20
60.2825
 30
0.0000
 42
1.0000
  0
VERTEX
  8
16
 10
60.1000
 20
60.9175
 30
0.0000
  0
SEQEND
  8
0
  0
POLYLINE
  8
16
 66
1
 10
0.0000
 20
0.0000
 30
0.0000
 40
0.6350
 41
0.6350
 70
0
  0
VERTEX
  8
16
 10
13.0000
 20
60.9175
 30
0.0000
 42
1.0000
  0
VERTEX
  8
16
 10
13.0000
 20
60.2825
 30
0.0000
  0
SEQEND
  8
0
  0
POLYLINE
  8
16
 66
1
 10
0.0000
 20
0.0000
 30
0.0000
 40
1.4224
 41
1.4224
 70
0
  0
VERTEX
  8
16
 10
59.0040
 20
56.2000
 30
0.0000
  0
VERTEX
  8
16
 10
59.0040
 20
55.3000
 30
0.0000
  0
SEQEND
  8
0
  0
POLYLINE
  8
16
 66
1
 10
0.0000
 20
0.0000
 30
0.0000
 40
0.7112
 41
0.7112
 70
0
  0
VERTEX
  8
16
 10
58.6484
 20
55.3000
 30
0.0000
 42
1.0000
  0
VERTEX
  8
16
 10
59.3596
 20
55.3000
 30
0.0000
  0
SEQEND
  8
0
  0
POLYLINE
  8
16
 66
1
 10
0.0000
 20
0.0000
 30
0.0000
 40
0.7112
 41
0.7112
 70
0
  0
VERTEX
  8
16
 10
59.3596
 20
56.2000
 30
0.0000
 42
1.0000
  0
VERTEX
  8
16
 10
58.6484
 20
56.2000
 30
0.0000
  0
SEQEND
  8
0
  0
CIRCLE
  8
44
 10
69.1000
 20
60.6000
 30
0.0000
 40
0.3000
  0
CIRCLE
  8
44
 10
59.0040
 20
60.5000
 30
0.0000
 40
0.3000
  0
POLYLINE
  8
16
 66
1
 10
0.0000
 20
0.0000
 30
0.0000
 40
1.4224
 41
1.4224
 70
0
  0
VERTEX
  8
16
 10
51.1600
 20
31.1300
 30
0.0000
  0
VERTEX
  8
16
 10
51.1000
 20
31.1300
 30
0.0000
  0
SEQEND
  8
0
  0
POLYLINE
  8
16
 66
1
 10
0.0000
 20
0.0000
 30
0.0000
 40
0.7112
 41
0.7112
 70
0
  0
VERTEX
  8
16
 10
51.1000
 20
31.4856
 30
0.0000
 42
1.0000
  0
VERTEX
  8
16
 10
51.1000
 20
30.7744
 30
0.0000
  0
SEQEND
  8
0
  0
POLYLINE
  8
16
 66
1
 10
0.0000
 20
0.0000
 30
0.0000
 40
0.7112
 41
0.7112
 70
0
  0
VERTEX
  8
16
 10
51.1600
 20
30.7744
 30
0.0000
 42
1.0000
  0
VERTEX
  8
16
 10
51.1600
 20
31.4856
 30
0.0000
  0
SEQEND
  8
0
  0
POLYLINE
  8
16
 66
1
 10
0.0000
 20
0.0000
 30
0.0000
 40
1.6764
 41
1.6764
 70
0
  0
VERTEX
  8
16
 10
51.1000
 20
31.1300
 30
0.0000
  0
VERTEX
  8
16
 10
51.1000
 20
26.3000
 30
0.0000
  0
SEQEND
  8
0
  0
POLYLINE
  8
16
 66
1
 10
0.0000
 20
0.0000
 30
0.0000
 40
0.8382
 41
0.8382
 70
0
  0
VERTEX
  8
16
 10
50.6809
 20
26.3000
 30
0.0000
 42
1.0000
  0
VERTEX
  8
16
 10
51.5191
 20
26.3000
 30
0.0000
  0
SEQEND
  8
0
  0
POLYLINE
  8
16
 66
1
 10
0.0000
 20
0.0000
 30
0.0000
 40
0.8382
 41
0.8382
 70
0
  0
VERTEX
  8
16
 10
51.5191
 20
31.1300
 30
0.0000
 42
1.0000
  0
VERTEX
  8
16
 10
50.6809
 20
31.1300
 30
0.0000
  0
SEQEND
  8
0
  0
POLYLINE
  8
16
 66
1
 10
0.0000
 20
0.0000
 30
0.0000
 40
1.4224
 41
1.4224
 70
0
  0
VERTEX
  8
16
 10
51.1000
 20
26.3000
 30
0.0000
  0
VERTEX
  8
16
 10
51.1000
 20
26.2000
 30
0.0000
  0
SEQEND
  8
0
  0
POLYLINE
  8
16
 66
1
 10
0.0000
 20
0.0000
 30
0.0000
 40
0.7112
 41
0.7112
 70
0
  0
VERTEX
  8
16
 10
50.7444
 20
26.2000
 30
0.0000
 42
1.0000
  0
VERTEX
  8
16
 10
51.4556
 20
26.2000
 30
0.0000
  0
SEQEND
  8
0
  0
POLYLINE
  8
16
 66
1
 10
0.0000
 20
0.0000
 30
0.0000
 40
0.7112
 41
0.7112
 70
0
  0
VERTEX
  8
16
 10
51.4556
 20
26.3000
 30
0.0000
 42
1.0000
  0
VERTEX
  8
16
 10
50.7444
 20
26.3000
 30
0.0000
  0
SEQEND
  8
0
  0
POLYLINE
  8
16
 66
1
 10
0.0000
 20
0.0000
 30
0.0000
 40
1.4224
 41
1.4224
 70
0
  0
VERTEX
  8
16
 10
51.1000
 20
26.2000
 30
0.0000
  0
VERTEX
  8
16
 10
51.2000
 20
26.2000
 30
0.0000
  0
SEQEND
  8
0
  0
POLYLINE
  8
16
 66
1
 10
0.0000
 20
0.0000
 30
0.0000
 40
0.7112
 41
0.7112
 70
0
  0
VERTEX
  8
16
 10
51.2000
 20
25.8444
 30
0.0000
 42
1.0000
  0
VERTEX
  8
16
 10
51.2000
 20
26.5556
 30
0.0000
  0
SEQEND
  8
0
  0
POLYLINE
  8
16
 66
1
 10
0.0000
 20
0.0000
 30
0.0000
 40
0.7112
 41
0.7112
 70
0
  0
VERTEX
  8
16
 10
51.1000
 20
26.5556
 30
0.0000
 42
1.0000
  0
VERTEX
  8
16
 10
51.1000
 20
25.8444
 30
0.0000
  0
SEQEND
  8
0
  0
POLYLINE
  8
16
 66
1
 10
0.0000
 20
0.0000
 30
0.0000
 40
1.4224
 41
1.4224
 70
0
  0
VERTEX
  8
16
 10
87.7300
 20
14.2300
 30
0.0000
  0
VERTEX
  8
16
 10
87.6000
 20
14.2300
 30
0.0000
  0
SEQEND
  8
0
  0
POLYLINE
  8
16
 66
1
 10
0.0000
 20
0.0000
 30
0.0000
 40
0.7112
 41
0.7112
 70
0
  0
VERTEX
  8
16
 10
87.6000
 20
14.5856
 30
0.0000
 42
1.0000
  0
VERTEX
  8
16
 10
87.6000
 20
13.8744
 30
0.0000
  0
SEQEND
  8
0
  0
POLYLINE
  8
16
 66
1
 10
0.0000
 20
0.0000
 30
0.0000
 40
0.7112
 41
0.7112
 70
0
  0
VERTEX
  8
16
 10
87.7300
 20
13.8744
 30
0.0000
 42
1.0000
  0
VERTEX
  8
16
 10
87.7300
 20
14.5856
 30
0.0000
  0
SEQEND
  8
0
  0
POLYLINE
  8
16
 66
1
 10
0.0000
 20
0.0000
 30
0.0000
 40
1.0160
 41
1.0160
 70
0
  0
VERTEX
  8
16
 10
87.6000
 20
14.2300
 30
0.0000
  0
VERTEX
  8
16
 10
87.6000
 20
1.8000
 30
0.0000
  0
SEQEND
  8
0
  0
POLYLINE
  8
16
 66
1
 10
0.0000
 20
0.0000
 30
0.0000
 40
0.5080
 41
0.5080
 70
0
  0
VERTEX
  8
16
 10
87.3460
 20
1.8000
 30
0.0000
 42
1.0000
  0
VERTEX
  8
16
 10
87.8540
 20
1.8000
 30
0.0000
  0
SEQEND
  8
0
  0
POLYLINE
  8
16
 66
1
 10
0.0000
 20
0.0000
 30
0.0000
 40
0.5080
 41
0.5080
 70
0
  0
VERTEX
  8
16
 10
87.8540
 20
14.2300
 30
0.0000
 42
1.0000
  0
VERTEX
  8
16
 10
87.3460
 20
14.2300
 30
0.0000
  0
SEQEND
  8
0
  0
POLYLINE
  8
16
 66
1
 10
0.0000
 20
0.0000
 30
0.0000
 40
1.0160
 41
1.0160
 70
0
  0
VERTEX
  8
16
 10
87.6000
 20
1.8000
 30
0.0000
  0
VERTEX
  8
16
 10
51.3000
 20
1.8000
 30
0.0000
  0
SEQEND
  8
0
  0
POLYLINE
  8
16
 66
1
 10
0.0000
 20
0.0000
 30
0.0000
 40
0.5080
 41
0.5080
 70
0
  0
VERTEX
  8
16
 10
51.3000
 20
2.0540
 30
0.0000
 42
1.0000
  0
VERTEX
  8
16
 10
51.3000
 20
1.5460
 30
0.0000
  0
SEQEND
  8
0
  0
POLYLINE
  8
16
 66
1
 10
0.0000
 20
0.0000
 30
0.0000
 40
0.5080
 41
0.5080
 70
0
  0
VERTEX
  8
16
 10
87.6000
 20
1.5460
 30
0.0000
 42
1.0000
  0
VERTEX
  8
16
 10
87.6000
 20
2.0540
 30
0.0000
  0
SEQEND
  8
0
  0
POLYLINE
  8
16
 66
1
 10
0.0000
 20
0.0000
 30
0.0000
 40
1.0160
 41
1.0160
 70
0
  0
VERTEX
  8
16
 10
51.2000
 20
26.2000
 30
0.0000
  0
VERTEX
  8
16
 10
51.1000
 20
26.3000
 30
0.0000
  0
SEQEND
  8
0
  0
POLYLINE
  8
16
 66
1
 10
0.0000
 20
0.0000
 30
0.0000
 40
0.5080
 41
0.5080
 70
0
  0
VERTEX
  8
16
 10
51.2796
 20
26.4796
 30
0.0000
 42
1.0000
  0
VERTEX
  8
16
 10
50.9204
 20
26.1204
 30
0.0000
  0
SEQEND
  8
0
  0
POLYLINE
  8
16
 66
1
 10
0.0000
 20
0.0000
 30
0.0000
 40
0.5080
 41
0.5080
 70
0
  0
VERTEX
  8
16
 10
51.0204
 20
26.0204
 30
0.0000
 42
1.0000
  0
VERTEX
  8
16
 10
51.3796
 20
26.3796
 30
0.0000
  0
SEQEND
  8
0
  0
POLYLINE
  8
16
 66
1
 10
0.0000
 20
0.0000
 30
0.0000
 40
1.6764
 41
1.6764
 70
0
  0
VERTEX
  8
16
 10
51.1000
 20
26.3000
 30
0.0000
  0
VERTEX
  8
16
 10
51.1000
 20
19.1000
 30
0.0000
  0
SEQEND
  8
0
  0
POLYLINE
  8
16
 66
1
 10
0.0000
 20
0.0000
 30
0.0000
 40
0.8382
 41
0.8382
 70
0
  0
VERTEX
  8
16
 10
50.6809
 20
19.1000
 30
0.0000
 42
1.0000
  0
VERTEX
  8
16
 10
51.5191
 20
19.1000
 30
0.0000
  0
SEQEND
  8
0
  0
POLYLINE
  8
16
 66
1
 10
0.0000
 20
0.0000
 30
0.0000
 40
0.8382
 41
0.8382
 70
0
  0
VERTEX
  8
16
 10
51.5191
 20
26.3000
 30
0.0000
 42
1.0000
  0
VERTEX
  8
16
 10
50.6809
 20
26.3000
 30
0.0000
  0
SEQEND
  8
0
  0
POLYLINE
  8
16
 66
1
 10
0.0000
 20
0.0000
 30
0.0000
 40
0.4064
 41
0.4064
 70
0
  0
VERTEX
  8
16
 10
51.3000
 20
1.8000
 30
0.0000
  0
VERTEX
  8
16
 10
51.0000
 20
1.8000
 30
0.0000
  0
SEQEND
  8
0
  0
POLYLINE
  8
16
 66
1
 10
0.0000
 20
0.0000
 30
0.0000
 40
0.2032
 41
0.2032
 70
0
  0
VERTEX
  8
16
 10
51.0000
 20
1.9016
 30
0.0000
 42
1.0000
  0
VERTEX
  8
16
 10
51.0000
 20
1.6984
 30
0.0000
  0
SEQEND
  8
0
  0
POLYLINE
  8
16
 66
1
 10
0.0000
 20
0.0000
 30
0.0000
 40
0.2032
 41
0.2032
 70
0
  0
VERTEX
  8
16
 10
51.3000
 20
1.6984
 30
0.0000
 42
1.0000
  0
VERTEX
  8
16
 10
51.3000
 20
1.9016
 30
0.0000
  0
SEQEND
  8
0
  0
POLYLINE
  8
16
 66
1
 10
0.0000
 20
0.0000
 30
0.0000
 40
0.4064
 41
0.4064
 70
0
  0
VERTEX
  8
16
 10
51.1000
 20
19.1000
 30
0.0000
  0
VERTEX
  8
16
 10
51.0000
 20
19.1000
 30
0.0000
  0
SEQEND
  8
0
  0
POLYLINE
  8
16
 66
1
 10
0.0000
 20
0.0000
 30
0.0000
 40
0.2032
 41
0.2032
 70
0
  0
VERTEX
  8
16
 10
51.0000
 20
19.2016
 30
0.0000
 42
1.0000
  0
VERTEX
  8
16
 10
51.0000
 20
18.9984
 30
0.0000
  0
SEQEND
  8
0
  0
POLYLINE
  8
16
 66
1
 10
0.0000
 20
0.0000
 30
0.0000
 40
0.2032
 41
0.2032
 70
0
  0
VERTEX
  8
16
 10
51.1000
 20
18.9984
 30
0.0000
 42
1.0000
  0
VERTEX
  8
16
 10
51.1000
 20
19.2016
 30
0.0000
  0
SEQEND
  8
0
  0
CIRCLE
  8
44
 10
51.0000
 20
19.1000
 30
0.0000
 40
0.3000
  0
CIRCLE
  8
44
 10
51.0000
 20
1.8000
 30
0.0000
 40
0.3000
  0
POLYLINE
  8
16
 66
1
 10
0.0000
 20
0.0000
 30
0.0000
 40
1.4224
 41
1.4224
 70
0
  0
VERTEX
  8
16
 10
48.6200
 20
31.1300
 30
0.0000
  0
VERTEX
  8
16
 10
48.5000
 20
31.1300
 30
0.0000
  0
SEQEND
  8
0
  0
POLYLINE
  8
16
 66
1
 10
0.0000
 20
0.0000
 30
0.0000
 40
0.7112
 41
0.7112
 70
0
  0
VERTEX
  8
16
 10
48.5000
 20
31.4856
 30
0.0000
 42
1.0000
  0
VERTEX
  8
16
 10
48.5000
 20
30.7744
 30
0.0000
  0
SEQEND
  8
0
  0
POLYLINE
  8
16
 66
1
 10
0.0000
 20
0.0000
 30
0.0000
 40
0.7112
 41
0.7112
 70
0
  0
VERTEX
  8
16
 10
48.6200
 20
30.7744
 30
0.0000
 42
1.0000
  0
VERTEX
  8
16
 10
48.6200
 20
31.4856
 30
0.0000
  0
SEQEND
  8
0
  0
POLYLINE
  8
16
 66
1
 10
0.0000
 20
0.0000
 30
0.0000
 40
1.4224
 41
1.4224
 70
0
  0
VERTEX
  8
16
 10
48.5000
 20
31.1300
 30
0.0000
  0
VERTEX
  8
16
 10
48.5000
 20
21.2000
 30
0.0000
  0
SEQEND
  8
0
  0
POLYLINE
  8
16
 66
1
 10
0.0000
 20
0.0000
 30
0.0000
 40
0.7112
 41
0.7112
 70
0
  0
VERTEX
  8
16
 10
48.1444
 20
21.2000
 30
0.0000
 42
1.0000
  0
VERTEX
  8
16
 10
48.8556
 20
21.2000
 30
0.0000
  0
SEQEND
  8
0
  0
POLYLINE
  8
16
 66
1
 10
0.0000
 20
0.0000
 30
0.0000
 40
0.7112
 41
0.7112
 70
0
  0
VERTEX
  8
16
 10
48.8556
 20
31.1300
 30
0.0000
 42
1.0000
  0
VERTEX
  8
16
 10
48.1444
 20
31.1300
 30
0.0000
  0
SEQEND
  8
0
  0
POLYLINE
  8
16
 66
1
 10
0.0000
 20
0.0000
 30
0.0000
 40
1.4224
 41
1.4224
 70
0
  0
VERTEX
  8
16
 10
90.2700
 20
21.2000
 30
0.0000
  0
VERTEX
  8
16
 10
90.2700
 20
16.7700
 30
0.0000
  0
SEQEND
  8
0
  0
POLYLINE
  8
16
 66
1
 10
0.0000
 20
0.0000
 30
0.0000
 40
0.7112
 41
0.7112
 70
0
  0
VERTEX
  8
16
 10
89.9144
 20
16.7700
 30
0.0000
 42
1.0000
  0
VERTEX
  8
16
 10
90.6256
 20
16.7700
 30
0.0000
  0
SEQEND
  8
0
  0
POLYLINE
  8
16
 66
1
 10
0.0000
 20
0.0000
 30
0.0000
 40
0.7112
 41
0.7112
 70
0
  0
VERTEX
  8
16
 10
90.6256
 20
21.2000
 30
0.0000
 42
1.0000
  0
VERTEX
  8
16
 10
89.9144
 20
21.2000
 30
0.0000
  0
SEQEND
  8
0
  0
CIRCLE
  8
44
 10
48.5000
 20
21.2000
 30
0.0000
 40
0.3000
  0
CIRCLE
  8
44
 10
90.2700
 20
21.2000
 30
0.0000
 40
0.3000
  0
POLYLINE
  8
16
 66
1
 10
0.0000
 20
0.0000
 30
0.0000
 40
1.4224
 41
1.4224
 70
0
  0
VERTEX
  8
16
 10
92.6800
 20
42.7300
 30
0.0000
  0
VERTEX
  8
16
 10
92.7000
 20
42.7300
 30
0.0000
  0
SEQEND
  8
0
  0
POLYLINE
  8
16
 66
1
 10
0.0000
 20
0.0000
 30
0.0000
 40
0.7112
 41
0.7112
 70
0
  0
VERTEX
  8
16
 10
92.7000
 20
42.3744
 30
0.0000
 42
1.0000
  0
VERTEX
  8
16
 10
92.7000
 20
43.0856
 30
0.0000
  0
SEQEND
  8
0
  0
POLYLINE
  8
16
 66
1
 10
0.0000
 20
0.0000
 30
0.0000
 40
0.7112
 41
0.7112
 70
0
  0
VERTEX
  8
16
 10
92.6800
 20
43.0856
 30
0.0000
 42
1.0000
  0
VERTEX
  8
16
 10
92.6800
 20
42.3744
 30
0.0000
  0
SEQEND
  8
0
  0
POLYLINE
  8
16
 66
1
 10
0.0000
 20
0.0000
 30
0.0000
 40
1.4224
 41
1.4224
 70
0
  0
VERTEX
  8
16
 10
92.7000
 20
42.7300
 30
0.0000
  0
VERTEX
  8
16
 10
92.7000
 20
37.0400
 30
0.0000
  0
SEQEND
  8
0
  0
POLYLINE
  8
16
 66
1
 10
0.0000
 20
0.0000
 30
0.0000
 40
0.7112
 41
0.7112
 70
0
  0
VERTEX
  8
16
 10
92.3444
 20
37.0400
 30
0.0000
 42
1.0000
  0
VERTEX
  8
16
 10
93.0556
 20
37.0400
 30
0.0000
  0
SEQEND
  8
0
  0
POLYLINE
  8
16
 66
1
 10
0.0000
 20
0.0000
 30
0.0000
 40
0.7112
 41
0.7112
 70
0
  0
VERTEX
  8
16
 10
93.0556
 20
42.7300
 30
0.0000
 42
1.0000
  0
VERTEX
  8
16
 10
92.3444
 20
42.7300
 30
0.0000
  0
SEQEND
  8
0
  0
POLYLINE
  8
16
 66
1
 10
0.0000
 20
0.0000
 30
0.0000
 40
1.4224
 41
1.4224
 70
0
  0
VERTEX
  8
16
 10
84.0600
 20
42.2300
 30
0.0000
  0
VERTEX
  8
16
 10
81.2700
 20
42.2300
 30
0.0000
  0
SEQEND
  8
0
  0
POLYLINE
  8
16
 66
1
 10
0.0000
 20
0.0000
 30
0.0000
 40
0.7112
 41
0.7112
 70
0
  0
VERTEX
  8
16
 10
81.2700
 20
42.5856
 30
0.0000
 42
1.0000
  0
VERTEX
  8
16
 10
81.2700
 20
41.8744
 30
0.0000
  0
SEQEND
  8
0
  0
POLYLINE
  8
16
 66
1
 10
0.0000
 20
0.0000
 30
0.0000
 40
0.7112
 41
0.7112
 70
0
  0
VERTEX
  8
16
 10
84.0600
 20
41.8744
 30
0.0000
 42
1.0000
  0
VERTEX
  8
16
 10
84.0600
 20
42.5856
 30
0.0000
  0
SEQEND
  8
0
  0
POLYLINE
  8
16
 66
1
 10
0.0000
 20
0.0000
 30
0.0000
 40
1.4224
 41
1.4224
 70
0
  0
VERTEX
  8
16
 10
81.2700
 20
42.2300
 30
0.0000
  0
VERTEX
  8
16
 10
81.2700
 20
47.2800
 30
0.0000
  0
SEQEND
  8
0
  0
POLYLINE
  8
16
 66
1
 10
0.0000
 20
0.0000
 30
0.0000
 40
0.7112
 41
0.7112
 70
0
  0
VERTEX
  8
16
 10
81.6256
 20
47.2800
 30
0.0000
 42
1.0000
  0
VERTEX
  8
16
 10
80.9144
 20
47.2800
 30
0.0000
  0
SEQEND
  8
0
  0
POLYLINE
  8
16
 66
1
 10
0.0000
 20
0.0000
 30
0.0000
 40
0.7112
 41
0.7112
 70
0
  0
VERTEX
  8
16
 10
80.9144
 20
42.2300
 30
0.0000
 42
1.0000
  0
VERTEX
  8
16
 10
81.6256
 20
42.2300
 30
0.0000
  0
SEQEND
  8
0
  0
POLYLINE
  8
16
 66
1
 10
0.0000
 20
0.0000
 30
0.0000
 40
1.4224
 41
1.4224
 70
0
  0
VERTEX
  8
16
 10
84.0600
 20
32.0700
 30
0.0000
  0
VERTEX
  8
16
 10
81.3000
 20
32.0700
 30
0.0000
  0
SEQEND
  8
0
  0
POLYLINE
  8
16
 66
1
 10
0.0000
 20
0.0000
 30
0.0000
 40
0.7112
 41
0.7112
 70
0
  0
VERTEX
  8
16
 10
81.3000
 20
32.4256
 30
0.0000
 42
1.0000
  0
VERTEX
  8
16
 10
81.3000
 20
31.7144
 30
0.0000
  0
SEQEND
  8
0
  0
POLYLINE
  8
16
 66
1
 10
0.0000
 20
0.0000
 30
0.0000
 40
0.7112
 41
0.7112
 70
0
  0
VERTEX
  8
16
 10
84.0600
 20
31.7144
 30
0.0000
 42
1.0000
  0
VERTEX
  8
16
 10
84.0600
 20
32.4256
 30
0.0000
  0
SEQEND
  8
0
  0
POLYLINE
  8
16
 66
1
 10
0.0000
 20
0.0000
 30
0.0000
 40
1.4224
 41
1.4224
 70
0
  0
VERTEX
  8
16
 10
81.3000
 20
32.0700
 30
0.0000
  0
VERTEX
  8
16
 10
81.3000
 20
29.8000
 30
0.0000
  0
SEQEND
  8
0
  0
POLYLINE
  8
16
 66
1
 10
0.0000
 20
0.0000
 30
0.0000
 40
0.7112
 41
0.7112
 70
0
  0
VERTEX
  8
16
 10
80.9444
 20
29.8000
 30
0.0000
 42
1.0000
  0
VERTEX
  8
16
 10
81.6556
 20
29.8000
 30
0.0000
  0
SEQEND
  8
0
  0
POLYLINE
  8
16
 66
1
 10
0.0000
 20
0.0000
 30
0.0000
 40
0.7112
 41
0.7112
 70
0
  0
VERTEX
  8
16
 10
81.6556
 20
32.0700
 30
0.0000
 42
1.0000
  0
VERTEX
  8
16
 10
80.9444
 20
32.0700
 30
0.0000
  0
SEQEND
  8
0
  0
POLYLINE
  8
16
 66
1
 10
0.0000
 20
0.0000
 30
0.0000
 40
1.4224
 41
1.4224
 70
0
  0
VERTEX
  8
16
 10
81.3000
 20
29.8000
 30
0.0000
  0
VERTEX
  8
16
 10
87.7000
 20
29.8000
 30
0.0000
  0
SEQEND
  8
0
  0
POLYLINE
  8
16
 66
1
 10
0.0000
 20
0.0000
 30
0.0000
 40
0.7112
 41
0.7112
 70
0
  0
VERTEX
  8
16
 10
87.7000
 20
29.4444
 30
0.0000
 42
1.0000
  0
VERTEX
  8
16
 10
87.7000
 20
30.1556
 30
0.0000
  0
SEQEND
  8
0
  0
POLYLINE
  8
16
 66
1
 10
0.0000
 20
0.0000
 30
0.0000
 40
0.7112
 41
0.7112
 70
0
  0
VERTEX
  8
16
 10
81.3000
 20
30.1556
 30
0.0000
 42
1.0000
  0
VERTEX
  8
16
 10
81.3000
 20
29.4444
 30
0.0000
  0
SEQEND
  8
0
  0
POLYLINE
  8
16
 66
1
 10
0.0000
 20
0.0000
 30
0.0000
 40
1.4224
 41
1.4224
 70
0
  0
VERTEX
  8
16
 10
87.7000
 20
29.8000
 30
0.0000
  0
VERTEX
  8
16
 10
87.7000
 20
33.0400
 30
0.0000
  0
SEQEND
  8
0
  0
POLYLINE
  8
16
 66
1
 10
0.0000
 20
0.0000
 30
0.0000
 40
0.7112
 41
0.7112
 70
0
  0
VERTEX
  8
16
 10
88.0556
 20
33.0400
 30
0.0000
 42
1.0000
  0
VERTEX
  8
16
 10
87.3444
 20
33.0400
 30
0.0000
  0
SEQEND
  8
0
  0
POLYLINE
  8
16
 66
1
 10
0.0000
 20
0.0000
 30
0.0000
 40
0.7112
 41
0.7112
 70
0
  0
VERTEX
  8
16
 10
87.3444
 20
29.8000
 30
0.0000
 42
1.0000
  0
VERTEX
  8
16
 10
88.0556
 20
29.8000
 30
0.0000
  0
SEQEND
  8
0
  0
POLYLINE
  8
16
 66
1
 10
0.0000
 20
0.0000
 30
0.0000
 40
1.6510
 41
1.6510
 70
0
  0
VERTEX
  8
16
 10
43.5000
 20
43.0000
 30
0.0000
  0
VERTEX
  8
16
 10
43.5000
 20
38.7500
 30
0.0000
  0
SEQEND
  8
0
  0
POLYLINE
  8
16
 66
1
 10
0.0000
 20
0.0000
 30
0.0000
 40
0.8255
 41
0.8255
 70
0
  0
VERTEX
  8
16
 10
43.0872
 20
38.7500
 30
0.0000
 42
1.0000
  0
VERTEX
  8
16
 10
43.9128
 20
38.7500
 30
0.0000
  0
SEQEND
  8
0
  0
POLYLINE
  8
16
 66
1
 10
0.0000
 20
0.0000
 30
0.0000
 40
0.8255
 41
0.8255
 70
0
  0
VERTEX
  8
16
 10
43.9128
 20
43.0000
 30
0.0000
 42
1.0000
  0
VERTEX
  8
16
 10
43.0872
 20
43.0000
 30
0.0000
  0
SEQEND
  8
0
  0
POLYLINE
  8
16
 66
1
 10
0.0000
 20
0.0000
 30
0.0000
 40
1.6510
 41
1.6510
 70
0
  0
VERTEX
  8
16
 10
43.5000
 20
38.7500
 30
0.0000
  0
VERTEX
  8
16
 10
43.5400
 20
38.7500
 30
0.0000
  0
SEQEND
  8
0
  0
POLYLINE
  8
16
 66
1
 10
0.0000
 20
0.0000
 30
0.0000
 40
0.8255
 41
0.8255
 70
0
  0
VERTEX
  8
16
 10
43.5400
 20
38.3372
 30
0.0000
 42
1.0000
  0
VERTEX
  8
16
 10
43.5400
 20
39.1628
 30
0.0000
  0
SEQEND
  8
0
  0
POLYLINE
  8
16
 66
1
 10
0.0000
 20
0.0000
 30
0.0000
 40
0.8255
 41
0.8255
 70
0
  0
VERTEX
  8
16
 10
43.5000
 20
39.1628
 30
0.0000
 42
1.0000
  0
VERTEX
  8
16
 10
43.5000
 20
38.3372
 30
0.0000
  0
SEQEND
  8
0
  0
POLYLINE
  8
16
 66
1
 10
0.0000
 20
0.0000
 30
0.0000
 40
1.6510
 41
1.6510
 70
0
  0
VERTEX
  8
16
 10
43.5000
 20
43.0000
 30
0.0000
  0
VERTEX
  8
16
 10
43.4800
 20
43.0000
 30
0.0000
  0
SEQEND
  8
0
  0
POLYLINE
  8
16
 66
1
 10
0.0000
 20
0.0000
 30
0.0000
 40
0.8255
 41
0.8255
 70
0
  0
VERTEX
  8
16
 10
43.4800
 20
43.4128
 30
0.0000
 42
1.0000
  0
VERTEX
  8
16
 10
43.4800
 20
42.5872
 30
0.0000
  0
SEQEND
  8
0
  0
POLYLINE
  8
16
 66
1
 10
0.0000
 20
0.0000
 30
0.0000
 40
0.8255
 41
0.8255
 70
0
  0
VERTEX
  8
16
 10
43.5000
 20
42.5872
 30
0.0000
 42
1.0000
  0
VERTEX
  8
16
 10
43.5000
 20
43.4128
 30
0.0000
  0
SEQEND
  8
0
  0
POLYLINE
  8
16
 66
1
 10
0.0000
 20
0.0000
 30
0.0000
 40
1.6510
 41
1.6510
 70
0
  0
VERTEX
  8
16
 10
43.5000
 20
26.5000
 30
0.0000
  0
VERTEX
  8
16
 10
43.5000
 20
31.1250
 30
0.0000
  0
SEQEND
  8
0
  0
POLYLINE
  8
16
 66
1
 10
0.0000
 20
0.0000
 30
0.0000
 40
0.8255
 41
0.8255
 70
0
  0
VERTEX
  8
16
 10
43.9128
 20
31.1250
 30
0.0000
 42
1.0000
  0
VERTEX
  8
16
 10
43.0872
 20
31.1250
 30
0.0000
  0
SEQEND
  8
0
  0
POLYLINE
  8
16
 66
1
 10
0.0000
 20
0.0000
 30
0.0000
 40
0.8255
 41
0.8255
 70
0
  0
VERTEX
  8
16
 10
43.0872
 20
26.5000
 30
0.0000
 42
1.0000
  0
VERTEX
  8
16
 10
43.9128
 20
26.5000
 30
0.0000
  0
SEQEND
  8
0
  0
POLYLINE
  8
16
 66
1
 10
0.0000
 20
0.0000
 30
0.0000
 40
1.6510
 41
1.6510
 70
0
  0
VERTEX
  8
16
 10
43.5000
 20
31.1250
 30
0.0000
  0
VERTEX
  8
16
 10
43.5400
 20
31.1300
 30
0.0000
  0
SEQEND
  8
0
  0
POLYLINE
  8
16
 66
1
 10
0.0000
 20
0.0000
 30
0.0000
 40
0.8255
 41
0.8255
 70
0
  0
VERTEX
  8
16
 10
43.5912
 20
30.7204
 30
0.0000
 42
1.0000
  0
VERTEX
  8
16
 10
43.4888
 20
31.5396
 30
0.0000
  0
SEQEND
  8
0
  0
POLYLINE
  8
16
 66
1
 10
0.0000
 20
0.0000
 30
0.0000
 40
0.8255
 41
0.8255
 70
0
  0
VERTEX
  8
16
 10
43.4488
 20
31.5346
 30
0.0000
 42
1.0000
  0
VERTEX
  8
16
 10
43.5512
 20
30.7154
 30
0.0000
  0
SEQEND
  8
0
  0
POLYLINE
  8
16
 66
1
 10
0.0000
 20
0.0000
 30
0.0000
 40
1.6510
 41
1.6510
 70
0
  0
VERTEX
  8
16
 10
43.5000
 20
26.5000
 30
0.0000
  0
VERTEX
  8
16
 10
43.4800
 20
26.5000
 30
0.0000
  0
SEQEND
  8
0
  0
POLYLINE
  8
16
 66
1
 10
0.0000
 20
0.0000
 30
0.0000
 40
0.8255
 41
0.8255
 70
0
  0
VERTEX
  8
16
 10
43.4800
 20
26.9127
 30
0.0000
 42
1.0000
  0
VERTEX
  8
16
 10
43.4800
 20
26.0873
 30
0.0000
  0
SEQEND
  8
0
  0
POLYLINE
  8
16
 66
1
 10
0.0000
 20
0.0000
 30
0.0000
 40
0.8255
 41
0.8255
 70
0
  0
VERTEX
  8
16
 10
43.5000
 20
26.0873
 30
0.0000
 42
1.0000
  0
VERTEX
  8
16
 10
43.5000
 20
26.9127
 30
0.0000
  0
SEQEND
  8
0
  0
POLYLINE
  8
16
 66
1
 10
0.0000
 20
0.0000
 30
0.0000
 40
1.6510
 41
1.6510
 70
0
  0
VERTEX
  8
16
 10
46.1250
 20
26.5000
 30
0.0000
  0
VERTEX
  8
16
 10
46.1250
 20
31.1250
 30
0.0000
  0
SEQEND
  8
0
  0
POLYLINE
  8
16
 66
1
 10
0.0000
 20
0.0000
 30
0.0000
 40
0.8255
 41
0.8255
 70
0
  0
VERTEX
  8
16
 10
46.5378
 20
31.1250
 30
0.0000
 42
1.0000
  0
VERTEX
  8
16
 10
45.7122
 20
31.1250
 30
0.0000
  0
SEQEND
  8
0
  0
POLYLINE
  8
16
 66
1
 10
0.0000
 20
0.0000
 30
0.0000
 40
0.8255
 41
0.8255
 70
0
  0
VERTEX
  8
16
 10
45.7122
 20
26.5000
 30
0.0000
 42
1.0000
  0
VERTEX
  8
16
 10
46.5378
 20
26.5000
 30
0.0000
  0
SEQEND
  8
0
  0
POLYLINE
  8
16
 66
1
 10
0.0000
 20
0.0000
 30
0.0000
 40
1.6510
 41
1.6510
 70
0
  0
VERTEX
  8
16
 10
46.1250
 20
31.1250
 30
0.0000
  0
VERTEX
  8
16
 10
46.0800
 20
31.1300
 30
0.0000
  0
SEQEND
  8
0
  0
POLYLINE
  8
16
 66
1
 10
0.0000
 20
0.0000
 30
0.0000
 40
0.8255
 41
0.8255
 70
0
  0
VERTEX
  8
16
 10
46.1256
 20
31.5402
 30
0.0000
 42
1.0000
  0
VERTEX
  8
16
 10
46.0344
 20
30.7198
 30
0.0000
  0
SEQEND
  8
0
  0
POLYLINE
  8
16
 66
1
 10
0.0000
 20
0.0000
 30
0.0000
 40
0.8255
 41
0.8255
 70
0
  0
VERTEX
  8
16
 10
46.0794
 20
30.7148
 30
0.0000
 42
1.0000
  0
VERTEX
  8
16
 10
46.1706
 20
31.5352
 30
0.0000
  0
SEQEND
  8
0
  0
POLYLINE
  8
16
 66
1
 10
0.0000
 20
0.0000
 30
0.0000
 40
1.6510
 41
1.6510
 70
0
  0
VERTEX
  8
16
 10
46.1250
 20
26.5000
 30
0.0000
  0
VERTEX
  8
16
 10
46.0200
 20
26.5000
 30
0.0000
  0
SEQEND
  8
0
  0
POLYLINE
  8
16
 66
1
 10
0.0000
 20
0.0000
 30
0.0000
 40
0.8255
 41
0.8255
 70
0
  0
VERTEX
  8
16
 10
46.0200
 20
26.9127
 30
0.0000
 42
1.0000
  0
VERTEX
  8
16
 10
46.0200
 20
26.0873
 30
0.0000
  0
SEQEND
  8
0
  0
POLYLINE
  8
16
 66
1
 10
0.0000
 20
0.0000
 30
0.0000
 40
0.8255
 41
0.8255
 70
0
  0
VERTEX
  8
16
 10
46.1250
 20
26.0873
 30
0.0000
 42
1.0000
  0
VERTEX
  8
16
 10
46.1250
 20
26.9127
 30
0.0000
  0
SEQEND
  8
0
  0
POLYLINE
  8
16
 66
1
 10
0.0000
 20
0.0000
 30
0.0000
 40
1.6510
 41
1.6510
 70
0
  0
VERTEX
  8
16
 10
63.8750
 20
26.5000
 30
0.0000
  0
VERTEX
  8
16
 10
63.8750
 20
31.1250
 30
0.0000
  0
SEQEND
  8
0
  0
POLYLINE
  8
16
 66
1
 10
0.0000
 20
0.0000
 30
0.0000
 40
0.8255
 41
0.8255
 70
0
  0
VERTEX
  8
16
 10
64.2878
 20
31.1250
 30
0.0000
 42
1.0000
  0
VERTEX
  8
16
 10
63.4622
 20
31.1250
 30
0.0000
  0
SEQEND
  8
0
  0
POLYLINE
  8
16
 66
1
 10
0.0000
 20
0.0000
 30
0.0000
 40
0.8255
 41
0.8255
 70
0
  0
VERTEX
  8
16
 10
63.4622
 20
26.5000
 30
0.0000
 42
1.0000
  0
VERTEX
  8
16
 10
64.2878
 20
26.5000
 30
0.0000
  0
SEQEND
  8
0
  0
POLYLINE
  8
16
 66
1
 10
0.0000
 20
0.0000
 30
0.0000
 40
1.6510
 41
1.6510
 70
0
  0
VERTEX
  8
16
 10
63.8750
 20
31.1250
 30
0.0000
  0
VERTEX
  8
16
 10
63.8600
 20
31.1300
 30
0.0000
  0
SEQEND
  8
0
  0
POLYLINE
  8
16
 66
1
 10
0.0000
 20
0.0000
 30
0.0000
 40
0.8255
 41
0.8255
 70
0
  0
VERTEX
  8
16
 10
63.9905
 20
31.5216
 30
0.0000
 42
1.0000
  0
VERTEX
  8
16
 10
63.7295
 20
30.7384
 30
0.0000
  0
SEQEND
  8
0
  0
POLYLINE
  8
16
 66
1
 10
0.0000
 20
0.0000
 30
0.0000
 40
0.8255
 41
0.8255
 70
0
  0
VERTEX
  8
16
 10
63.7445
 20
30.7334
 30
0.0000
 42
1.0000
  0
VERTEX
  8
16
 10
64.0055
 20
31.5166
 30
0.0000
  0
SEQEND
  8
0
  0
POLYLINE
  8
16
 66
1
 10
0.0000
 20
0.0000
 30
0.0000
 40
1.6510
 41
1.6510
 70
0
  0
VERTEX
  8
16
 10
63.8750
 20
26.5000
 30
0.0000
  0
VERTEX
  8
16
 10
63.8000
 20
26.5000
 30
0.0000
  0
SEQEND
  8
0
  0
POLYLINE
  8
16
 66
1
 10
0.0000
 20
0.0000
 30
0.0000
 40
0.8255
 41
0.8255
 70
0
  0
VERTEX
  8
16
 10
63.8000
 20
26.9127
 30
0.0000
 42
1.0000
  0
VERTEX
  8
16
 10
63.8000
 20
26.0873
 30
0.0000
  0
SEQEND
  8
0
  0
POLYLINE
  8
16
 66
1
 10
0.0000
 20
0.0000
 30
0.0000
 40
0.8255
 41
0.8255
 70
0
  0
VERTEX
  8
16
 10
63.8750
 20
26.0873
 30
0.0000
 42
1.0000
  0
VERTEX
  8
16
 10
63.8750
 20
26.9127
 30
0.0000
  0
SEQEND
  8
0
  0
POLYLINE
  8
16
 66
1
 10
0.0000
 20
0.0000
 30
0.0000
 40
1.4224
 41
1.4224
 70
0
  0
VERTEX
  8
16
 10
63.8000
 20
26.5000
 30
0.0000
  0
VERTEX
  8
16
 10
63.9000
 20
26.5000
 30
0.0000
  0
SEQEND
  8
0
  0
POLYLINE
  8
16
 66
1
 10
0.0000
 20
0.0000
 30
0.0000
 40
0.7112
 41
0.7112
 70
0
  0
VERTEX
  8
16
 10
63.9000
 20
26.1444
 30
0.0000
 42
1.0000
  0
VERTEX
  8
16
 10
63.9000
 20
26.8556
 30
0.0000
  0
SEQEND
  8
0
  0
POLYLINE
  8
16
 66
1
 10
0.0000
 20
0.0000
 30
0.0000
 40
0.7112
 41
0.7112
 70
0
  0
VERTEX
  8
16
 10
63.8000
 20
26.8556
 30
0.0000
 42
1.0000
  0
VERTEX
  8
16
 10
63.8000
 20
26.1444
 30
0.0000
  0
SEQEND
  8
0
  0
POLYLINE
  8
16
 66
1
 10
0.0000
 20
0.0000
 30
0.0000
 40
1.4224
 41
1.4224
 70
0
  0
VERTEX
  8
16
 10
63.9000
 20
26.5000
 30
0.0000
  0
VERTEX
  8
16
 10
63.9000
 20
16.7000
 30
0.0000
  0
SEQEND
  8
0
  0
POLYLINE
  8
16
 66
1
 10
0.0000
 20
0.0000
 30
0.0000
 40
0.7112
 41
0.7112
 70
0
  0
VERTEX
  8
16
 10
63.5444
 20
16.7000
 30
0.0000
 42
1.0000
  0
VERTEX
  8
16
 10
64.2556
 20
16.7000
 30
0.0000
  0
SEQEND
  8
0
  0
POLYLINE
  8
16
 66
1
 10
0.0000
 20
0.0000
 30
0.0000
 40
0.7112
 41
0.7112
 70
0
  0
VERTEX
  8
16
 10
64.2556
 20
26.5000
 30
0.0000
 42
1.0000
  0
VERTEX
  8
16
 10
63.5444
 20
26.5000
 30
0.0000
  0
SEQEND
  8
0
  0
POLYLINE
  8
16
 66
1
 10
0.0000
 20
0.0000
 30
0.0000
 40
1.4224
 41
1.4224
 70
0
  0
VERTEX
  8
16
 10
63.9000
 20
16.7000
 30
0.0000
  0
VERTEX
  8
16
 10
4.0000
 20
16.7000
 30
0.0000
  0
SEQEND
  8
0
  0
POLYLINE
  8
16
 66
1
 10
0.0000
 20
0.0000
 30
0.0000
 40
0.7112
 41
0.7112
 70
0
  0
VERTEX
  8
16
 10
4.0000
 20
17.0556
 30
0.0000
 42
1.0000
  0
VERTEX
  8
16
 10
4.0000
 20
16.3444
 30
0.0000
  0
SEQEND
  8
0
  0
POLYLINE
  8
16
 66
1
 10
0.0000
 20
0.0000
 30
0.0000
 40
0.7112
 41
0.7112
 70
0
  0
VERTEX
  8
16
 10
63.9000
 20
16.3444
 30
0.0000
 42
1.0000
  0
VERTEX
  8
16
 10
63.9000
 20
17.0556
 30
0.0000
  0
SEQEND
  8
0
  0
POLYLINE
  8
16
 66
1
 10
0.0000
 20
0.0000
 30
0.0000
 40
1.4224
 41
1.4224
 70
0
  0
VERTEX
  8
16
 10
4.0000
 20
16.7000
 30
0.0000
  0
VERTEX
  8
16
 10
4.0000
 20
16.6500
 30
0.0000
  0
SEQEND
  8
0
  0
POLYLINE
  8
16
 66
1
 10
0.0000
 20
0.0000
 30
0.0000
 40
0.7112
 41
0.7112
 70
0
  0
VERTEX
  8
16
 10
3.6444
 20
16.6500
 30
0.0000
 42
1.0000
  0
VERTEX
  8
16
 10
4.3556
 20
16.6500
 30
0.0000
  0
SEQEND
  8
0
  0
POLYLINE
  8
16
 66
1
 10
0.0000
 20
0.0000
 30
0.0000
 40
0.7112
 41
0.7112
 70
0
  0
VERTEX
  8
16
 10
4.3556
 20
16.7000
 30
0.0000
 42
1.0000
  0
VERTEX
  8
16
 10
3.6444
 20
16.7000
 30
0.0000
  0
SEQEND
  8
0
  0
POLYLINE
  8
16
 66
1
 10
0.0000
 20
0.0000
 30
0.0000
 40
1.6510
 41
1.6510
 70
0
  0
VERTEX
  8
16
 10
66.3750
 20
26.5000
 30
0.0000
  0
VERTEX
  8
16
 10
66.3750
 20
27.5000
 30
0.0000
  0
SEQEND
  8
0
  0
POLYLINE
  8
16
 66
1
 10
0.0000
 20
0.0000
 30
0.0000
 40
0.8255
 41
0.8255
 70
0
  0
VERTEX
  8
16
 10
66.7878
 20
27.5000
 30
0.0000
 42
1.0000
  0
VERTEX
  8
16
 10
65.9622
 20
27.5000
 30
0.0000
  0
SEQEND
  8
0
  0
POLYLINE
  8
16
 66
1
 10
0.0000
 20
0.0000
 30
0.0000
 40
0.8255
 41
0.8255
 70
0
  0
VERTEX
  8
16
 10
65.9622
 20
26.5000
 30
0.0000
 42
1.0000
  0
VERTEX
  8
16
 10
66.7878
 20
26.5000
 30
0.0000
  0
SEQEND
  8
0
  0
POLYLINE
  8
16
 66
1
 10
0.0000
 20
0.0000
 30
0.0000
 40
1.6510
 41
1.6510
 70
0
  0
VERTEX
  8
16
 10
66.3750
 20
27.5000
 30
0.0000
  0
VERTEX
  8
16
 10
66.3750
 20
31.1250
 30
0.0000
  0
SEQEND
  8
0
  0
POLYLINE
  8
16
 66
1
 10
0.0000
 20
0.0000
 30
0.0000
 40
0.8255
 41
0.8255
 70
0
  0
VERTEX
  8
16
 10
66.7878
 20
31.1250
 30
0.0000
 42
1.0000
  0
VERTEX
  8
16
 10
65.9622
 20
31.1250
 30
0.0000
  0
SEQEND
  8
0
  0
POLYLINE
  8
16
 66
1
 10
0.0000
 20
0.0000
 30
0.0000
 40
0.8255
 41
0.8255
 70
0
  0
VERTEX
  8
16
 10
65.9622
 20
27.5000
 30
0.0000
 42
1.0000
  0
VERTEX
  8
16
 10
66.7878
 20
27.5000
 30
0.0000
  0
SEQEND
  8
0
  0
POLYLINE
  8
16
 66
1
 10
0.0000
 20
0.0000
 30
0.0000
 40
1.6510
 41
1.6510
 70
0
  0
VERTEX
  8
16
 10
66.3750
 20
31.1250
 30
0.0000
  0
VERTEX
  8
16
 10
66.4000
 20
31.1300
 30
0.0000
  0
SEQEND
  8
0
  0
POLYLINE
  8
16
 66
1
 10
0.0000
 20
0.0000
 30
0.0000
 40
0.8255
 41
0.8255
 70
0
  0
VERTEX
  8
16
 10
66.4809
 20
30.7253
 30
0.0000
 42
1.0000
  0
VERTEX
  8
16
 10
66.3191
 20
31.5347
 30
0.0000
  0
SEQEND
  8
0
  0
POLYLINE
  8
16
 66
1
 10
0.0000
 20
0.0000
 30
0.0000
 40
0.8255
 41
0.8255
 70
0
  0
VERTEX
  8
16
 10
66.2941
 20
31.5297
 30
0.0000
 42
1.0000
  0
VERTEX
  8
16
 10
66.4559
 20
30.7203
 30
0.0000
  0
SEQEND
  8
0
  0
POLYLINE
  8
16
 66
1
 10
0.0000
 20
0.0000
 30
0.0000
 40
1.6510
 41
1.6510
 70
0
  0
VERTEX
  8
16
 10
66.3750
 20
26.5000
 30
0.0000
  0
VERTEX
  8
16
 10
66.3400
 20
26.5000
 30
0.0000
  0
SEQEND
  8
0
  0
POLYLINE
  8
16
 66
1
 10
0.0000
 20
0.0000
 30
0.0000
 40
0.8255
 41
0.8255
 70
0
  0
VERTEX
  8
16
 10
66.3400
 20
26.9127
 30
0.0000
 42
1.0000
  0
VERTEX
  8
16
 10
66.3400
 20
26.0873
 30
0.0000
  0
SEQEND
  8
0
  0
POLYLINE
  8
16
 66
1
 10
0.0000
 20
0.0000
 30
0.0000
 40
0.8255
 41
0.8255
 70
0
  0
VERTEX
  8
16
 10
66.3750
 20
26.0873
 30
0.0000
 42
1.0000
  0
VERTEX
  8
16
 10
66.3750
 20
26.9127
 30
0.0000
  0
SEQEND
  8
0
  0
POLYLINE
  8
16
 66
1
 10
0.0000
 20
0.0000
 30
0.0000
 40
1.4224
 41
1.4224
 70
0
  0
VERTEX
  8
16
 10
4.0000
 20
14.1100
 30
0.0000
  0
VERTEX
  8
16
 10
66.3750
 20
14.1100
 30
0.0000
  0
SEQEND
  8
0
  0
POLYLINE
  8
16
 66
1
 10
0.0000
 20
0.0000
 30
0.0000
 40
0.7112
 41
0.7112
 70
0
  0
VERTEX
  8
16
 10
66.3750
 20
13.7544
 30
0.0000
 42
1.0000
  0
VERTEX
  8
16
 10
66.3750
 20
14.4656
 30
0.0000
  0
SEQEND
  8
0
  0
POLYLINE
  8
16
 66
1
 10
0.0000
 20
0.0000
 30
0.0000
 40
0.7112
 41
0.7112
 70
0
  0
VERTEX
  8
16
 10
4.0000
 20
14.4656
 30
0.0000
 42
1.0000
  0
VERTEX
  8
16
 10
4.0000
 20
13.7544
 30
0.0000
  0
SEQEND
  8
0
  0
POLYLINE
  8
16
 66
1
 10
0.0000
 20
0.0000
 30
0.0000
 40
1.4224
 41
1.4224
 70
0
  0
VERTEX
  8
16
 10
66.3750
 20
14.1100
 30
0.0000
  0
VERTEX
  8
16
 10
66.3750
 20
27.5000
 30
0.0000
  0
SEQEND
  8
0
  0
POLYLINE
  8
16
 66
1
 10
0.0000
 20
0.0000
 30
0.0000
 40
0.7112
 41
0.7112
 70
0
  0
VERTEX
  8
16
 10
66.7306
 20
27.5000
 30
0.0000
 42
1.0000
  0
VERTEX
  8
16
 10
66.0194
 20
27.5000
 30
0.0000
  0
SEQEND
  8
0
  0
POLYLINE
  8
16
 66
1
 10
0.0000
 20
0.0000
 30
0.0000
 40
0.7112
 41
0.7112
 70
0
  0
VERTEX
  8
16
 10
66.0194
 20
14.1100
 30
0.0000
 42
1.0000
  0
VERTEX
  8
16
 10
66.7306
 20
14.1100
 30
0.0000
  0
SEQEND
  8
0
  0
POLYLINE
  8
16
 66
1
 10
0.0000
 20
0.0000
 30
0.0000
 40
1.6510
 41
1.6510
 70
0
  0
VERTEX
  8
16
 10
69.0000
 20
26.5000
 30
0.0000
  0
VERTEX
  8
16
 10
69.0000
 20
31.1250
 30
0.0000
  0
SEQEND
  8
0
  0
POLYLINE
  8
16
 66
1
 10
0.0000
 20
0.0000
 30
0.0000
 40
0.8255
 41
0.8255
 70
0
  0
VERTEX
  8
16
 10
69.4128
 20
31.1250
 30
0.0000
 42
1.0000
  0
VERTEX
  8
16
 10
68.5872
 20
31.1250
 30
0.0000
  0
SEQEND
  8
0
  0
POLYLINE
  8
16
 66
1
 10
0.0000
 20
0.0000
 30
0.0000
 40
0.8255
 41
0.8255
 70
0
  0
VERTEX
  8
16
 10
68.5872
 20
26.5000
 30
0.0000
 42
1.0000
  0
VERTEX
  8
16
 10
69.4128
 20
26.5000
 30
0.0000
  0
SEQEND
  8
0
  0
POLYLINE
  8
16
 66
1
 10
0.0000
 20
0.0000
 30
0.0000
 40
1.6510
 41
1.6510
 70
0
  0
VERTEX
  8
16
 10
69.0000
 20
31.1250
 30
0.0000
  0
VERTEX
  8
16
 10
68.9400
 20
31.1300
 30
0.0000
  0
SEQEND
  8
0
  0
POLYLINE
  8
16
 66
1
 10
0.0000
 20
0.0000
 30
0.0000
 40
0.8255
 41
0.8255
 70
0
  0
VERTEX
  8
16
 10
68.9743
 20
31.5413
 30
0.0000
 42
1.0000
  0
VERTEX
  8
16
 10
68.9057
 20
30.7187
 30
0.0000
  0
SEQEND
  8
0
  0
POLYLINE
  8
16
 66
1
 10
0.0000
 20
0.0000
 30
0.0000
 40
0.8255
 41
0.8255
 70
0
  0
VERTEX
  8
16
 10
68.9657
 20
30.7137
 30
0.0000
 42
1.0000
  0
VERTEX
  8
16
 10
69.0343
 20
31.5363
 30
0.0000
  0
SEQEND
  8
0
  0
POLYLINE
  8
16
 66
1
 10
0.0000
 20
0.0000
 30
0.0000
 40
1.6510
 41
1.6510
 70
0
  0
VERTEX
  8
16
 10
69.0000
 20
26.5000
 30
0.0000
  0
VERTEX
  8
16
 10
68.8800
 20
26.5000
 30
0.0000
  0
SEQEND
  8
0
  0
POLYLINE
  8
16
 66
1
 10
0.0000
 20
0.0000
 30
0.0000
 40
0.8255
 41
0.8255
 70
0
  0
VERTEX
  8
16
 10
68.8800
 20
26.9127
 30
0.0000
 42
1.0000
  0
VERTEX
  8
16
 10
68.8800
 20
26.0873
 30
0.0000
  0
SEQEND
  8
0
  0
POLYLINE
  8
16
 66
1
 10
0.0000
 20
0.0000
 30
0.0000
 40
0.8255
 41
0.8255
 70
0
  0
VERTEX
  8
16
 10
69.0000
 20
26.0873
 30
0.0000
 42
1.0000
  0
VERTEX
  8
16
 10
69.0000
 20
26.9127
 30
0.0000
  0
SEQEND
  8
0
  0
POLYLINE
  8
16
 66
1
 10
0.0000
 20
0.0000
 30
0.0000
 40
1.4224
 41
1.4224
 70
0
  0
VERTEX
  8
16
 10
68.8800
 20
11.5700
 30
0.0000
  0
VERTEX
  8
16
 10
68.8800
 20
26.5000
 30
0.0000
  0
SEQEND
  8
0
  0
POLYLINE
  8
16
 66
1
 10
0.0000
 20
0.0000
 30
0.0000
 40
0.7112
 41
0.7112
 70
0
  0
VERTEX
  8
16
 10
69.2356
 20
26.5000
 30
0.0000
 42
1.0000
  0
VERTEX
  8
16
 10
68.5244
 20
26.5000
 30
0.0000
  0
SEQEND
  8
0
  0
POLYLINE
  8
16
 66
1
 10
0.0000
 20
0.0000
 30
0.0000
 40
0.7112
 41
0.7112
 70
0
  0
VERTEX
  8
16
 10
68.5244
 20
11.5700
 30
0.0000
 42
1.0000
  0
VERTEX
  8
16
 10
69.2356
 20
11.5700
 30
0.0000
  0
SEQEND
  8
0
  0
POLYLINE
  8
16
 66
1
 10
0.0000
 20
0.0000
 30
0.0000
 40
1.4224
 41
1.4224
 70
0
  0
VERTEX
  8
16
 10
4.0000
 20
11.5700
 30
0.0000
  0
VERTEX
  8
16
 10
68.8800
 20
11.5700
 30
0.0000
  0
SEQEND
  8
0
  0
POLYLINE
  8
16
 66
1
 10
0.0000
 20
0.0000
 30
0.0000
 40
0.7112
 41
0.7112
 70
0
  0
VERTEX
  8
16
 10
68.8800
 20
11.2144
 30
0.0000
 42
1.0000
  0
VERTEX
  8
16
 10
68.8800
 20
11.9256
 30
0.0000
  0
SEQEND
  8
0
  0
POLYLINE
  8
16
 66
1
 10
0.0000
 20
0.0000
 30
0.0000
 40
0.7112
 41
0.7112
 70
0
  0
VERTEX
  8
16
 10
4.0000
 20
11.9256
 30
0.0000
 42
1.0000
  0
VERTEX
  8
16
 10
4.0000
 20
11.2144
 30
0.0000
  0
SEQEND
  8
0
  0
POLYLINE
  8
16
 66
1
 10
0.0000
 20
0.0000
 30
0.0000
 40
1.6510
 41
1.6510
 70
0
  0
VERTEX
  8
16
 10
71.5000
 20
26.5000
 30
0.0000
  0
VERTEX
  8
16
 10
71.5000
 20
31.1250
 30
0.0000
  0
SEQEND
  8
0
  0
POLYLINE
  8
16
 66
1
 10
0.0000
 20
0.0000
 30
0.0000
 40
0.8255
 41
0.8255
 70
0
  0
VERTEX
  8
16
 10
71.9128
 20
31.1250
 30
0.0000
 42
1.0000
  0
VERTEX
  8
16
 10
71.0872
 20
31.1250
 30
0.0000
  0
SEQEND
  8
0
  0
POLYLINE
  8
16
 66
1
 10
0.0000
 20
0.0000
 30
0.0000
 40
0.8255
 41
0.8255
 70
0
  0
VERTEX
  8
16
 10
71.0872
 20
26.5000
 30
0.0000
 42
1.0000
  0
VERTEX
  8
16
 10
71.9128
 20
26.5000
 30
0.0000
  0
SEQEND
  8
0
  0
POLYLINE
  8
16
 66
1
 10
0.0000
 20
0.0000
 30
0.0000
 40
1.6510
 41
1.6510
 70
0
  0
VERTEX
  8
16
 10
71.5000
 20
31.1250
 30
0.0000
  0
VERTEX
  8
16
 10
71.4800
 20
31.1300
 30
0.0000
  0
SEQEND
  8
0
  0
POLYLINE
  8
16
 66
1
 10
0.0000
 20
0.0000
 30
0.0000
 40
0.8255
 41
0.8255
 70
0
  0
VERTEX
  8
16
 10
71.5801
 20
31.5304
 30
0.0000
 42
1.0000
  0
VERTEX
  8
16
 10
71.3799
 20
30.7296
 30
0.0000
  0
SEQEND
  8
0
  0
POLYLINE
  8
16
 66
1
 10
0.0000
 20
0.0000
 30
0.0000
 40
0.8255
 41
0.8255
 70
0
  0
VERTEX
  8
16
 10
71.3999
 20
30.7246
 30
0.0000
 42
1.0000
  0
VERTEX
  8
16
 10
71.6001
 20
31.5254
 30
0.0000
  0
SEQEND
  8
0
  0
POLYLINE
  8
16
 66
1
 10
0.0000
 20
0.0000
 30
0.0000
 40
1.6510
 41
1.6510
 70
0
  0
VERTEX
  8
16
 10
71.5000
 20
26.5000
 30
0.0000
  0
VERTEX
  8
16
 10
71.4200
 20
26.5000
 30
0.0000
  0
SEQEND
  8
0
  0
POLYLINE
  8
16
 66
1
 10
0.0000
 20
0.0000
 30
0.0000
 40
0.8255
 41
0.8255
 70
0
  0
VERTEX
  8
16
 10
71.4200
 20
26.9127
 30
0.0000
 42
1.0000
  0
VERTEX
  8
16
 10
71.4200
 20
26.0873
 30
0.0000
  0
SEQEND
  8
0
  0
POLYLINE
  8
16
 66
1
 10
0.0000
 20
0.0000
 30
0.0000
 40
0.8255
 41
0.8255
 70
0
  0
VERTEX
  8
16
 10
71.5000
 20
26.0873
 30
0.0000
 42
1.0000
  0
VERTEX
  8
16
 10
71.5000
 20
26.9127
 30
0.0000
  0
SEQEND
  8
0
  0
POLYLINE
  8
16
 66
1
 10
0.0000
 20
0.0000
 30
0.0000
 40
1.0160
 41
1.0160
 70
0
  0
VERTEX
  8
16
 10
4.0000
 20
9.0300
 30
0.0000
  0
VERTEX
  8
16
 10
9.4000
 20
9.0300
 30
0.0000
  0
SEQEND
  8
0
  0
POLYLINE
  8
16
 66
1
 10
0.0000
 20
0.0000
 30
0.0000
 40
0.5080
 41
0.5080
 70
0
  0
VERTEX
  8
16
 10
9.4000
 20
8.7760
 30
0.0000
 42
1.0000
  0
VERTEX
  8
16
 10
9.4000
 20
9.2840
 30
0.0000
  0
SEQEND
  8
0
  0
POLYLINE
  8
16
 66
1
 10
0.0000
 20
0.0000
 30
0.0000
 40
0.5080
 41
0.5080
 70
0
  0
VERTEX
  8
16
 10
4.0000
 20
9.2840
 30
0.0000
 42
1.0000
  0
VERTEX
  8
16
 10
4.0000
 20
8.7760
 30
0.0000
  0
SEQEND
  8
0
  0
POLYLINE
  8
16
 66
1
 10
0.0000
 20
0.0000
 30
0.0000
 40
1.0160
 41
1.0160
 70
0
  0
VERTEX
  8
16
 10
9.4000
 20
9.0300
 30
0.0000
  0
VERTEX
  8
16
 10
9.4000
 20
10.0000
 30
0.0000
  0
SEQEND
  8
0
  0
POLYLINE
  8
16
 66
1
 10
0.0000
 20
0.0000
 30
0.0000
 40
0.5080
 41
0.5080
 70
0
  0
VERTEX
  8
16
 10
9.6540
 20
10.0000
 30
0.0000
 42
1.0000
  0
VERTEX
  8
16
 10
9.1460
 20
10.0000
 30
0.0000
  0
SEQEND
  8
0
  0
POLYLINE
  8
16
 66
1
 10
0.0000
 20
0.0000
 30
0.0000
 40
0.5080
 41
0.5080
 70
0
  0
VERTEX
  8
16
 10
9.1460
 20
9.0300
 30
0.0000
 42
1.0000
  0
VERTEX
  8
16
 10
9.6540
 20
9.0300
 30
0.0000
  0
SEQEND
  8
0
  0
POLYLINE
  8
16
 66
1
 10
0.0000
 20
0.0000
 30
0.0000
 40
1.0160
 41
1.0160
 70
0
  0
VERTEX
  8
16
 10
9.4000
 20
10.0000
 30
0.0000
  0
VERTEX
  8
16
 10
22.0000
 20
10.0000
 30
0.0000
  0
SEQEND
  8
0
  0
POLYLINE
  8
16
 66
1
 10
0.0000
 20
0.0000
 30
0.0000
 40
0.5080
 41
0.5080
 70
0
  0
VERTEX
  8
16
 10
22.0000
 20
9.7460
 30
0.0000
 42
1.0000
  0
VERTEX
  8
16
 10
22.0000
 20
10.2540
 30
0.0000
  0
SEQEND
  8
0
  0
POLYLINE
  8
16
 66
1
 10
0.0000
 20
0.0000
 30
0.0000
 40
0.5080
 41
0.5080
 70
0
  0
VERTEX
  8
16
 10
9.4000
 20
10.2540
 30
0.0000
 42
1.0000
  0
VERTEX
  8
16
 10
9.4000
 20
9.7460
 30
0.0000
  0
SEQEND
  8
0
  0
POLYLINE
  8
16
 66
1
 10
0.0000
 20
0.0000
 30
0.0000
 40
1.0160
 41
1.0160
 70
0
  0
VERTEX
  8
16
 10
22.0000
 20
10.0000
 30
0.0000
  0
VERTEX
  8
16
 10
22.0000
 20
8.8000
 30
0.0000
  0
SEQEND
  8
0
  0
POLYLINE
  8
16
 66
1
 10
0.0000
 20
0.0000
 30
0.0000
 40
0.5080
 41
0.5080
 70
0
  0
VERTEX
  8
16
 10
21.7460
 20
8.8000
 30
0.0000
 42
1.0000
  0
VERTEX
  8
16
 10
22.2540
 20
8.8000
 30
0.0000
  0
SEQEND
  8
0
  0
POLYLINE
  8
16
 66
1
 10
0.0000
 20
0.0000
 30
0.0000
 40
0.5080
 41
0.5080
 70
0
  0
VERTEX
  8
16
 10
22.2540
 20
10.0000
 30
0.0000
 42
1.0000
  0
VERTEX
  8
16
 10
21.7460
 20
10.0000
 30
0.0000
  0
SEQEND
  8
0
  0
POLYLINE
  8
16
 66
1
 10
0.0000
 20
0.0000
 30
0.0000
 40
1.0160
 41
1.0160
 70
0
  0
VERTEX
  8
16
 10
22.0000
 20
8.8000
 30
0.0000
  0
VERTEX
  8
16
 10
71.4200
 20
8.8000
 30
0.0000
  0
SEQEND
  8
0
  0
POLYLINE
  8
16
 66
1
 10
0.0000
 20
0.0000
 30
0.0000
 40
0.5080
 41
0.5080
 70
0
  0
VERTEX
  8
16
 10
71.4200
 20
8.5460
 30
0.0000
 42
1.0000
  0
VERTEX
  8
16
 10
71.4200
 20
9.0540
 30
0.0000
  0
SEQEND
  8
0
  0
POLYLINE
  8
16
 66
1
 10
0.0000
 20
0.0000
 30
0.0000
 40
0.5080
 41
0.5080
 70
0
  0
VERTEX
  8
16
 10
22.0000
 20
9.0540
 30
0.0000
 42
1.0000
  0
VERTEX
  8
16
 10
22.0000
 20
8.5460
 30
0.0000
  0
SEQEND
  8
0
  0
POLYLINE
  8
16
 66
1
 10
0.0000
 20
0.0000
 30
0.0000
 40
1.0160
 41
1.0160
 70
0
  0
VERTEX
  8
16
 10
71.4200
 20
8.8000
 30
0.0000
  0
VERTEX
  8
16
 10
71.4200
 20
26.5000
 30
0.0000
  0
SEQEND
  8
0
  0
POLYLINE
  8
16
 66
1
 10
0.0000
 20
0.0000
 30
0.0000
 40
0.5080
 41
0.5080
 70
0
  0
VERTEX
  8
16
 10
71.6740
 20
26.5000
 30
0.0000
 42
1.0000
  0
VERTEX
  8
16
 10
71.1660
 20
26.5000
 30
0.0000
  0
SEQEND
  8
0
  0
POLYLINE
  8
16
 66
1
 10
0.0000
 20
0.0000
 30
0.0000
 40
0.5080
 41
0.5080
 70
0
  0
VERTEX
  8
16
 10
71.1660
 20
8.8000
 30
0.0000
 42
1.0000
  0
VERTEX
  8
16
 10
71.6740
 20
8.8000
 30
0.0000
  0
SEQEND
  8
0
  0
POLYLINE
  8
16
 66
1
 10
0.0000
 20
0.0000
 30
0.0000
 40
1.6510
 41
1.6510
 70
0
  0
VERTEX
  8
16
 10
74.0000
 20
26.5000
 30
0.0000
  0
VERTEX
  8
16
 10
74.0000
 20
31.1250
 30
0.0000
  0
SEQEND
  8
0
  0
POLYLINE
  8
16
 66
1
 10
0.0000
 20
0.0000
 30
0.0000
 40
0.8255
 41
0.8255
 70
0
  0
VERTEX
  8
16
 10
74.4128
 20
31.1250
 30
0.0000
 42
1.0000
  0
VERTEX
  8
16
 10
73.5872
 20
31.1250
 30
0.0000
  0
SEQEND
  8
0
  0
POLYLINE
  8
16
 66
1
 10
0.0000
 20
0.0000
 30
0.0000
 40
0.8255
 41
0.8255
 70
0
  0
VERTEX
  8
16
 10
73.5872
 20
26.5000
 30
0.0000
 42
1.0000
  0
VERTEX
  8
16
 10
74.4128
 20
26.5000
 30
0.0000
  0
SEQEND
  8
0
  0
POLYLINE
  8
16
 66
1
 10
0.0000
 20
0.0000
 30
0.0000
 40
1.6510
 41
1.6510
 70
0
  0
VERTEX
  8
16
 10
74.0000
 20
31.1250
 30
0.0000
  0
VERTEX
  8
16
 10
74.0200
 20
31.1300
 30
0.0000
  0
SEQEND
  8
0
  0
POLYLINE
  8
16
 66
1
 10
0.0000
 20
0.0000
 30
0.0000
 40
0.8255
 41
0.8255
 70
0
  0
VERTEX
  8
16
 10
74.1201
 20
30.7296
 30
0.0000
 42
1.0000
  0
VERTEX
  8
16
 10
73.9199
 20
31.5304
 30
0.0000
  0
SEQEND
  8
0
  0
POLYLINE
  8
16
 66
1
 10
0.0000
 20
0.0000
 30
0.0000
 40
0.8255
 41
0.8255
 70
0
  0
VERTEX
  8
16
 10
73.8999
 20
31.5254
 30
0.0000
 42
1.0000
  0
VERTEX
  8
16
 10
74.1001
 20
30.7246
 30
0.0000
  0
SEQEND
  8
0
  0
POLYLINE
  8
16
 66
1
 10
0.0000
 20
0.0000
 30
0.0000
 40
1.6510
 41
1.6510
 70
0
  0
VERTEX
  8
16
 10
74.0000
 20
26.5000
 30
0.0000
  0
VERTEX
  8
16
 10
73.9600
 20
26.5000
 30
0.0000
  0
SEQEND
  8
0
  0
POLYLINE
  8
16
 66
1
 10
0.0000
 20
0.0000
 30
0.0000
 40
0.8255
 41
0.8255
 70
0
  0
VERTEX
  8
16
 10
73.9600
 20
26.9127
 30
0.0000
 42
1.0000
  0
VERTEX
  8
16
 10
73.9600
 20
26.0873
 30
0.0000
  0
SEQEND
  8
0
  0
POLYLINE
  8
16
 66
1
 10
0.0000
 20
0.0000
 30
0.0000
 40
0.8255
 41
0.8255
 70
0
  0
VERTEX
  8
16
 10
74.0000
 20
26.0873
 30
0.0000
 42
1.0000
  0
VERTEX
  8
16
 10
74.0000
 20
26.9127
 30
0.0000
  0
SEQEND
  8
0
  0
POLYLINE
  8
16
 66
1
 10
0.0000
 20
0.0000
 30
0.0000
 40
1.6510
 41
1.6510
 70
0
  0
VERTEX
  8
16
 10
76.5000
 20
26.5000
 30
0.0000
  0
VERTEX
  8
16
 10
76.5000
 20
31.1250
 30
0.0000
  0
SEQEND
  8
0
  0
POLYLINE
  8
16
 66
1
 10
0.0000
 20
0.0000
 30
0.0000
 40
0.8255
 41
0.8255
 70
0
  0
VERTEX
  8
16
 10
76.9128
 20
31.1250
 30
0.0000
 42
1.0000
  0
VERTEX
  8
16
 10
76.0872
 20
31.1250
 30
0.0000
  0
SEQEND
  8
0
  0
POLYLINE
  8
16
 66
1
 10
0.0000
 20
0.0000
 30
0.0000
 40
0.8255
 41
0.8255
 70
0
  0
VERTEX
  8
16
 10
76.0872
 20
26.5000
 30
0.0000
 42
1.0000
  0
VERTEX
  8
16
 10
76.9128
 20
26.5000
 30
0.0000
  0
SEQEND
  8
0
  0
POLYLINE
  8
16
 66
1
 10
0.0000
 20
0.0000
 30
0.0000
 40
1.6510
 41
1.6510
 70
0
  0
VERTEX
  8
16
 10
76.5000
 20
31.1250
 30
0.0000
  0
VERTEX
  8
16
 10
76.5600
 20
31.1300
 30
0.0000
  0
SEQEND
  8
0
  0
POLYLINE
  8
16
 66
1
 10
0.0000
 20
0.0000
 30
0.0000
 40
0.8255
 41
0.8255
 70
0
  0
VERTEX
  8
16
 10
76.5943
 20
30.7187
 30
0.0000
 42
1.0000
  0
VERTEX
  8
16
 10
76.5257
 20
31.5413
 30
0.0000
  0
SEQEND
  8
0
  0
POLYLINE
  8
16
 66
1
 10
0.0000
 20
0.0000
 30
0.0000
 40
0.8255
 41
0.8255
 70
0
  0
VERTEX
  8
16
 10
76.4657
 20
31.5363
 30
0.0000
 42
1.0000
  0
VERTEX
  8
16
 10
76.5343
 20
30.7137
 30
0.0000
  0
SEQEND
  8
0
  0
POLYLINE
  8
16
 66
1
 10
0.0000
 20
0.0000
 30
0.0000
 40
1.6510
 41
1.6510
 70
0
  0
VERTEX
  8
16
 10
74.0000
 20
43.0000
 30
0.0000
  0
VERTEX
  8
16
 10
74.0000
 20
38.7500
 30
0.0000
  0
SEQEND
  8
0
  0
POLYLINE
  8
16
 66
1
 10
0.0000
 20
0.0000
 30
0.0000
 40
0.8255
 41
0.8255
 70
0
  0
VERTEX
  8
16
 10
73.5872
 20
38.7500
 30
0.0000
 42
1.0000
  0
VERTEX
  8
16
 10
74.4128
 20
38.7500
 30
0.0000
  0
SEQEND
  8
0
  0
POLYLINE
  8
16
 66
1
 10
0.0000
 20
0.0000
 30
0.0000
 40
0.8255
 41
0.8255
 70
0
  0
VERTEX
  8
16
 10
74.4128
 20
43.0000
 30
0.0000
 42
1.0000
  0
VERTEX
  8
16
 10
73.5872
 20
43.0000
 30
0.0000
  0
SEQEND
  8
0
  0
POLYLINE
  8
16
 66
1
 10
0.0000
 20
0.0000
 30
0.0000
 40
1.6510
 41
1.6510
 70
0
  0
VERTEX
  8
16
 10
74.0000
 20
38.7500
 30
0.0000
  0
VERTEX
  8
16
 10
74.0200
 20
38.7500
 30
0.0000
  0
SEQEND
  8
0
  0
POLYLINE
  8
16
 66
1
 10
0.0000
 20
0.0000
 30
0.0000
 40
0.8255
 41
0.8255
 70
0
  0
VERTEX
  8
16
 10
74.0200
 20
38.3372
 30
0.0000
 42
1.0000
  0
VERTEX
  8
16
 10
74.0200
 20
39.1628
 30
0.0000
  0
SEQEND
  8
0
  0
POLYLINE
  8
16
 66
1
 10
0.0000
 20
0.0000
 30
0.0000
 40
0.8255
 41
0.8255
 70
0
  0
VERTEX
  8
16
 10
74.0000
 20
39.1628
 30
0.0000
 42
1.0000
  0
VERTEX
  8
16
 10
74.0000
 20
38.3372
 30
0.0000
  0
SEQEND
  8
0
  0
POLYLINE
  8
16
 66
1
 10
0.0000
 20
0.0000
 30
0.0000
 40
1.6510
 41
1.6510
 70
0
  0
VERTEX
  8
16
 10
74.0000
 20
43.0000
 30
0.0000
  0
VERTEX
  8
16
 10
73.9600
 20
43.0000
 30
0.0000
  0
SEQEND
  8
0
  0
POLYLINE
  8
16
 66
1
 10
0.0000
 20
0.0000
 30
0.0000
 40
0.8255
 41
0.8255
 70
0
  0
VERTEX
  8
16
 10
73.9600
 20
43.4128
 30
0.0000
 42
1.0000
  0
VERTEX
  8
16
 10
73.9600
 20
42.5872
 30
0.0000
  0
SEQEND
  8
0
  0
POLYLINE
  8
16
 66
1
 10
0.0000
 20
0.0000
 30
0.0000
 40
0.8255
 41
0.8255
 70
0
  0
VERTEX
  8
16
 10
74.0000
 20
42.5872
 30
0.0000
 42
1.0000
  0
VERTEX
  8
16
 10
74.0000
 20
43.4128
 30
0.0000
  0
SEQEND
  8
0
  0
POLYLINE
  8
16
 66
1
 10
0.0000
 20
0.0000
 30
0.0000
 40
1.6510
 41
1.6510
 70
0
  0
VERTEX
  8
16
 10
71.5000
 20
43.0000
 30
0.0000
  0
VERTEX
  8
16
 10
71.5000
 20
38.7500
 30
0.0000
  0
SEQEND
  8
0
  0
POLYLINE
  8
16
 66
1
 10
0.0000
 20
0.0000
 30
0.0000
 40
0.8255
 41
0.8255
 70
0
  0
VERTEX
  8
16
 10
71.0872
 20
38.7500
 30
0.0000
 42
1.0000
  0
VERTEX
  8
16
 10
71.9128
 20
38.7500
 30
0.0000
  0
SEQEND
  8
0
  0
POLYLINE
  8
16
 66
1
 10
0.0000
 20
0.0000
 30
0.0000
 40
0.8255
 41
0.8255
 70
0
  0
VERTEX
  8
16
 10
71.9128
 20
43.0000
 30
0.0000
 42
1.0000
  0
VERTEX
  8
16
 10
71.0872
 20
43.0000
 30
0.0000
  0
SEQEND
  8
0
  0
POLYLINE
  8
16
 66
1
 10
0.0000
 20
0.0000
 30
0.0000
 40
1.6510
 41
1.6510
 70
0
  0
VERTEX
  8
16
 10
71.5000
 20
38.7500
 30
0.0000
  0
VERTEX
  8
16
 10
71.4800
 20
38.7500
 30
0.0000
  0
SEQEND
  8
0
  0
POLYLINE
  8
16
 66
1
 10
0.0000
 20
0.0000
 30
0.0000
 40
0.8255
 41
0.8255
 70
0
  0
VERTEX
  8
16
 10
71.4800
 20
39.1628
 30
0.0000
 42
1.0000
  0
VERTEX
  8
16
 10
71.4800
 20
38.3372
 30
0.0000
  0
SEQEND
  8
0
  0
POLYLINE
  8
16
 66
1
 10
0.0000
 20
0.0000
 30
0.0000
 40
0.8255
 41
0.8255
 70
0
  0
VERTEX
  8
16
 10
71.5000
 20
38.3372
 30
0.0000
 42
1.0000
  0
VERTEX
  8
16
 10
71.5000
 20
39.1628
 30
0.0000
  0
SEQEND
  8
0
  0
POLYLINE
  8
16
 66
1
 10
0.0000
 20
0.0000
 30
0.0000
 40
1.6510
 41
1.6510
 70
0
  0
VERTEX
  8
16
 10
71.5000
 20
43.0000
 30
0.0000
  0
VERTEX
  8
16
 10
71.4200
 20
43.0000
 30
0.0000
  0
SEQEND
  8
0
  0
POLYLINE
  8
16
 66
1
 10
0.0000
 20
0.0000
 30
0.0000
 40
0.8255
 41
0.8255
 70
0
  0
VERTEX
  8
16
 10
71.4200
 20
43.4128
 30
0.0000
 42
1.0000
  0
VERTEX
  8
16
 10
71.4200
 20
42.5872
 30
0.0000
  0
SEQEND
  8
0
  0
POLYLINE
  8
16
 66
1
 10
0.0000
 20
0.0000
 30
0.0000
 40
0.8255
 41
0.8255
 70
0
  0
VERTEX
  8
16
 10
71.5000
 20
42.5872
 30
0.0000
 42
1.0000
  0
VERTEX
  8
16
 10
71.5000
 20
43.4128
 30
0.0000
  0
SEQEND
  8
0
  0
POLYLINE
  8
16
 66
1
 10
0.0000
 20
0.0000
 30
0.0000
 40
1.6510
 41
1.6510
 70
0
  0
VERTEX
  8
16
 10
69.0000
 20
43.0000
 30
0.0000
  0
VERTEX
  8
16
 10
69.0000
 20
42.5000
 30
0.0000
  0
SEQEND
  8
0
  0
POLYLINE
  8
16
 66
1
 10
0.0000
 20
0.0000
 30
0.0000
 40
0.8255
 41
0.8255
 70
0
  0
VERTEX
  8
16
 10
68.5872
 20
42.5000
 30
0.0000
 42
1.0000
  0
VERTEX
  8
16
 10
69.4128
 20
42.5000
 30
0.0000
  0
SEQEND
  8
0
  0
POLYLINE
  8
16
 66
1
 10
0.0000
 20
0.0000
 30
0.0000
 40
0.8255
 41
0.8255
 70
0
  0
VERTEX
  8
16
 10
69.4128
 20
43.0000
 30
0.0000
 42
1.0000
  0
VERTEX
  8
16
 10
68.5872
 20
43.0000
 30
0.0000
  0
SEQEND
  8
0
  0
POLYLINE
  8
16
 66
1
 10
0.0000
 20
0.0000
 30
0.0000
 40
1.6510
 41
1.6510
 70
0
  0
VERTEX
  8
16
 10
69.0000
 20
42.5000
 30
0.0000
  0
VERTEX
  8
16
 10
69.0000
 20
38.7500
 30
0.0000
  0
SEQEND
  8
0
  0
POLYLINE
  8
16
 66
1
 10
0.0000
 20
0.0000
 30
0.0000
 40
0.8255
 41
0.8255
 70
0
  0
VERTEX
  8
16
 10
68.5872
 20
38.7500
 30
0.0000
 42
1.0000
  0
VERTEX
  8
16
 10
69.4128
 20
38.7500
 30
0.0000
  0
SEQEND
  8
0
  0
POLYLINE
  8
16
 66
1
 10
0.0000
 20
0.0000
 30
0.0000
 40
0.8255
 41
0.8255
 70
0
  0
VERTEX
  8
16
 10
69.4128
 20
42.5000
 30
0.0000
 42
1.0000
  0
VERTEX
  8
16
 10
68.5872
 20
42.5000
 30
0.0000
  0
SEQEND
  8
0
  0
POLYLINE
  8
16
 66
1
 10
0.0000
 20
0.0000
 30
0.0000
 40
1.6510
 41
1.6510
 70
0
  0
VERTEX
  8
16
 10
69.0000
 20
38.7500
 30
0.0000
  0
VERTEX
  8
16
 10
68.9400
 20
38.7500
 30
0.0000
  0
SEQEND
  8
0
  0
POLYLINE
  8
16
 66
1
 10
0.0000
 20
0.0000
 30
0.0000
 40
0.8255
 41
0.8255
 70
0
  0
VERTEX
  8
16
 10
68.9400
 20
39.1628
 30
0.0000
 42
1.0000
  0
VERTEX
  8
16
 10
68.9400
 20
38.3372
 30
0.0000
  0
SEQEND
  8
0
  0
POLYLINE
  8
16
 66
1
 10
0.0000
 20
0.0000
 30
0.0000
 40
0.8255
 41
0.8255
 70
0
  0
VERTEX
  8
16
 10
69.0000
 20
38.3372
 30
0.0000
 42
1.0000
  0
VERTEX
  8
16
 10
69.0000
 20
39.1628
 30
0.0000
  0
SEQEND
  8
0
  0
POLYLINE
  8
16
 66
1
 10
0.0000
 20
0.0000
 30
0.0000
 40
1.6510
 41
1.6510
 70
0
  0
VERTEX
  8
16
 10
69.0000
 20
43.0000
 30
0.0000
  0
VERTEX
  8
16
 10
68.8800
 20
43.0000
 30
0.0000
  0
SEQEND
  8
0
  0
POLYLINE
  8
16
 66
1
 10
0.0000
 20
0.0000
 30
0.0000
 40
0.8255
 41
0.8255
 70
0
  0
VERTEX
  8
16
 10
68.8800
 20
43.4128
 30
0.0000
 42
1.0000
  0
VERTEX
  8
16
 10
68.8800
 20
42.5872
 30
0.0000
  0
SEQEND
  8
0
  0
POLYLINE
  8
16
 66
1
 10
0.0000
 20
0.0000
 30
0.0000
 40
0.8255
 41
0.8255
 70
0
  0
VERTEX
  8
16
 10
69.0000
 20
42.5872
 30
0.0000
 42
1.0000
  0
VERTEX
  8
16
 10
69.0000
 20
43.4128
 30
0.0000
  0
SEQEND
  8
0
  0
POLYLINE
  8
16
 66
1
 10
0.0000
 20
0.0000
 30
0.0000
 40
1.4224
 41
1.4224
 70
0
  0
VERTEX
  8
16
 10
68.8800
 20
43.0000
 30
0.0000
  0
VERTEX
  8
16
 10
69.0000
 20
42.5000
 30
0.0000
  0
SEQEND
  8
0
  0
POLYLINE
  8
16
 66
1
 10
0.0000
 20
0.0000
 30
0.0000
 40
0.7112
 41
0.7112
 70
0
  0
VERTEX
  8
16
 10
68.6542
 20
42.4170
 30
0.0000
 42
1.0000
  0
VERTEX
  8
16
 10
69.3458
 20
42.5830
 30
0.0000
  0
SEQEND
  8
0
  0
POLYLINE
  8
16
 66
1
 10
0.0000
 20
0.0000
 30
0.0000
 40
0.7112
 41
0.7112
 70
0
  0
VERTEX
  8
16
 10
69.2258
 20
43.0830
 30
0.0000
 42
1.0000
  0
VERTEX
  8
16
 10
68.5342
 20
42.9170
 30
0.0000
  0
SEQEND
  8
0
  0
POLYLINE
  8
16
 66
1
 10
0.0000
 20
0.0000
 30
0.0000
 40
1.6764
 41
1.6764
 70
0
  0
VERTEX
  8
16
 10
69.0000
 20
42.5000
 30
0.0000
  0
VERTEX
  8
16
 10
69.0000
 20
53.4000
 30
0.0000
  0
SEQEND
  8
0
  0
POLYLINE
  8
16
 66
1
 10
0.0000
 20
0.0000
 30
0.0000
 40
0.8382
 41
0.8382
 70
0
  0
VERTEX
  8
16
 10
69.4191
 20
53.4000
 30
0.0000
 42
1.0000
  0
VERTEX
  8
16
 10
68.5809
 20
53.4000
 30
0.0000
  0
SEQEND
  8
0
  0
POLYLINE
  8
16
 66
1
 10
0.0000
 20
0.0000
 30
0.0000
 40
0.8382
 41
0.8382
 70
0
  0
VERTEX
  8
16
 10
68.5809
 20
42.5000
 30
0.0000
 42
1.0000
  0
VERTEX
  8
16
 10
69.4191
 20
42.5000
 30
0.0000
  0
SEQEND
  8
0
  0
POLYLINE
  8
16
 66
1
 10
0.0000
 20
0.0000
 30
0.0000
 40
1.0160
 41
1.0160
 70
0
  0
VERTEX
  8
16
 10
4.0000
 20
34.4300
 30
0.0000
  0
VERTEX
  8
16
 10
20.7000
 20
34.4300
 30
0.0000
  0
SEQEND
  8
0
  0
POLYLINE
  8
16
 66
1
 10
0.0000
 20
0.0000
 30
0.0000
 40
0.5080
 41
0.5080
 70
0
  0
VERTEX
  8
16
 10
20.7000
 20
34.1760
 30
0.0000
 42
1.0000
  0
VERTEX
  8
16
 10
20.7000
 20
34.6840
 30
0.0000
  0
SEQEND
  8
0
  0
POLYLINE
  8
16
 66
1
 10
0.0000
 20
0.0000
 30
0.0000
 40
0.5080
 41
0.5080
 70
0
  0
VERTEX
  8
16
 10
4.0000
 20
34.6840
 30
0.0000
 42
1.0000
  0
VERTEX
  8
16
 10
4.0000
 20
34.1760
 30
0.0000
  0
SEQEND
  8
0
  0
POLYLINE
  8
16
 66
1
 10
0.0000
 20
0.0000
 30
0.0000
 40
1.0160
 41
1.0160
 70
0
  0
VERTEX
  8
16
 10
20.7000
 20
34.4300
 30
0.0000
  0
VERTEX
  8
16
 10
20.7000
 20
53.3000
 30
0.0000
  0
SEQEND
  8
0
  0
POLYLINE
  8
16
 66
1
 10
0.0000
 20
0.0000
 30
0.0000
 40
0.5080
 41
0.5080
 70
0
  0
VERTEX
  8
16
 10
20.9540
 20
53.3000
 30
0.0000
 42
1.0000
  0
VERTEX
  8
16
 10
20.4460
 20
53.3000
 30
0.0000
  0
SEQEND
  8
0
  0
POLYLINE
  8
16
 66
1
 10
0.0000
 20
0.0000
 30
0.0000
 40
0.5080
 41
0.5080
 70
0
  0
VERTEX
  8
16
 10
20.4460
 20
34.4300
 30
0.0000
 42
1.0000
  0
VERTEX
  8
16
 10
20.9540
 20
34.4300
 30
0.0000
  0
SEQEND
  8
0
  0
CIRCLE
  8
44
 10
20.7000
 20
53.3000
 30
0.0000
 40
0.3000
  0
CIRCLE
  8
44
 10
69.0000
 20
53.3000
 30
0.0000
 40
0.3000
  0
POLYLINE
  8
16
 66
1
 10
0.0000
 20
0.0000
 30
0.0000
 40
1.6510
 41
1.6510
 70
0
  0
VERTEX
  8
16
 10
66.3750
 20
43.0000
 30
0.0000
  0
VERTEX
  8
16
 10
66.3750
 20
38.7500
 30
0.0000
  0
SEQEND
  8
0
  0
POLYLINE
  8
16
 66
1
 10
0.0000
 20
0.0000
 30
0.0000
 40
0.8255
 41
0.8255
 70
0
  0
VERTEX
  8
16
 10
65.9622
 20
38.7500
 30
0.0000
 42
1.0000
  0
VERTEX
  8
16
 10
66.7878
 20
38.7500
 30
0.0000
  0
SEQEND
  8
0
  0
POLYLINE
  8
16
 66
1
 10
0.0000
 20
0.0000
 30
0.0000
 40
0.8255
 41
0.8255
 70
0
  0
VERTEX
  8
16
 10
66.7878
 20
43.0000
 30
0.0000
 42
1.0000
  0
VERTEX
  8
16
 10
65.9622
 20
43.0000
 30
0.0000
  0
SEQEND
  8
0
  0
POLYLINE
  8
16
 66
1
 10
0.0000
 20
0.0000
 30
0.0000
 40
1.6510
 41
1.6510
 70
0
  0
VERTEX
  8
16
 10
66.3750
 20
38.7500
 30
0.0000
  0
VERTEX
  8
16
 10
66.4000
 20
38.7500
 30
0.0000
  0
SEQEND
  8
0
  0
POLYLINE
  8
16
 66
1
 10
0.0000
 20
0.0000
 30
0.0000
 40
0.8255
 41
0.8255
 70
0
  0
VERTEX
  8
16
 10
66.4000
 20
38.3372
 30
0.0000
 42
1.0000
  0
VERTEX
  8
16
 10
66.4000
 20
39.1628
 30
0.0000
  0
SEQEND
  8
0
  0
POLYLINE
  8
16
 66
1
 10
0.0000
 20
0.0000
 30
0.0000
 40
0.8255
 41
0.8255
 70
0
  0
VERTEX
  8
16
 10
66.3750
 20
39.1628
 30
0.0000
 42
1.0000
  0
VERTEX
  8
16
 10
66.3750
 20
38.3372
 30
0.0000
  0
SEQEND
  8
0
  0
POLYLINE
  8
16
 66
1
 10
0.0000
 20
0.0000
 30
0.0000
 40
1.6510
 41
1.6510
 70
0
  0
VERTEX
  8
16
 10
66.3750
 20
43.0000
 30
0.0000
  0
VERTEX
  8
16
 10
66.3400
 20
43.0000
 30
0.0000
  0
SEQEND
  8
0
  0
POLYLINE
  8
16
 66
1
 10
0.0000
 20
0.0000
 30
0.0000
 40
0.8255
 41
0.8255
 70
0
  0
VERTEX
  8
16
 10
66.3400
 20
43.4128
 30
0.0000
 42
1.0000
  0
VERTEX
  8
16
 10
66.3400
 20
42.5872
 30
0.0000
  0
SEQEND
  8
0
  0
POLYLINE
  8
16
 66
1
 10
0.0000
 20
0.0000
 30
0.0000
 40
0.8255
 41
0.8255
 70
0
  0
VERTEX
  8
16
 10
66.3750
 20
42.5872
 30
0.0000
 42
1.0000
  0
VERTEX
  8
16
 10
66.3750
 20
43.4128
 30
0.0000
  0
SEQEND
  8
0
  0
POLYLINE
  8
16
 66
1
 10
0.0000
 20
0.0000
 30
0.0000
 40
1.4224
 41
1.4224
 70
0
  0
VERTEX
  8
16
 10
66.3400
 20
43.0000
 30
0.0000
  0
VERTEX
  8
16
 10
66.4000
 20
43.0000
 30
0.0000
  0
SEQEND
  8
0
  0
POLYLINE
  8
16
 66
1
 10
0.0000
 20
0.0000
 30
0.0000
 40
0.7112
 41
0.7112
 70
0
  0
VERTEX
  8
16
 10
66.4000
 20
42.6444
 30
0.0000
 42
1.0000
  0
VERTEX
  8
16
 10
66.4000
 20
43.3556
 30
0.0000
  0
SEQEND
  8
0
  0
POLYLINE
  8
16
 66
1
 10
0.0000
 20
0.0000
 30
0.0000
 40
0.7112
 41
0.7112
 70
0
  0
VERTEX
  8
16
 10
66.3400
 20
43.3556
 30
0.0000
 42
1.0000
  0
VERTEX
  8
16
 10
66.3400
 20
42.6444
 30
0.0000
  0
SEQEND
  8
0
  0
POLYLINE
  8
16
 66
1
 10
0.0000
 20
0.0000
 30
0.0000
 40
1.6764
 41
1.6764
 70
0
  0
VERTEX
  8
16
 10
66.4000
 20
43.0000
 30
0.0000
  0
VERTEX
  8
16
 10
66.4000
 20
50.0000
 30
0.0000
  0
SEQEND
  8
0
  0
POLYLINE
  8
16
 66
1
 10
0.0000
 20
0.0000
 30
0.0000
 40
0.8382
 41
0.8382
 70
0
  0
VERTEX
  8
16
 10
66.8191
 20
50.0000
 30
0.0000
 42
1.0000
  0
VERTEX
  8
16
 10
65.9809
 20
50.0000
 30
0.0000
  0
SEQEND
  8
0
  0
POLYLINE
  8
16
 66
1
 10
0.0000
 20
0.0000
 30
0.0000
 40
0.8382
 41
0.8382
 70
0
  0
VERTEX
  8
16
 10
65.9809
 20
43.0000
 30
0.0000
 42
1.0000
  0
VERTEX
  8
16
 10
66.8191
 20
43.0000
 30
0.0000
  0
SEQEND
  8
0
  0
POLYLINE
  8
16
 66
1
 10
0.0000
 20
0.0000
 30
0.0000
 40
1.0160
 41
1.0160
 70
0
  0
VERTEX
  8
16
 10
4.0000
 20
31.8900
 30
0.0000
  0
VERTEX
  8
16
 10
6.3000
 20
31.8900
 30
0.0000
  0
SEQEND
  8
0
  0
POLYLINE
  8
16
 66
1
 10
0.0000
 20
0.0000
 30
0.0000
 40
0.5080
 41
0.5080
 70
0
  0
VERTEX
  8
16
 10
6.3000
 20
31.6360
 30
0.0000
 42
1.0000
  0
VERTEX
  8
16
 10
6.3000
 20
32.1440
 30
0.0000
  0
SEQEND
  8
0
  0
POLYLINE
  8
16
 66
1
 10
0.0000
 20
0.0000
 30
0.0000
 40
0.5080
 41
0.5080
 70
0
  0
VERTEX
  8
16
 10
4.0000
 20
32.1440
 30
0.0000
 42
1.0000
  0
VERTEX
  8
16
 10
4.0000
 20
31.6360
 30
0.0000
  0
SEQEND
  8
0
  0
POLYLINE
  8
16
 66
1
 10
0.0000
 20
0.0000
 30
0.0000
 40
1.0160
 41
1.0160
 70
0
  0
VERTEX
  8
16
 10
6.3000
 20
31.8900
 30
0.0000
  0
VERTEX
  8
16
 10
6.3000
 20
30.7000
 30
0.0000
  0
SEQEND
  8
0
  0
POLYLINE
  8
16
 66
1
 10
0.0000
 20
0.0000
 30
0.0000
 40
0.5080
 41
0.5080
 70
0
  0
VERTEX
  8
16
 10
6.0460
 20
30.7000
 30
0.0000
 42
1.0000
  0
VERTEX
  8
16
 10
6.5540
 20
30.7000
 30
0.0000
  0
SEQEND
  8
0
  0
POLYLINE
  8
16
 66
1
 10
0.0000
 20
0.0000
 30
0.0000
 40
0.5080
 41
0.5080
 70
0
  0
VERTEX
  8
16
 10
6.5540
 20
31.8900
 30
0.0000
 42
1.0000
  0
VERTEX
  8
16
 10
6.0460
 20
31.8900
 30
0.0000
  0
SEQEND
  8
0
  0
POLYLINE
  8
16
 66
1
 10
0.0000
 20
0.0000
 30
0.0000
 40
1.0160
 41
1.0160
 70
0
  0
VERTEX
  8
16
 10
6.3000
 20
30.7000
 30
0.0000
  0
VERTEX
  8
16
 10
28.8000
 20
30.7000
 30
0.0000
  0
SEQEND
  8
0
  0
POLYLINE
  8
16
 66
1
 10
0.0000
 20
0.0000
 30
0.0000
 40
0.5080
 41
0.5080
 70
0
  0
VERTEX
  8
16
 10
28.8000
 20
30.4460
 30
0.0000
 42
1.0000
  0
VERTEX
  8
16
 10
28.8000
 20
30.9540
 30
0.0000
  0
SEQEND
  8
0
  0
POLYLINE
  8
16
 66
1
 10
0.0000
 20
0.0000
 30
0.0000
 40
0.5080
 41
0.5080
 70
0
  0
VERTEX
  8
16
 10
6.3000
 20
30.9540
 30
0.0000
 42
1.0000
  0
VERTEX
  8
16
 10
6.3000
 20
30.4460
 30
0.0000
  0
SEQEND
  8
0
  0
POLYLINE
  8
16
 66
1
 10
0.0000
 20
0.0000
 30
0.0000
 40
1.0160
 41
1.0160
 70
0
  0
VERTEX
  8
16
 10
28.8000
 20
30.7000
 30
0.0000
  0
VERTEX
  8
16
 10
28.8000
 20
50.0000
 30
0.0000
  0
SEQEND
  8
0
  0
POLYLINE
  8
16
 66
1
 10
0.0000
 20
0.0000
 30
0.0000
 40
0.5080
 41
0.5080
 70
0
  0
VERTEX
  8
16
 10
29.0540
 20
50.0000
 30
0.0000
 42
1.0000
  0
VERTEX
  8
16
 10
28.5460
 20
50.0000
 30
0.0000
  0
SEQEND
  8
0
  0
POLYLINE
  8
16
 66
1
 10
0.0000
 20
0.0000
 30
0.0000
 40
0.5080
 41
0.5080
 70
0
  0
VERTEX
  8
16
 10
28.5460
 20
30.7000
 30
0.0000
 42
1.0000
  0
VERTEX
  8
16
 10
29.0540
 20
30.7000
 30
0.0000
  0
SEQEND
  8
0
  0
POLYLINE
  8
16
 66
1
 10
0.0000
 20
0.0000
 30
0.0000
 40
1.6510
 41
1.6510
 70
0
  0
VERTEX
  8
16
 10
63.8750
 20
42.7000
 30
0.0000
  0
VERTEX
  8
16
 10
63.8750
 20
38.4500
 30
0.0000
  0
SEQEND
  8
0
  0
POLYLINE
  8
16
 66
1
 10
0.0000
 20
0.0000
 30
0.0000
 40
0.8255
 41
0.8255
 70
0
  0
VERTEX
  8
16
 10
63.4622
 20
38.4500
 30
0.0000
 42
1.0000
  0
VERTEX
  8
16
 10
64.2878
 20
38.4500
 30
0.0000
  0
SEQEND
  8
0
  0
POLYLINE
  8
16
 66
1
 10
0.0000
 20
0.0000
 30
0.0000
 40
0.8255
 41
0.8255
 70
0
  0
VERTEX
  8
16
 10
64.2878
 20
42.7000
 30
0.0000
 42
1.0000
  0
VERTEX
  8
16
 10
63.4622
 20
42.7000
 30
0.0000
  0
SEQEND
  8
0
  0
POLYLINE
  8
16
 66
1
 10
0.0000
 20
0.0000
 30
0.0000
 40
1.6510
 41
1.6510
 70
0
  0
VERTEX
  8
16
 10
63.8750
 20
38.4500
 30
0.0000
  0
VERTEX
  8
16
 10
63.8600
 20
38.7500
 30
0.0000
  0
SEQEND
  8
0
  0
POLYLINE
  8
16
 66
1
 10
0.0000
 20
0.0000
 30
0.0000
 40
0.8255
 41
0.8255
 70
0
  0
VERTEX
  8
16
 10
64.2722
 20
38.7706
 30
0.0000
 42
1.0000
  0
VERTEX
  8
16
 10
63.4478
 20
38.7294
 30
0.0000
  0
SEQEND
  8
0
  0
POLYLINE
  8
16
 66
1
 10
0.0000
 20
0.0000
 30
0.0000
 40
0.8255
 41
0.8255
 70
0
  0
VERTEX
  8
16
 10
63.4628
 20
38.4294
 30
0.0000
 42
1.0000
  0
VERTEX
  8
16
 10
64.2872
 20
38.4706
 30
0.0000
  0
SEQEND
  8
0
  0
POLYLINE
  8
16
 66
1
 10
0.0000
 20
0.0000
 30
0.0000
 40
1.6510
 41
1.6510
 70
0
  0
VERTEX
  8
16
 10
63.8750
 20
42.7000
 30
0.0000
  0
VERTEX
  8
16
 10
63.8000
 20
43.0000
 30
0.0000
  0
SEQEND
  8
0
  0
POLYLINE
  8
16
 66
1
 10
0.0000
 20
0.0000
 30
0.0000
 40
0.8255
 41
0.8255
 70
0
  0
VERTEX
  8
16
 10
64.2004
 20
43.1001
 30
0.0000
 42
1.0000
  0
VERTEX
  8
16
 10
63.3996
 20
42.8999
 30
0.0000
  0
SEQEND
  8
0
  0
POLYLINE
  8
16
 66
1
 10
0.0000
 20
0.0000
 30
0.0000
 40
0.8255
 41
0.8255
 70
0
  0
VERTEX
  8
16
 10
63.4746
 20
42.5999
 30
0.0000
 42
1.0000
  0
VERTEX
  8
16
 10
64.2754
 20
42.8001
 30
0.0000
  0
SEQEND
  8
0
  0
POLYLINE
  8
16
 66
1
 10
0.0000
 20
0.0000
 30
0.0000
 40
1.6764
 41
1.6764
 70
0
  0
VERTEX
  8
16
 10
63.8000
 20
43.0000
 30
0.0000
  0
VERTEX
  8
16
 10
63.8000
 20
45.4000
 30
0.0000
  0
SEQEND
  8
0
  0
POLYLINE
  8
16
 66
1
 10
0.0000
 20
0.0000
 30
0.0000
 40
0.8382
 41
0.8382
 70
0
  0
VERTEX
  8
16
 10
64.2191
 20
45.4000
 30
0.0000
 42
1.0000
  0
VERTEX
  8
16
 10
63.3809
 20
45.4000
 30
0.0000
  0
SEQEND
  8
0
  0
POLYLINE
  8
16
 66
1
 10
0.0000
 20
0.0000
 30
0.0000
 40
0.8382
 41
0.8382
 70
0
  0
VERTEX
  8
16
 10
63.3809
 20
43.0000
 30
0.0000
 42
1.0000
  0
VERTEX
  8
16
 10
64.2191
 20
43.0000
 30
0.0000
  0
SEQEND
  8
0
  0
POLYLINE
  8
16
 66
1
 10
0.0000
 20
0.0000
 30
0.0000
 40
1.0160
 41
1.0160
 70
0
  0
VERTEX
  8
16
 10
4.0000
 20
29.3500
 30
0.0000
  0
VERTEX
  8
16
 10
6.3000
 20
29.3500
 30
0.0000
  0
SEQEND
  8
0
  0
POLYLINE
  8
16
 66
1
 10
0.0000
 20
0.0000
 30
0.0000
 40
0.5080
 41
0.5080
 70
0
  0
VERTEX
  8
16
 10
6.3000
 20
29.0960
 30
0.0000
 42
1.0000
  0
VERTEX
  8
16
 10
6.3000
 20
29.6040
 30
0.0000
  0
SEQEND
  8
0
  0
POLYLINE
  8
16
 66
1
 10
0.0000
 20
0.0000
 30
0.0000
 40
0.5080
 41
0.5080
 70
0
  0
VERTEX
  8
16
 10
4.0000
 20
29.6040
 30
0.0000
 42
1.0000
  0
VERTEX
  8
16
 10
4.0000
 20
29.0960
 30
0.0000
  0
SEQEND
  8
0
  0
POLYLINE
  8
16
 66
1
 10
0.0000
 20
0.0000
 30
0.0000
 40
1.0160
 41
1.0160
 70
0
  0
VERTEX
  8
16
 10
6.3000
 20
29.3500
 30
0.0000
  0
VERTEX
  8
16
 10
6.3000
 20
27.9000
 30
0.0000
  0
SEQEND
  8
0
  0
POLYLINE
  8
16
 66
1
 10
0.0000
 20
0.0000
 30
0.0000
 40
0.5080
 41
0.5080
 70
0
  0
VERTEX
  8
16
 10
6.0460
 20
27.9000
 30
0.0000
 42
1.0000
  0
VERTEX
  8
16
 10
6.5540
 20
27.9000
 30
0.0000
  0
SEQEND
  8
0
  0
POLYLINE
  8
16
 66
1
 10
0.0000
 20
0.0000
 30
0.0000
 40
0.5080
 41
0.5080
 70
0
  0
VERTEX
  8
16
 10
6.5540
 20
29.3500
 30
0.0000
 42
1.0000
  0
VERTEX
  8
16
 10
6.0460
 20
29.3500
 30
0.0000
  0
SEQEND
  8
0
  0
POLYLINE
  8
16
 66
1
 10
0.0000
 20
0.0000
 30
0.0000
 40
1.0160
 41
1.0160
 70
0
  0
VERTEX
  8
16
 10
6.3000
 20
27.9000
 30
0.0000
  0
VERTEX
  8
16
 10
31.1000
 20
27.9000
 30
0.0000
  0
SEQEND
  8
0
  0
POLYLINE
  8
16
 66
1
 10
0.0000
 20
0.0000
 30
0.0000
 40
0.5080
 41
0.5080
 70
0
  0
VERTEX
  8
16
 10
31.1000
 20
27.6460
 30
0.0000
 42
1.0000
  0
VERTEX
  8
16
 10
31.1000
 20
28.1540
 30
0.0000
  0
SEQEND
  8
0
  0
POLYLINE
  8
16
 66
1
 10
0.0000
 20
0.0000
 30
0.0000
 40
0.5080
 41
0.5080
 70
0
  0
VERTEX
  8
16
 10
6.3000
 20
28.1540
 30
0.0000
 42
1.0000
  0
VERTEX
  8
16
 10
6.3000
 20
27.6460
 30
0.0000
  0
SEQEND
  8
0
  0
POLYLINE
  8
16
 66
1
 10
0.0000
 20
0.0000
 30
0.0000
 40
1.0160
 41
1.0160
 70
0
  0
VERTEX
  8
16
 10
31.1000
 20
27.9000
 30
0.0000
  0
VERTEX
  8
16
 10
31.1000
 20
45.8000
 30
0.0000
  0
SEQEND
  8
0
  0
POLYLINE
  8
16
 66
1
 10
0.0000
 20
0.0000
 30
0.0000
 40
0.5080
 41
0.5080
 70
0
  0
VERTEX
  8
16
 10
31.3540
 20
45.8000
 30
0.0000
 42
1.0000
  0
VERTEX
  8
16
 10
30.8460
 20
45.8000
 30
0.0000
  0
SEQEND
  8
0
  0
POLYLINE
  8
16
 66
1
 10
0.0000
 20
0.0000
 30
0.0000
 40
0.5080
 41
0.5080
 70
0
  0
VERTEX
  8
16
 10
30.8460
 20
27.9000
 30
0.0000
 42
1.0000
  0
VERTEX
  8
16
 10
31.3540
 20
27.9000
 30
0.0000
  0
SEQEND
  8
0
  0
POLYLINE
  8
16
 66
1
 10
0.0000
 20
0.0000
 30
0.0000
 40
1.6510
 41
1.6510
 70
0
  0
VERTEX
  8
16
 10
51.1250
 20
43.0000
 30
0.0000
  0
VERTEX
  8
16
 10
51.1250
 20
38.7500
 30
0.0000
  0
SEQEND
  8
0
  0
POLYLINE
  8
16
 66
1
 10
0.0000
 20
0.0000
 30
0.0000
 40
0.8255
 41
0.8255
 70
0
  0
VERTEX
  8
16
 10
50.7122
 20
38.7500
 30
0.0000
 42
1.0000
  0
VERTEX
  8
16
 10
51.5378
 20
38.7500
 30
0.0000
  0
SEQEND
  8
0
  0
POLYLINE
  8
16
 66
1
 10
0.0000
 20
0.0000
 30
0.0000
 40
0.8255
 41
0.8255
 70
0
  0
VERTEX
  8
16
 10
51.5378
 20
43.0000
 30
0.0000
 42
1.0000
  0
VERTEX
  8
16
 10
50.7122
 20
43.0000
 30
0.0000
  0
SEQEND
  8
0
  0
POLYLINE
  8
16
 66
1
 10
0.0000
 20
0.0000
 30
0.0000
 40
1.6510
 41
1.6510
 70
0
  0
VERTEX
  8
16
 10
51.1250
 20
38.7500
 30
0.0000
  0
VERTEX
  8
16
 10
51.1600
 20
38.7500
 30
0.0000
  0
SEQEND
  8
0
  0
POLYLINE
  8
16
 66
1
 10
0.0000
 20
0.0000
 30
0.0000
 40
0.8255
 41
0.8255
 70
0
  0
VERTEX
  8
16
 10
51.1600
 20
38.3372
 30
0.0000
 42
1.0000
  0
VERTEX
  8
16
 10
51.1600
 20
39.1628
 30
0.0000
  0
SEQEND
  8
0
  0
POLYLINE
  8
16
 66
1
 10
0.0000
 20
0.0000
 30
0.0000
 40
0.8255
 41
0.8255
 70
0
  0
VERTEX
  8
16
 10
51.1250
 20
39.1628
 30
0.0000
 42
1.0000
  0
VERTEX
  8
16
 10
51.1250
 20
38.3372
 30
0.0000
  0
SEQEND
  8
0
  0
POLYLINE
  8
16
 66
1
 10
0.0000
 20
0.0000
 30
0.0000
 40
1.6510
 41
1.6510
 70
0
  0
VERTEX
  8
16
 10
51.1250
 20
43.0000
 30
0.0000
  0
VERTEX
  8
16
 10
51.1000
 20
43.0000
 30
0.0000
  0
SEQEND
  8
0
  0
POLYLINE
  8
16
 66
1
 10
0.0000
 20
0.0000
 30
0.0000
 40
0.8255
 41
0.8255
 70
0
  0
VERTEX
  8
16
 10
51.1000
 20
43.4128
 30
0.0000
 42
1.0000
  0
VERTEX
  8
16
 10
51.1000
 20
42.5872
 30
0.0000
  0
SEQEND
  8
0
  0
POLYLINE
  8
16
 66
1
 10
0.0000
 20
0.0000
 30
0.0000
 40
0.8255
 41
0.8255
 70
0
  0
VERTEX
  8
16
 10
51.1250
 20
42.5872
 30
0.0000
 42
1.0000
  0
VERTEX
  8
16
 10
51.1250
 20
43.4128
 30
0.0000
  0
SEQEND
  8
0
  0
POLYLINE
  8
16
 66
1
 10
0.0000
 20
0.0000
 30
0.0000
 40
1.6510
 41
1.6510
 70
0
  0
VERTEX
  8
16
 10
48.6250
 20
43.0000
 30
0.0000
  0
VERTEX
  8
16
 10
48.6250
 20
38.7500
 30
0.0000
  0
SEQEND
  8
0
  0
POLYLINE
  8
16
 66
1
 10
0.0000
 20
0.0000
 30
0.0000
 40
0.8255
 41
0.8255
 70
0
  0
VERTEX
  8
16
 10
48.2122
 20
38.7500
 30
0.0000
 42
1.0000
  0
VERTEX
  8
16
 10
49.0378
 20
38.7500
 30
0.0000
  0
SEQEND
  8
0
  0
POLYLINE
  8
16
 66
1
 10
0.0000
 20
0.0000
 30
0.0000
 40
0.8255
 41
0.8255
 70
0
  0
VERTEX
  8
16
 10
49.0378
 20
43.0000
 30
0.0000
 42
1.0000
  0
VERTEX
  8
16
 10
48.2122
 20
43.0000
 30
0.0000
  0
SEQEND
  8
0
  0
POLYLINE
  8
16
 66
1
 10
0.0000
 20
0.0000
 30
0.0000
 40
1.6510
 41
1.6510
 70
0
  0
VERTEX
  8
16
 10
48.6250
 20
38.7500
 30
0.0000
  0
VERTEX
  8
16
 10
48.6200
 20
38.7500
 30
0.0000
  0
SEQEND
  8
0
  0
POLYLINE
  8
16
 66
1
 10
0.0000
 20
0.0000
 30
0.0000
 40
0.8255
 41
0.8255
 70
0
  0
VERTEX
  8
16
 10
48.6200
 20
39.1628
 30
0.0000
 42
1.0000
  0
VERTEX
  8
16
 10
48.6200
 20
38.3372
 30
0.0000
  0
SEQEND
  8
0
  0
POLYLINE
  8
16
 66
1
 10
0.0000
 20
0.0000
 30
0.0000
 40
0.8255
 41
0.8255
 70
0
  0
VERTEX
  8
16
 10
48.6250
 20
38.3372
 30
0.0000
 42
1.0000
  0
VERTEX
  8
16
 10
48.6250
 20
39.1628
 30
0.0000
  0
SEQEND
  8
0
  0
POLYLINE
  8
16
 66
1
 10
0.0000
 20
0.0000
 30
0.0000
 40
1.6510
 41
1.6510
 70
0
  0
VERTEX
  8
16
 10
48.6250
 20
43.0000
 30
0.0000
  0
VERTEX
  8
16
 10
48.5600
 20
43.0000
 30
0.0000
  0
SEQEND
  8
0
  0
POLYLINE
  8
16
 66
1
 10
0.0000
 20
0.0000
 30
0.0000
 40
0.8255
 41
0.8255
 70
0
  0
VERTEX
  8
16
 10
48.5600
 20
43.4128
 30
0.0000
 42
1.0000
  0
VERTEX
  8
16
 10
48.5600
 20
42.5872
 30
0.0000
  0
SEQEND
  8
0
  0
POLYLINE
  8
16
 66
1
 10
0.0000
 20
0.0000
 30
0.0000
 40
0.8255
 41
0.8255
 70
0
  0
VERTEX
  8
16
 10
48.6250
 20
42.5872
 30
0.0000
 42
1.0000
  0
VERTEX
  8
16
 10
48.6250
 20
43.4128
 30
0.0000
  0
SEQEND
  8
0
  0
POLYLINE
  8
16
 66
1
 10
0.0000
 20
0.0000
 30
0.0000
 40
1.6510
 41
1.6510
 70
0
  0
VERTEX
  8
16
 10
46.1250
 20
43.0000
 30
0.0000
  0
VERTEX
  8
16
 10
46.1250
 20
38.7500
 30
0.0000
  0
SEQEND
  8
0
  0
POLYLINE
  8
16
 66
1
 10
0.0000
 20
0.0000
 30
0.0000
 40
0.8255
 41
0.8255
 70
0
  0
VERTEX
  8
16
 10
45.7122
 20
38.7500
 30
0.0000
 42
1.0000
  0
VERTEX
  8
16
 10
46.5378
 20
38.7500
 30
0.0000
  0
SEQEND
  8
0
  0
POLYLINE
  8
16
 66
1
 10
0.0000
 20
0.0000
 30
0.0000
 40
0.8255
 41
0.8255
 70
0
  0
VERTEX
  8
16
 10
46.5378
 20
43.0000
 30
0.0000
 42
1.0000
  0
VERTEX
  8
16
 10
45.7122
 20
43.0000
 30
0.0000
  0
SEQEND
  8
0
  0
POLYLINE
  8
16
 66
1
 10
0.0000
 20
0.0000
 30
0.0000
 40
1.6510
 41
1.6510
 70
0
  0
VERTEX
  8
16
 10
46.1250
 20
38.7500
 30
0.0000
  0
VERTEX
  8
16
 10
46.0800
 20
38.7500
 30
0.0000
  0
SEQEND
  8
0
  0
POLYLINE
  8
16
 66
1
 10
0.0000
 20
0.0000
 30
0.0000
 40
0.8255
 41
0.8255
 70
0
  0
VERTEX
  8
16
 10
46.0800
 20
39.1628
 30
0.0000
 42
1.0000
  0
VERTEX
  8
16
 10
46.0800
 20
38.3372
 30
0.0000
  0
SEQEND
  8
0
  0
POLYLINE
  8
16
 66
1
 10
0.0000
 20
0.0000
 30
0.0000
 40
0.8255
 41
0.8255
 70
0
  0
VERTEX
  8
16
 10
46.1250
 20
38.3372
 30
0.0000
 42
1.0000
  0
VERTEX
  8
16
 10
46.1250
 20
39.1628
 30
0.0000
  0
SEQEND
  8
0
  0
POLYLINE
  8
16
 66
1
 10
0.0000
 20
0.0000
 30
0.0000
 40
1.6510
 41
1.6510
 70
0
  0
VERTEX
  8
16
 10
46.1250
 20
43.0000
 30
0.0000
  0
VERTEX
  8
16
 10
46.0200
 20
43.0000
 30
0.0000
  0
SEQEND
  8
0
  0
POLYLINE
  8
16
 66
1
 10
0.0000
 20
0.0000
 30
0.0000
 40
0.8255
 41
0.8255
 70
0
  0
VERTEX
  8
16
 10
46.0200
 20
43.4128
 30
0.0000
 42
1.0000
  0
VERTEX
  8
16
 10
46.0200
 20
42.5872
 30
0.0000
  0
SEQEND
  8
0
  0
POLYLINE
  8
16
 66
1
 10
0.0000
 20
0.0000
 30
0.0000
 40
0.8255
 41
0.8255
 70
0
  0
VERTEX
  8
16
 10
46.1250
 20
42.5872
 30
0.0000
 42
1.0000
  0
VERTEX
  8
16
 10
46.1250
 20
43.4128
 30
0.0000
  0
SEQEND
  8
0
  0
POLYLINE
  8
16
 66
1
 10
0.0000
 20
0.0000
 30
0.0000
 40
1.2700
 41
1.2700
 70
0
  0
VERTEX
  8
16
 10
86.3500
 20
47.2800
 30
0.0000
  0
VERTEX
  8
16
 10
90.1000
 20
47.2800
 30
0.0000
  0
SEQEND
  8
0
  0
POLYLINE
  8
16
 66
1
 10
0.0000
 20
0.0000
 30
0.0000
 40
0.6350
 41
0.6350
 70
0
  0
VERTEX
  8
16
 10
90.1000
 20
46.9625
 30
0.0000
 42
1.0000
  0
VERTEX
  8
16
 10
90.1000
 20
47.5975
 30
0.0000
  0
SEQEND
  8
0
  0
POLYLINE
  8
16
 66
1
 10
0.0000
 20
0.0000
 30
0.0000
 40
0.6350
 41
0.6350
 70
0
  0
VERTEX
  8
16
 10
86.3500
 20
47.5975
 30
0.0000
 42
1.0000
  0
VERTEX
  8
16
 10
86.3500
 20
46.9625
 30
0.0000
  0
SEQEND
  8
0
  0
POLYLINE
  8
16
 66
1
 10
0.0000
 20
0.0000
 30
0.0000
 40
1.2700
 41
1.2700
 70
0
  0
VERTEX
  8
16
 10
90.1000
 20
47.2800
 30
0.0000
  0
VERTEX
  8
16
 10
90.1000
 20
38.5000
 30
0.0000
  0
SEQEND
  8
0
  0
POLYLINE
  8
16
 66
1
 10
0.0000
 20
0.0000
 30
0.0000
 40
0.6350
 41
0.6350
 70
0
  0
VERTEX
  8
16
 10
89.7825
 20
38.5000
 30
0.0000
 42
1.0000
  0
VERTEX
  8
16
 10
90.4175
 20
38.5000
 30
0.0000
  0
SEQEND
  8
0
  0
POLYLINE
  8
16
 66
1
 10
0.0000
 20
0.0000
 30
0.0000
 40
0.6350
 41
0.6350
 70
0
  0
VERTEX
  8
16
 10
90.4175
 20
47.2800
 30
0.0000
 42
1.0000
  0
VERTEX
  8
16
 10
89.7825
 20
47.2800
 30
0.0000
  0
SEQEND
  8
0
  0
POLYLINE
  8
16
 66
1
 10
0.0000
 20
0.0000
 30
0.0000
 40
1.2700
 41
1.2700
 70
0
  0
VERTEX
  8
16
 10
90.1000
 20
38.5000
 30
0.0000
  0
VERTEX
  8
16
 10
91.0000
 20
38.5000
 30
0.0000
  0
SEQEND
  8
0
  0
POLYLINE
  8
16
 66
1
 10
0.0000
 20
0.0000
 30
0.0000
 40
0.6350
 41
0.6350
 70
0
  0
VERTEX
  8
16
 10
91.0000
 20
38.1825
 30
0.0000
 42
1.0000
  0
VERTEX
  8
16
 10
91.0000
 20
38.8175
 30
0.0000
  0
SEQEND
  8
0
  0
POLYLINE
  8
16
 66
1
 10
0.0000
 20
0.0000
 30
0.0000
 40
0.6350
 41
0.6350
 70
0
  0
VERTEX
  8
16
 10
90.1000
 20
38.8175
 30
0.0000
 42
1.0000
  0
VERTEX
  8
16
 10
90.1000
 20
38.1825
 30
0.0000
  0
SEQEND
  8
0
  0
POLYLINE
  8
16
 66
1
 10
0.0000
 20
0.0000
 30
0.0000
 40
1.2700
 41
1.2700
 70
0
  0
VERTEX
  8
16
 10
91.0000
 20
38.5000
 30
0.0000
  0
VERTEX
  8
16
 10
91.0000
 20
35.0000
 30
0.0000
  0
SEQEND
  8
0
  0
POLYLINE
  8
16
 66
1
 10
0.0000
 20
0.0000
 30
0.0000
 40
0.6350
 41
0.6350
 70
0
  0
VERTEX
  8
16
 10
90.6825
 20
35.0000
 30
0.0000
 42
1.0000
  0
VERTEX
  8
16
 10
91.3175
 20
35.0000
 30
0.0000
  0
SEQEND
  8
0
  0
POLYLINE
  8
16
 66
1
 10
0.0000
 20
0.0000
 30
0.0000
 40
0.6350
 41
0.6350
 70
0
  0
VERTEX
  8
16
 10
91.3175
 20
38.5000
 30
0.0000
 42
1.0000
  0
VERTEX
  8
16
 10
90.6825
 20
38.5000
 30
0.0000
  0
SEQEND
  8
0
  0
POLYLINE
  8
16
 66
1
 10
0.0000
 20
0.0000
 30
0.0000
 40
1.2700
 41
1.2700
 70
0
  0
VERTEX
  8
16
 10
91.0000
 20
35.0000
 30
0.0000
  0
VERTEX
  8
16
 10
92.7000
 20
35.0000
 30
0.0000
  0
SEQEND
  8
0
  0
POLYLINE
  8
16
 66
1
 10
0.0000
 20
0.0000
 30
0.0000
 40
0.6350
 41
0.6350
 70
0
  0
VERTEX
  8
16
 10
92.7000
 20
34.6825
 30
0.0000
 42
1.0000
  0
VERTEX
  8
16
 10
92.7000
 20
35.3175
 30
0.0000
  0
SEQEND
  8
0
  0
POLYLINE
  8
16
 66
1
 10
0.0000
 20
0.0000
 30
0.0000
 40
0.6350
 41
0.6350
 70
0
  0
VERTEX
  8
16
 10
91.0000
 20
35.3175
 30
0.0000
 42
1.0000
  0
VERTEX
  8
16
 10
91.0000
 20
34.6825
 30
0.0000
  0
SEQEND
  8
0
  0
POLYLINE
  8
16
 66
1
 10
0.0000
 20
0.0000
 30
0.0000
 40
1.2700
 41
1.2700
 70
0
  0
VERTEX
  8
16
 10
92.7000
 20
35.0000
 30
0.0000
  0
VERTEX
  8
16
 10
92.7000
 20
35.0400
 30
0.0000
  0
SEQEND
  8
0
  0
POLYLINE
  8
16
 66
1
 10
0.0000
 20
0.0000
 30
0.0000
 40
0.6350
 41
0.6350
 70
0
  0
VERTEX
  8
16
 10
93.0175
 20
35.0400
 30
0.0000
 42
1.0000
  0
VERTEX
  8
16
 10
92.3825
 20
35.0400
 30
0.0000
  0
SEQEND
  8
0
  0
POLYLINE
  8
16
 66
1
 10
0.0000
 20
0.0000
 30
0.0000
 40
0.6350
 41
0.6350
 70
0
  0
VERTEX
  8
16
 10
92.3825
 20
35.0000
 30
0.0000
 42
1.0000
  0
VERTEX
  8
16
 10
93.0175
 20
35.0000
 30
0.0000
  0
SEQEND
  8
0
  0
POLYLINE
  8
16
 66
1
 10
0.0000
 20
0.0000
 30
0.0000
 40
1.4224
 41
1.4224
 70
0
  0
VERTEX
  8
16
 10
92.7000
 20
35.0400
 30
0.0000
  0
VERTEX
  8
16
 10
95.2000
 20
35.0400
 30
0.0000
  0
SEQEND
  8
0
  0
POLYLINE
  8
16
 66
1
 10
0.0000
 20
0.0000
 30
0.0000
 40
0.7112
 41
0.7112
 70
0
  0
VERTEX
  8
16
 10
95.2000
 20
34.6844
 30
0.0000
 42
1.0000
  0
VERTEX
  8
16
 10
95.2000
 20
35.3956
 30
0.0000
  0
SEQEND
  8
0
  0
POLYLINE
  8
16
 66
1
 10
0.0000
 20
0.0000
 30
0.0000
 40
0.7112
 41
0.7112
 70
0
  0
VERTEX
  8
16
 10
92.7000
 20
35.3956
 30
0.0000
 42
1.0000
  0
VERTEX
  8
16
 10
92.7000
 20
34.6844
 30
0.0000
  0
SEQEND
  8
0
  0
POLYLINE
  8
16
 66
1
 10
0.0000
 20
0.0000
 30
0.0000
 40
1.4224
 41
1.4224
 70
0
  0
VERTEX
  8
16
 10
95.2000
 20
35.0400
 30
0.0000
  0
VERTEX
  8
16
 10
95.2000
 20
14.2300
 30
0.0000
  0
SEQEND
  8
0
  0
POLYLINE
  8
16
 66
1
 10
0.0000
 20
0.0000
 30
0.0000
 40
0.7112
 41
0.7112
 70
0
  0
VERTEX
  8
16
 10
94.8444
 20
14.2300
 30
0.0000
 42
1.0000
  0
VERTEX
  8
16
 10
95.5556
 20
14.2300
 30
0.0000
  0
SEQEND
  8
0
  0
POLYLINE
  8
16
 66
1
 10
0.0000
 20
0.0000
 30
0.0000
 40
0.7112
 41
0.7112
 70
0
  0
VERTEX
  8
16
 10
95.5556
 20
35.0400
 30
0.0000
 42
1.0000
  0
VERTEX
  8
16
 10
94.8444
 20
35.0400
 30
0.0000
  0
SEQEND
  8
0
  0
POLYLINE
  8
16
 66
1
 10
0.0000
 20
0.0000
 30
0.0000
 40
1.4224
 41
1.4224
 70
0
  0
VERTEX
  8
16
 10
92.8100
 20
14.2300
 30
0.0000
  0
VERTEX
  8
16
 10
95.2000
 20
14.2300
 30
0.0000
  0
SEQEND
  8
0
  0
POLYLINE
  8
16
 66
1
 10
0.0000
 20
0.0000
 30
0.0000
 40
0.7112
 41
0.7112
 70
0
  0
VERTEX
  8
16
 10
95.2000
 20
13.8744
 30
0.0000
 42
1.0000
  0
VERTEX
  8
16
 10
95.2000
 20
14.5856
 30
0.0000
  0
SEQEND
  8
0
  0
POLYLINE
  8
16
 66
1
 10
0.0000
 20
0.0000
 30
0.0000
 40
0.7112
 41
0.7112
 70
0
  0
VERTEX
  8
16
 10
92.8100
 20
14.5856
 30
0.0000
 42
1.0000
  0
VERTEX
  8
16
 10
92.8100
 20
13.8744
 30
0.0000
  0
SEQEND
  8
0
  0
POLYLINE
  8
16
 66
1
 10
0.0000
 20
0.0000
 30
0.0000
 40
1.4224
 41
1.4224
 70
0
  0
VERTEX
  8
16
 10
95.2000
 20
14.2300
 30
0.0000
  0
VERTEX
  8
16
 10
95.2000
 20
14.2000
 30
0.0000
  0
SEQEND
  8
0
  0
POLYLINE
  8
16
 66
1
 10
0.0000
 20
0.0000
 30
0.0000
 40
0.7112
 41
0.7112
 70
0
  0
VERTEX
  8
16
 10
94.8444
 20
14.2000
 30
0.0000
 42
1.0000
  0
VERTEX
  8
16
 10
95.5556
 20
14.2000
 30
0.0000
  0
SEQEND
  8
0
  0
POLYLINE
  8
16
 66
1
 10
0.0000
 20
0.0000
 30
0.0000
 40
0.7112
 41
0.7112
 70
0
  0
VERTEX
  8
16
 10
95.5556
 20
14.2300
 30
0.0000
 42
1.0000
  0
VERTEX
  8
16
 10
94.8444
 20
14.2300
 30
0.0000
  0
SEQEND
  8
0
  0
POLYLINE
  8
16
 66
1
 10
0.0000
 20
0.0000
 30
0.0000
 40
1.4224
 41
1.4224
 70
0
  0
VERTEX
  8
16
 10
76.5600
 20
38.7500
 30
0.0000
  0
VERTEX
  8
16
 10
76.5000
 20
38.7500
 30
0.0000
  0
SEQEND
  8
0
  0
POLYLINE
  8
16
 66
1
 10
0.0000
 20
0.0000
 30
0.0000
 40
0.7112
 41
0.7112
 70
0
  0
VERTEX
  8
16
 10
76.5000
 20
39.1056
 30
0.0000
 42
1.0000
  0
VERTEX
  8
16
 10
76.5000
 20
38.3944
 30
0.0000
  0
SEQEND
  8
0
  0
POLYLINE
  8
16
 66
1
 10
0.0000
 20
0.0000
 30
0.0000
 40
0.7112
 41
0.7112
 70
0
  0
VERTEX
  8
16
 10
76.5600
 20
38.3944
 30
0.0000
 42
1.0000
  0
VERTEX
  8
16
 10
76.5600
 20
39.1056
 30
0.0000
  0
SEQEND
  8
0
  0
POLYLINE
  8
16
 66
1
 10
0.0000
 20
0.0000
 30
0.0000
 40
1.4224
 41
1.4224
 70
0
  0
VERTEX
  8
16
 10
76.5000
 20
38.7500
 30
0.0000
  0
VERTEX
  8
16
 10
76.5000
 20
43.0000
 30
0.0000
  0
SEQEND
  8
0
  0
POLYLINE
  8
16
 66
1
 10
0.0000
 20
0.0000
 30
0.0000
 40
0.7112
 41
0.7112
 70
0
  0
VERTEX
  8
16
 10
76.8556
 20
43.0000
 30
0.0000
 42
1.0000
  0
VERTEX
  8
16
 10
76.1444
 20
43.0000
 30
0.0000
  0
SEQEND
  8
0
  0
POLYLINE
  8
16
 66
1
 10
0.0000
 20
0.0000
 30
0.0000
 40
0.7112
 41
0.7112
 70
0
  0
VERTEX
  8
16
 10
76.1444
 20
38.7500
 30
0.0000
 42
1.0000
  0
VERTEX
  8
16
 10
76.8556
 20
38.7500
 30
0.0000
  0
SEQEND
  8
0
  0
POLYLINE
  8
16
 66
1
 10
0.0000
 20
0.0000
 30
0.0000
 40
1.4224
 41
1.4224
 70
0
  0
VERTEX
  8
16
 10
76.5000
 20
43.0000
 30
0.0000
  0
VERTEX
  8
16
 10
76.5000
 20
50.8000
 30
0.0000
  0
SEQEND
  8
0
  0
POLYLINE
  8
16
 66
1
 10
0.0000
 20
0.0000
 30
0.0000
 40
0.7112
 41
0.7112
 70
0
  0
VERTEX
  8
16
 10
76.8556
 20
50.8000
 30
0.0000
 42
1.0000
  0
VERTEX
  8
16
 10
76.1444
 20
50.8000
 30
0.0000
  0
SEQEND
  8
0
  0
POLYLINE
  8
16
 66
1
 10
0.0000
 20
0.0000
 30
0.0000
 40
0.7112
 41
0.7112
 70
0
  0
VERTEX
  8
16
 10
76.1444
 20
43.0000
 30
0.0000
 42
1.0000
  0
VERTEX
  8
16
 10
76.8556
 20
43.0000
 30
0.0000
  0
SEQEND
  8
0
  0
POLYLINE
  8
16
 66
1
 10
0.0000
 20
0.0000
 30
0.0000
 40
1.4224
 41
1.4224
 70
0
  0
VERTEX
  8
16
 10
86.3000
 20
50.8000
 30
0.0000
  0
VERTEX
  8
16
 10
86.3000
 20
51.0000
 30
0.0000
  0
SEQEND
  8
0
  0
POLYLINE
  8
16
 66
1
 10
0.0000
 20
0.0000
 30
0.0000
 40
0.7112
 41
0.7112
 70
0
  0
VERTEX
  8
16
 10
86.6556
 20
51.0000
 30
0.0000
 42
1.0000
  0
VERTEX
  8
16
 10
85.9444
 20
51.0000
 30
0.0000
  0
SEQEND
  8
0
  0
POLYLINE
  8
16
 66
1
 10
0.0000
 20
0.0000
 30
0.0000
 40
0.7112
 41
0.7112
 70
0
  0
VERTEX
  8
16
 10
85.9444
 20
50.8000
 30
0.0000
 42
1.0000
  0
VERTEX
  8
16
 10
86.6556
 20
50.8000
 30
0.0000
  0
SEQEND
  8
0
  0
POLYLINE
  8
16
 66
1
 10
0.0000
 20
0.0000
 30
0.0000
 40
1.4224
 41
1.4224
 70
0
  0
VERTEX
  8
16
 10
86.3000
 20
51.0000
 30
0.0000
  0
VERTEX
  8
16
 10
86.3500
 20
51.0000
 30
0.0000
  0
SEQEND
  8
0
  0
POLYLINE
  8
16
 66
1
 10
0.0000
 20
0.0000
 30
0.0000
 40
0.7112
 41
0.7112
 70
0
  0
VERTEX
  8
16
 10
86.3500
 20
50.6444
 30
0.0000
 42
1.0000
  0
VERTEX
  8
16
 10
86.3500
 20
51.3556
 30
0.0000
  0
SEQEND
  8
0
  0
POLYLINE
  8
16
 66
1
 10
0.0000
 20
0.0000
 30
0.0000
 40
0.7112
 41
0.7112
 70
0
  0
VERTEX
  8
16
 10
86.3000
 20
51.3556
 30
0.0000
 42
1.0000
  0
VERTEX
  8
16
 10
86.3000
 20
50.6444
 30
0.0000
  0
SEQEND
  8
0
  0
POLYLINE
  8
16
 66
1
 10
0.0000
 20
0.0000
 30
0.0000
 40
1.4224
 41
1.4224
 70
0
  0
VERTEX
  8
16
 10
86.3500
 20
51.0000
 30
0.0000
  0
VERTEX
  8
16
 10
86.3500
 20
47.2800
 30
0.0000
  0
SEQEND
  8
0
  0
POLYLINE
  8
16
 66
1
 10
0.0000
 20
0.0000
 30
0.0000
 40
0.7112
 41
0.7112
 70
0
  0
VERTEX
  8
16
 10
85.9944
 20
47.2800
 30
0.0000
 42
1.0000
  0
VERTEX
  8
16
 10
86.7056
 20
47.2800
 30
0.0000
  0
SEQEND
  8
0
  0
POLYLINE
  8
16
 66
1
 10
0.0000
 20
0.0000
 30
0.0000
 40
0.7112
 41
0.7112
 70
0
  0
VERTEX
  8
16
 10
86.7056
 20
51.0000
 30
0.0000
 42
1.0000
  0
VERTEX
  8
16
 10
85.9944
 20
51.0000
 30
0.0000
  0
SEQEND
  8
0
  0
CIRCLE
  8
44
 10
76.5000
 20
50.8000
 30
0.0000
 40
0.3000
  0
CIRCLE
  8
44
 10
86.3000
 20
50.8000
 30
0.0000
 40
0.3000
  0
POLYLINE
  8
16
 66
1
 10
0.0000
 20
0.0000
 30
0.0000
 40
1.4224
 41
1.4224
 70
0
  0
VERTEX
  8
16
 10
90.2700
 20
14.2300
 30
0.0000
  0
VERTEX
  8
16
 10
90.3000
 20
14.2300
 30
0.0000
  0
SEQEND
  8
0
  0
POLYLINE
  8
16
 66
1
 10
0.0000
 20
0.0000
 30
0.0000
 40
0.7112
 41
0.7112
 70
0
  0
VERTEX
  8
16
 10
90.3000
 20
13.8744
 30
0.0000
 42
1.0000
  0
VERTEX
  8
16
 10
90.3000
 20
14.5856
 30
0.0000
  0
SEQEND
  8
0
  0
POLYLINE
  8
16
 66
1
 10
0.0000
 20
0.0000
 30
0.0000
 40
0.7112
 41
0.7112
 70
0
  0
VERTEX
  8
16
 10
90.2700
 20
14.5856
 30
0.0000
 42
1.0000
  0
VERTEX
  8
16
 10
90.2700
 20
13.8744
 30
0.0000
  0
SEQEND
  8
0
  0
POLYLINE
  8
16
 66
1
 10
0.0000
 20
0.0000
 30
0.0000
 40
1.4224
 41
1.4224
 70
0
  0
VERTEX
  8
16
 10
90.3000
 20
14.2300
 30
0.0000
  0
VERTEX
  8
16
 10
90.3000
 20
11.6000
 30
0.0000
  0
SEQEND
  8
0
  0
POLYLINE
  8
16
 66
1
 10
0.0000
 20
0.0000
 30
0.0000
 40
0.7112
 41
0.7112
 70
0
  0
VERTEX
  8
16
 10
89.9444
 20
11.6000
 30
0.0000
 42
1.0000
  0
VERTEX
  8
16
 10
90.6556
 20
11.6000
 30
0.0000
  0
SEQEND
  8
0
  0
POLYLINE
  8
16
 66
1
 10
0.0000
 20
0.0000
 30
0.0000
 40
0.7112
 41
0.7112
 70
0
  0
VERTEX
  8
16
 10
90.6556
 20
14.2300
 30
0.0000
 42
1.0000
  0
VERTEX
  8
16
 10
89.9444
 20
14.2300
 30
0.0000
  0
SEQEND
  8
0
  0
POLYLINE
  8
16
 66
1
 10
0.0000
 20
0.0000
 30
0.0000
 40
1.4224
 41
1.4224
 70
0
  0
VERTEX
  8
16
 10
90.3000
 20
11.6000
 30
0.0000
  0
VERTEX
  8
16
 10
97.6000
 20
11.6000
 30
0.0000
  0
SEQEND
  8
0
  0
POLYLINE
  8
16
 66
1
 10
0.0000
 20
0.0000
 30
0.0000
 40
0.7112
 41
0.7112
 70
0
  0
VERTEX
  8
16
 10
97.6000
 20
11.2444
 30
0.0000
 42
1.0000
  0
VERTEX
  8
16
 10
97.6000
 20
11.9556
 30
0.0000
  0
SEQEND
  8
0
  0
POLYLINE
  8
16
 66
1
 10
0.0000
 20
0.0000
 30
0.0000
 40
0.7112
 41
0.7112
 70
0
  0
VERTEX
  8
16
 10
90.3000
 20
11.9556
 30
0.0000
 42
1.0000
  0
VERTEX
  8
16
 10
90.3000
 20
11.2444
 30
0.0000
  0
SEQEND
  8
0
  0
POLYLINE
  8
16
 66
1
 10
0.0000
 20
0.0000
 30
0.0000
 40
1.4224
 41
1.4224
 70
0
  0
VERTEX
  8
16
 10
97.6000
 20
11.6000
 30
0.0000
  0
VERTEX
  8
16
 10
97.6000
 20
23.6000
 30
0.0000
  0
SEQEND
  8
0
  0
POLYLINE
  8
16
 66
1
 10
0.0000
 20
0.0000
 30
0.0000
 40
0.7112
 41
0.7112
 70
0
  0
VERTEX
  8
16
 10
97.9556
 20
23.6000
 30
0.0000
 42
1.0000
  0
VERTEX
  8
16
 10
97.2444
 20
23.6000
 30
0.0000
  0
SEQEND
  8
0
  0
POLYLINE
  8
16
 66
1
 10
0.0000
 20
0.0000
 30
0.0000
 40
0.7112
 41
0.7112
 70
0
  0
VERTEX
  8
16
 10
97.2444
 20
11.6000
 30
0.0000
 42
1.0000
  0
VERTEX
  8
16
 10
97.9556
 20
11.6000
 30
0.0000
  0
SEQEND
  8
0
  0
POLYLINE
  8
16
 66
1
 10
0.0000
 20
0.0000
 30
0.0000
 40
1.6764
 41
1.6764
 70
0
  0
VERTEX
  8
16
 10
53.7000
 20
31.1300
 30
0.0000
  0
VERTEX
  8
16
 10
53.5000
 20
31.1300
 30
0.0000
  0
SEQEND
  8
0
  0
POLYLINE
  8
16
 66
1
 10
0.0000
 20
0.0000
 30
0.0000
 40
0.8382
 41
0.8382
 70
0
  0
VERTEX
  8
16
 10
53.5000
 20
31.5491
 30
0.0000
 42
1.0000
  0
VERTEX
  8
16
 10
53.5000
 20
30.7109
 30
0.0000
  0
SEQEND
  8
0
  0
POLYLINE
  8
16
 66
1
 10
0.0000
 20
0.0000
 30
0.0000
 40
0.8382
 41
0.8382
 70
0
  0
VERTEX
  8
16
 10
53.7000
 20
30.7109
 30
0.0000
 42
1.0000
  0
VERTEX
  8
16
 10
53.7000
 20
31.5491
 30
0.0000
  0
SEQEND
  8
0
  0
POLYLINE
  8
16
 66
1
 10
0.0000
 20
0.0000
 30
0.0000
 40
1.6764
 41
1.6764
 70
0
  0
VERTEX
  8
16
 10
53.5000
 20
31.1300
 30
0.0000
  0
VERTEX
  8
16
 10
53.5000
 20
23.8000
 30
0.0000
  0
SEQEND
  8
0
  0
POLYLINE
  8
16
 66
1
 10
0.0000
 20
0.0000
 30
0.0000
 40
0.8382
 41
0.8382
 70
0
  0
VERTEX
  8
16
 10
53.0809
 20
23.8000
 30
0.0000
 42
1.0000
  0
VERTEX
  8
16
 10
53.9191
 20
23.8000
 30
0.0000
  0
SEQEND
  8
0
  0
POLYLINE
  8
16
 66
1
 10
0.0000
 20
0.0000
 30
0.0000
 40
0.8382
 41
0.8382
 70
0
  0
VERTEX
  8
16
 10
53.9191
 20
31.1300
 30
0.0000
 42
1.0000
  0
VERTEX
  8
16
 10
53.0809
 20
31.1300
 30
0.0000
  0
SEQEND
  8
0
  0
POLYLINE
  8
16
 66
1
 10
0.0000
 20
0.0000
 30
0.0000
 40
1.4224
 41
1.4224
 70
0
  0
VERTEX
  8
16
 10
78.7870
 20
66.1300
 30
0.0000
  0
VERTEX
  8
16
 10
78.9000
 20
66.1300
 30
0.0000
  0
SEQEND
  8
0
  0
POLYLINE
  8
16
 66
1
 10
0.0000
 20
0.0000
 30
0.0000
 40
0.7112
 41
0.7112
 70
0
  0
VERTEX
  8
16
 10
78.9000
 20
65.7744
 30
0.0000
 42
1.0000
  0
VERTEX
  8
16
 10
78.9000
 20
66.4856
 30
0.0000
  0
SEQEND
  8
0
  0
POLYLINE
  8
16
 66
1
 10
0.0000
 20
0.0000
 30
0.0000
 40
0.7112
 41
0.7112
 70
0
  0
VERTEX
  8
16
 10
78.7870
 20
66.4856
 30
0.0000
 42
1.0000
  0
VERTEX
  8
16
 10
78.7870
 20
65.7744
 30
0.0000
  0
SEQEND
  8
0
  0
POLYLINE
  8
16
 66
1
 10
0.0000
 20
0.0000
 30
0.0000
 40
1.4224
 41
1.4224
 70
0
  0
VERTEX
  8
16
 10
78.9000
 20
66.1300
 30
0.0000
  0
VERTEX
  8
16
 10
78.9000
 20
68.2000
 30
0.0000
  0
SEQEND
  8
0
  0
POLYLINE
  8
16
 66
1
 10
0.0000
 20
0.0000
 30
0.0000
 40
0.7112
 41
0.7112
 70
0
  0
VERTEX
  8
16
 10
79.2556
 20
68.2000
 30
0.0000
 42
1.0000
  0
VERTEX
  8
16
 10
78.5444
 20
68.2000
 30
0.0000
  0
SEQEND
  8
0
  0
POLYLINE
  8
16
 66
1
 10
0.0000
 20
0.0000
 30
0.0000
 40
0.7112
 41
0.7112
 70
0
  0
VERTEX
  8
16
 10
78.5444
 20
66.1300
 30
0.0000
 42
1.0000
  0
VERTEX
  8
16
 10
79.2556
 20
66.1300
 30
0.0000
  0
SEQEND
  8
0
  0
POLYLINE
  8
16
 66
1
 10
0.0000
 20
0.0000
 30
0.0000
 40
1.4224
 41
1.4224
 70
0
  0
VERTEX
  8
16
 10
4.0000
 20
39.5100
 30
0.0000
  0
VERTEX
  8
16
 10
15.5000
 20
39.5100
 30
0.0000
  0
SEQEND
  8
0
  0
POLYLINE
  8
16
 66
1
 10
0.0000
 20
0.0000
 30
0.0000
 40
0.7112
 41
0.7112
 70
0
  0
VERTEX
  8
16
 10
15.5000
 20
39.1544
 30
0.0000
 42
1.0000
  0
VERTEX
  8
16
 10
15.5000
 20
39.8656
 30
0.0000
  0
SEQEND
  8
0
  0
POLYLINE
  8
16
 66
1
 10
0.0000
 20
0.0000
 30
0.0000
 40
0.7112
 41
0.7112
 70
0
  0
VERTEX
  8
16
 10
4.0000
 20
39.8656
 30
0.0000
 42
1.0000
  0
VERTEX
  8
16
 10
4.0000
 20
39.1544
 30
0.0000
  0
SEQEND
  8
0
  0
POLYLINE
  8
16
 66
1
 10
0.0000
 20
0.0000
 30
0.0000
 40
1.4224
 41
1.4224
 70
0
  0
VERTEX
  8
16
 10
15.5000
 20
39.5100
 30
0.0000
  0
VERTEX
  8
16
 10
15.5000
 20
39.7000
 30
0.0000
  0
SEQEND
  8
0
  0
POLYLINE
  8
16
 66
1
 10
0.0000
 20
0.0000
 30
0.0000
 40
0.7112
 41
0.7112
 70
0
  0
VERTEX
  8
16
 10
15.8556
 20
39.7000
 30
0.0000
 42
1.0000
  0
VERTEX
  8
16
 10
15.1444
 20
39.7000
 30
0.0000
  0
SEQEND
  8
0
  0
POLYLINE
  8
16
 66
1
 10
0.0000
 20
0.0000
 30
0.0000
 40
0.7112
 41
0.7112
 70
0
  0
VERTEX
  8
16
 10
15.1444
 20
39.5100
 30
0.0000
 42
1.0000
  0
VERTEX
  8
16
 10
15.8556
 20
39.5100
 30
0.0000
  0
SEQEND
  8
0
  0
POLYLINE
  8
16
 66
1
 10
0.0000
 20
0.0000
 30
0.0000
 40
1.4224
 41
1.4224
 70
0
  0
VERTEX
  8
16
 10
15.5000
 20
39.7000
 30
0.0000
  0
VERTEX
  8
16
 10
15.8000
 20
39.7000
 30
0.0000
  0
SEQEND
  8
0
  0
POLYLINE
  8
16
 66
1
 10
0.0000
 20
0.0000
 30
0.0000
 40
0.7112
 41
0.7112
 70
0
  0
VERTEX
  8
16
 10
15.8000
 20
39.3444
 30
0.0000
 42
1.0000
  0
VERTEX
  8
16
 10
15.8000
 20
40.0556
 30
0.0000
  0
SEQEND
  8
0
  0
POLYLINE
  8
16
 66
1
 10
0.0000
 20
0.0000
 30
0.0000
 40
0.7112
 41
0.7112
 70
0
  0
VERTEX
  8
16
 10
15.5000
 20
40.0556
 30
0.0000
 42
1.0000
  0
VERTEX
  8
16
 10
15.5000
 20
39.3444
 30
0.0000
  0
SEQEND
  8
0
  0
POLYLINE
  8
16
 66
1
 10
0.0000
 20
0.0000
 30
0.0000
 40
1.4224
 41
1.4224
 70
0
  0
VERTEX
  8
16
 10
15.8000
 20
39.7000
 30
0.0000
  0
VERTEX
  8
16
 10
15.8000
 20
58.6000
 30
0.0000
  0
SEQEND
  8
0
  0
POLYLINE
  8
16
 66
1
 10
0.0000
 20
0.0000
 30
0.0000
 40
0.7112
 41
0.7112
 70
0
  0
VERTEX
  8
16
 10
16.1556
 20
58.6000
 30
0.0000
 42
1.0000
  0
VERTEX
  8
16
 10
15.4444
 20
58.6000
 30
0.0000
  0
SEQEND
  8
0
  0
POLYLINE
  8
16
 66
1
 10
0.0000
 20
0.0000
 30
0.0000
 40
0.7112
 41
0.7112
 70
0
  0
VERTEX
  8
16
 10
15.4444
 20
39.7000
 30
0.0000
 42
1.0000
  0
VERTEX
  8
16
 10
16.1556
 20
39.7000
 30
0.0000
  0
SEQEND
  8
0
  0
POLYLINE
  8
16
 66
1
 10
0.0000
 20
0.0000
 30
0.0000
 40
1.4224
 41
1.4224
 70
0
  0
VERTEX
  8
16
 10
15.8000
 20
58.6000
 30
0.0000
  0
VERTEX
  8
16
 10
61.5000
 20
58.6000
 30
0.0000
  0
SEQEND
  8
0
  0
POLYLINE
  8
16
 66
1
 10
0.0000
 20
0.0000
 30
0.0000
 40
0.7112
 41
0.7112
 70
0
  0
VERTEX
  8
16
 10
61.5000
 20
58.2444
 30
0.0000
 42
1.0000
  0
VERTEX
  8
16
 10
61.5000
 20
58.9556
 30
0.0000
  0
SEQEND
  8
0
  0
POLYLINE
  8
16
 66
1
 10
0.0000
 20
0.0000
 30
0.0000
 40
0.7112
 41
0.7112
 70
0
  0
VERTEX
  8
16
 10
15.8000
 20
58.9556
 30
0.0000
 42
1.0000
  0
VERTEX
  8
16
 10
15.8000
 20
58.2444
 30
0.0000
  0
SEQEND
  8
0
  0
POLYLINE
  8
16
 66
1
 10
0.0000
 20
0.0000
 30
0.0000
 40
1.4224
 41
1.4224
 70
0
  0
VERTEX
  8
16
 10
61.5000
 20
58.6000
 30
0.0000
  0
VERTEX
  8
16
 10
78.9000
 20
58.6000
 30
0.0000
  0
SEQEND
  8
0
  0
POLYLINE
  8
16
 66
1
 10
0.0000
 20
0.0000
 30
0.0000
 40
0.7112
 41
0.7112
 70
0
  0
VERTEX
  8
16
 10
78.9000
 20
58.2444
 30
0.0000
 42
1.0000
  0
VERTEX
  8
16
 10
78.9000
 20
58.9556
 30
0.0000
  0
SEQEND
  8
0
  0
POLYLINE
  8
16
 66
1
 10
0.0000
 20
0.0000
 30
0.0000
 40
0.7112
 41
0.7112
 70
0
  0
VERTEX
  8
16
 10
61.5000
 20
58.9556
 30
0.0000
 42
1.0000
  0
VERTEX
  8
16
 10
61.5000
 20
58.2444
 30
0.0000
  0
SEQEND
  8
0
  0
POLYLINE
  8
16
 66
1
 10
0.0000
 20
0.0000
 30
0.0000
 40
1.4224
 41
1.4224
 70
0
  0
VERTEX
  8
16
 10
92.6800
 20
52.8900
 30
0.0000
  0
VERTEX
  8
16
 10
88.9000
 20
52.8900
 30
0.0000
  0
SEQEND
  8
0
  0
POLYLINE
  8
16
 66
1
 10
0.0000
 20
0.0000
 30
0.0000
 40
0.7112
 41
0.7112
 70
0
  0
VERTEX
  8
16
 10
88.9000
 20
53.2456
 30
0.0000
 42
1.0000
  0
VERTEX
  8
16
 10
88.9000
 20
52.5344
 30
0.0000
  0
SEQEND
  8
0
  0
POLYLINE
  8
16
 66
1
 10
0.0000
 20
0.0000
 30
0.0000
 40
0.7112
 41
0.7112
 70
0
  0
VERTEX
  8
16
 10
92.6800
 20
52.5344
 30
0.0000
 42
1.0000
  0
VERTEX
  8
16
 10
92.6800
 20
53.2456
 30
0.0000
  0
SEQEND
  8
0
  0
POLYLINE
  8
16
 66
1
 10
0.0000
 20
0.0000
 30
0.0000
 40
1.4224
 41
1.4224
 70
0
  0
VERTEX
  8
16
 10
88.9000
 20
52.8900
 30
0.0000
  0
VERTEX
  8
16
 10
88.9000
 20
68.2000
 30
0.0000
  0
SEQEND
  8
0
  0
POLYLINE
  8
16
 66
1
 10
0.0000
 20
0.0000
 30
0.0000
 40
0.7112
 41
0.7112
 70
0
  0
VERTEX
  8
16
 10
89.2556
 20
68.2000
 30
0.0000
 42
1.0000
  0
VERTEX
  8
16
 10
88.5444
 20
68.2000
 30
0.0000
  0
SEQEND
  8
0
  0
POLYLINE
  8
16
 66
1
 10
0.0000
 20
0.0000
 30
0.0000
 40
0.7112
 41
0.7112
 70
0
  0
VERTEX
  8
16
 10
88.5444
 20
52.8900
 30
0.0000
 42
1.0000
  0
VERTEX
  8
16
 10
89.2556
 20
52.8900
 30
0.0000
  0
SEQEND
  8
0
  0
POLYLINE
  8
16
 66
1
 10
0.0000
 20
0.0000
 30
0.0000
 40
1.4224
 41
1.4224
 70
0
  0
VERTEX
  8
16
 10
88.9000
 20
68.2000
 30
0.0000
  0
VERTEX
  8
16
 10
78.9000
 20
68.2000
 30
0.0000
  0
SEQEND
  8
0
  0
POLYLINE
  8
16
 66
1
 10
0.0000
 20
0.0000
 30
0.0000
 40
0.7112
 41
0.7112
 70
0
  0
VERTEX
  8
16
 10
78.9000
 20
68.5556
 30
0.0000
 42
1.0000
  0
VERTEX
  8
16
 10
78.9000
 20
67.8444
 30
0.0000
  0
SEQEND
  8
0
  0
POLYLINE
  8
16
 66
1
 10
0.0000
 20
0.0000
 30
0.0000
 40
0.7112
 41
0.7112
 70
0
  0
VERTEX
  8
16
 10
88.9000
 20
67.8444
 30
0.0000
 42
1.0000
  0
VERTEX
  8
16
 10
88.9000
 20
68.5556
 30
0.0000
  0
SEQEND
  8
0
  0
POLYLINE
  8
16
 66
1
 10
0.0000
 20
0.0000
 30
0.0000
 40
1.0160
 41
1.0160
 70
0
  0
VERTEX
  8
16
 10
4.0000
 20
3.9500
 30
0.0000
  0
VERTEX
  8
16
 10
10.6000
 20
3.9500
 30
0.0000
  0
SEQEND
  8
0
  0
POLYLINE
  8
16
 66
1
 10
0.0000
 20
0.0000
 30
0.0000
 40
0.5080
 41
0.5080
 70
0
  0
VERTEX
  8
16
 10
10.6000
 20
3.6960
 30
0.0000
 42
1.0000
  0
VERTEX
  8
16
 10
10.6000
 20
4.2040
 30
0.0000
  0
SEQEND
  8
0
  0
POLYLINE
  8
16
 66
1
 10
0.0000
 20
0.0000
 30
0.0000
 40
0.5080
 41
0.5080
 70
0
  0
VERTEX
  8
16
 10
4.0000
 20
4.2040
 30
0.0000
 42
1.0000
  0
VERTEX
  8
16
 10
4.0000
 20
3.6960
 30
0.0000
  0
SEQEND
  8
0
  0
POLYLINE
  8
16
 66
1
 10
0.0000
 20
0.0000
 30
0.0000
 40
1.0160
 41
1.0160
 70
0
  0
VERTEX
  8
16
 10
10.6000
 20
3.9500
 30
0.0000
  0
VERTEX
  8
16
 10
10.6000
 20
1.6000
 30
0.0000
  0
SEQEND
  8
0
  0
POLYLINE
  8
16
 66
1
 10
0.0000
 20
0.0000
 30
0.0000
 40
0.5080
 41
0.5080
 70
0
  0
VERTEX
  8
16
 10
10.3460
 20
1.6000
 30
0.0000
 42
1.0000
  0
VERTEX
  8
16
 10
10.8540
 20
1.6000
 30
0.0000
  0
SEQEND
  8
0
  0
POLYLINE
  8
16
 66
1
 10
0.0000
 20
0.0000
 30
0.0000
 40
0.5080
 41
0.5080
 70
0
  0
VERTEX
  8
16
 10
10.8540
 20
3.9500
 30
0.0000
 42
1.0000
  0
VERTEX
  8
16
 10
10.3460
 20
3.9500
 30
0.0000
  0
SEQEND
  8
0
  0
POLYLINE
  8
16
 66
1
 10
0.0000
 20
0.0000
 30
0.0000
 40
1.0160
 41
1.0160
 70
0
  0
VERTEX
  8
16
 10
10.6000
 20
1.6000
 30
0.0000
  0
VERTEX
  8
16
 10
18.7000
 20
1.6000
 30
0.0000
  0
SEQEND
  8
0
  0
POLYLINE
  8
16
 66
1
 10
0.0000
 20
0.0000
 30
0.0000
 40
0.5080
 41
0.5080
 70
0
  0
VERTEX
  8
16
 10
18.7000
 20
1.3460
 30
0.0000
 42
1.0000
  0
VERTEX
  8
16
 10
18.7000
 20
1.8540
 30
0.0000
  0
SEQEND
  8
0
  0
POLYLINE
  8
16
 66
1
 10
0.0000
 20
0.0000
 30
0.0000
 40
0.5080
 41
0.5080
 70
0
  0
VERTEX
  8
16
 10
10.6000
 20
1.8540
 30
0.0000
 42
1.0000
  0
VERTEX
  8
16
 10
10.6000
 20
1.3460
 30
0.0000
  0
SEQEND
  8
0
  0
POLYLINE
  8
16
 66
1
 10
0.0000
 20
0.0000
 30
0.0000
 40
1.0160
 41
1.0160
 70
0
  0
VERTEX
  8
16
 10
18.7000
 20
1.6000
 30
0.0000
  0
VERTEX
  8
16
 10
18.7000
 20
4.1000
 30
0.0000
  0
SEQEND
  8
0
  0
POLYLINE
  8
16
 66
1
 10
0.0000
 20
0.0000
 30
0.0000
 40
0.5080
 41
0.5080
 70
0
  0
VERTEX
  8
16
 10
18.9540
 20
4.1000
 30
0.0000
 42
1.0000
  0
VERTEX
  8
16
 10
18.4460
 20
4.1000
 30
0.0000
  0
SEQEND
  8
0
  0
POLYLINE
  8
16
 66
1
 10
0.0000
 20
0.0000
 30
0.0000
 40
0.5080
 41
0.5080
 70
0
  0
VERTEX
  8
16
 10
18.4460
 20
1.6000
 30
0.0000
 42
1.0000
  0
VERTEX
  8
16
 10
18.9540
 20
1.6000
 30
0.0000
  0
SEQEND
  8
0
  0
POLYLINE
  8
16
 66
1
 10
0.0000
 20
0.0000
 30
0.0000
 40
1.0160
 41
1.0160
 70
0
  0
VERTEX
  8
16
 10
18.7000
 20
4.1000
 30
0.0000
  0
VERTEX
  8
16
 10
78.8900
 20
4.1000
 30
0.0000
  0
SEQEND
  8
0
  0
POLYLINE
  8
16
 66
1
 10
0.0000
 20
0.0000
 30
0.0000
 40
0.5080
 41
0.5080
 70
0
  0
VERTEX
  8
16
 10
78.8900
 20
3.8460
 30
0.0000
 42
1.0000
  0
VERTEX
  8
16
 10
78.8900
 20
4.3540
 30
0.0000
  0
SEQEND
  8
0
  0
POLYLINE
  8
16
 66
1
 10
0.0000
 20
0.0000
 30
0.0000
 40
0.5080
 41
0.5080
 70
0
  0
VERTEX
  8
16
 10
18.7000
 20
4.3540
 30
0.0000
 42
1.0000
  0
VERTEX
  8
16
 10
18.7000
 20
3.8460
 30
0.0000
  0
SEQEND
  8
0
  0
POLYLINE
  8
16
 66
1
 10
0.0000
 20
0.0000
 30
0.0000
 40
1.0160
 41
1.0160
 70
0
  0
VERTEX
  8
16
 10
78.8900
 20
4.1000
 30
0.0000
  0
VERTEX
  8
16
 10
78.8900
 20
14.0700
 30
0.0000
  0
SEQEND
  8
0
  0
POLYLINE
  8
16
 66
1
 10
0.0000
 20
0.0000
 30
0.0000
 40
0.5080
 41
0.5080
 70
0
  0
VERTEX
  8
16
 10
79.1440
 20
14.0700
 30
0.0000
 42
1.0000
  0
VERTEX
  8
16
 10
78.6360
 20
14.0700
 30
0.0000
  0
SEQEND
  8
0
  0
POLYLINE
  8
16
 66
1
 10
0.0000
 20
0.0000
 30
0.0000
 40
0.5080
 41
0.5080
 70
0
  0
VERTEX
  8
16
 10
78.6360
 20
4.1000
 30
0.0000
 42
1.0000
  0
VERTEX
  8
16
 10
79.1440
 20
4.1000
 30
0.0000
  0
SEQEND
  8
0
  0
POLYLINE
  8
16
 66
1
 10
0.0000
 20
0.0000
 30
0.0000
 40
1.4224
 41
1.4224
 70
0
  0
VERTEX
  8
16
 10
61.2600
 20
43.0000
 30
0.0000
  0
VERTEX
  8
16
 10
61.5000
 20
43.0000
 30
0.0000
  0
SEQEND
  8
0
  0
POLYLINE
  8
16
 66
1
 10
0.0000
 20
0.0000
 30
0.0000
 40
0.7112
 41
0.7112
 70
0
  0
VERTEX
  8
16
 10
61.5000
 20
42.6444
 30
0.0000
 42
1.0000
  0
VERTEX
  8
16
 10
61.5000
 20
43.3556
 30
0.0000
  0
SEQEND
  8
0
  0
POLYLINE
  8
16
 66
1
 10
0.0000
 20
0.0000
 30
0.0000
 40
0.7112
 41
0.7112
 70
0
  0
VERTEX
  8
16
 10
61.2600
 20
43.3556
 30
0.0000
 42
1.0000
  0
VERTEX
  8
16
 10
61.2600
 20
42.6444
 30
0.0000
  0
SEQEND
  8
0
  0
POLYLINE
  8
16
 66
1
 10
0.0000
 20
0.0000
 30
0.0000
 40
1.4224
 41
1.4224
 70
0
  0
VERTEX
  8
16
 10
61.5000
 20
43.0000
 30
0.0000
  0
VERTEX
  8
16
 10
61.5000
 20
58.6000
 30
0.0000
  0
SEQEND
  8
0
  0
POLYLINE
  8
16
 66
1
 10
0.0000
 20
0.0000
 30
0.0000
 40
0.7112
 41
0.7112
 70
0
  0
VERTEX
  8
16
 10
61.8556
 20
58.6000
 30
0.0000
 42
1.0000
  0
VERTEX
  8
16
 10
61.1444
 20
58.6000
 30
0.0000
  0
SEQEND
  8
0
  0
POLYLINE
  8
16
 66
1
 10
0.0000
 20
0.0000
 30
0.0000
 40
0.7112
 41
0.7112
 70
0
  0
VERTEX
  8
16
 10
61.1444
 20
43.0000
 30
0.0000
 42
1.0000
  0
VERTEX
  8
16
 10
61.8556
 20
43.0000
 30
0.0000
  0
SEQEND
  8
0
  0
POLYLINE
  8
16
 66
1
 10
0.0000
 20
0.0000
 30
0.0000
 40
1.0160
 41
1.0160
 70
0
  0
VERTEX
  8
16
 10
87.7300
 20
16.7700
 30
0.0000
  0
VERTEX
  8
16
 10
78.8900
 20
16.7700
 30
0.0000
  0
SEQEND
  8
0
  0
POLYLINE
  8
16
 66
1
 10
0.0000
 20
0.0000
 30
0.0000
 40
0.5080
 41
0.5080
 70
0
  0
VERTEX
  8
16
 10
78.8900
 20
17.0240
 30
0.0000
 42
1.0000
  0
VERTEX
  8
16
 10
78.8900
 20
16.5160
 30
0.0000
  0
SEQEND
  8
0
  0
POLYLINE
  8
16
 66
1
 10
0.0000
 20
0.0000
 30
0.0000
 40
0.5080
 41
0.5080
 70
0
  0
VERTEX
  8
16
 10
87.7300
 20
16.5160
 30
0.0000
 42
1.0000
  0
VERTEX
  8
16
 10
87.7300
 20
17.0240
 30
0.0000
  0
SEQEND
  8
0
  0
POLYLINE
  8
16
 66
1
 10
0.0000
 20
0.0000
 30
0.0000
 40
1.0160
 41
1.0160
 70
0
  0
VERTEX
  8
16
 10
78.8900
 20
16.7700
 30
0.0000
  0
VERTEX
  8
16
 10
78.8900
 20
16.6100
 30
0.0000
  0
SEQEND
  8
0
  0
POLYLINE
  8
16
 66
1
 10
0.0000
 20
0.0000
 30
0.0000
 40
0.5080
 41
0.5080
 70
0
  0
VERTEX
  8
16
 10
78.6360
 20
16.6100
 30
0.0000
 42
1.0000
  0
VERTEX
  8
16
 10
79.1440
 20
16.6100
 30
0.0000
  0
SEQEND
  8
0
  0
POLYLINE
  8
16
 66
1
 10
0.0000
 20
0.0000
 30
0.0000
 40
0.5080
 41
0.5080
 70
0
  0
VERTEX
  8
16
 10
79.1440
 20
16.7700
 30
0.0000
 42
1.0000
  0
VERTEX
  8
16
 10
78.6360
 20
16.7700
 30
0.0000
  0
SEQEND
  8
0
  0
POLYLINE
  8
16
 66
1
 10
0.0000
 20
0.0000
 30
0.0000
 40
1.0160
 41
1.0160
 70
0
  0
VERTEX
  8
16
 10
78.8900
 20
16.6100
 30
0.0000
  0
VERTEX
  8
16
 10
78.9000
 20
16.6100
 30
0.0000
  0
SEQEND
  8
0
  0
POLYLINE
  8
16
 66
1
 10
0.0000
 20
0.0000
 30
0.0000
 40
0.5080
 41
0.5080
 70
0
  0
VERTEX
  8
16
 10
78.9000
 20
16.3560
 30
0.0000
 42
1.0000
  0
VERTEX
  8
16
 10
78.9000
 20
16.8640
 30
0.0000
  0
SEQEND
  8
0
  0
POLYLINE
  8
16
 66
1
 10
0.0000
 20
0.0000
 30
0.0000
 40
0.5080
 41
0.5080
 70
0
  0
VERTEX
  8
16
 10
78.8900
 20
16.8640
 30
0.0000
 42
1.0000
  0
VERTEX
  8
16
 10
78.8900
 20
16.3560
 30
0.0000
  0
SEQEND
  8
0
  0
POLYLINE
  8
16
 66
1
 10
0.0000
 20
0.0000
 30
0.0000
 40
1.0160
 41
1.0160
 70
0
  0
VERTEX
  8
16
 10
78.9000
 20
16.6100
 30
0.0000
  0
VERTEX
  8
16
 10
78.9000
 20
16.5000
 30
0.0000
  0
SEQEND
  8
0
  0
POLYLINE
  8
16
 66
1
 10
0.0000
 20
0.0000
 30
0.0000
 40
0.5080
 41
0.5080
 70
0
  0
VERTEX
  8
16
 10
78.6460
 20
16.5000
 30
0.0000
 42
1.0000
  0
VERTEX
  8
16
 10
79.1540
 20
16.5000
 30
0.0000
  0
SEQEND
  8
0
  0
POLYLINE
  8
16
 66
1
 10
0.0000
 20
0.0000
 30
0.0000
 40
0.5080
 41
0.5080
 70
0
  0
VERTEX
  8
16
 10
79.1540
 20
16.6100
 30
0.0000
 42
1.0000
  0
VERTEX
  8
16
 10
78.6460
 20
16.6100
 30
0.0000
  0
SEQEND
  8
0
  0
POLYLINE
  8
16
 66
1
 10
0.0000
 20
0.0000
 30
0.0000
 40
1.4224
 41
1.4224
 70
0
  0
VERTEX
  8
16
 10
78.9000
 20
16.6100
 30
0.0000
  0
VERTEX
  8
16
 10
78.9000
 20
35.0400
 30
0.0000
  0
SEQEND
  8
0
  0
POLYLINE
  8
16
 66
1
 10
0.0000
 20
0.0000
 30
0.0000
 40
0.7112
 41
0.7112
 70
0
  0
VERTEX
  8
16
 10
79.2556
 20
35.0400
 30
0.0000
 42
1.0000
  0
VERTEX
  8
16
 10
78.5444
 20
35.0400
 30
0.0000
  0
SEQEND
  8
0
  0
POLYLINE
  8
16
 66
1
 10
0.0000
 20
0.0000
 30
0.0000
 40
0.7112
 41
0.7112
 70
0
  0
VERTEX
  8
16
 10
78.5444
 20
16.6100
 30
0.0000
 42
1.0000
  0
VERTEX
  8
16
 10
79.2556
 20
16.6100
 30
0.0000
  0
SEQEND
  8
0
  0
POLYLINE
  8
16
 66
1
 10
0.0000
 20
0.0000
 30
0.0000
 40
1.4224
 41
1.4224
 70
0
  0
VERTEX
  8
16
 10
78.9000
 20
35.0400
 30
0.0000
  0
VERTEX
  8
16
 10
78.9000
 20
58.6000
 30
0.0000
  0
SEQEND
  8
0
  0
POLYLINE
  8
16
 66
1
 10
0.0000
 20
0.0000
 30
0.0000
 40
0.7112
 41
0.7112
 70
0
  0
VERTEX
  8
16
 10
79.2556
 20
58.6000
 30
0.0000
 42
1.0000
  0
VERTEX
  8
16
 10
78.5444
 20
58.6000
 30
0.0000
  0
SEQEND
  8
0
  0
POLYLINE
  8
16
 66
1
 10
0.0000
 20
0.0000
 30
0.0000
 40
0.7112
 41
0.7112
 70
0
  0
VERTEX
  8
16
 10
78.5444
 20
35.0400
 30
0.0000
 42
1.0000
  0
VERTEX
  8
16
 10
79.2556
 20
35.0400
 30
0.0000
  0
SEQEND
  8
0
  0
POLYLINE
  8
16
 66
1
 10
0.0000
 20
0.0000
 30
0.0000
 40
1.0160
 41
1.0160
 70
0
  0
VERTEX
  8
16
 10
87.7000
 20
35.0400
 30
0.0000
  0
VERTEX
  8
16
 10
78.9000
 20
35.0400
 30
0.0000
  0
SEQEND
  8
0
  0
POLYLINE
  8
16
 66
1
 10
0.0000
 20
0.0000
 30
0.0000
 40
0.5080
 41
0.5080
 70
0
  0
VERTEX
  8
16
 10
78.9000
 20
35.2940
 30
0.0000
 42
1.0000
  0
VERTEX
  8
16
 10
78.9000
 20
34.7860
 30
0.0000
  0
SEQEND
  8
0
  0
POLYLINE
  8
16
 66
1
 10
0.0000
 20
0.0000
 30
0.0000
 40
0.5080
 41
0.5080
 70
0
  0
VERTEX
  8
16
 10
87.7000
 20
34.7860
 30
0.0000
 42
1.0000
  0
VERTEX
  8
16
 10
87.7000
 20
35.2940
 30
0.0000
  0
SEQEND
  8
0
  0
POLYLINE
  8
16
 66
1
 10
0.0000
 20
0.0000
 30
0.0000
 40
1.4224
 41
1.4224
 70
0
  0
VERTEX
  8
16
 10
78.9000
 20
66.1300
 30
0.0000
  0
VERTEX
  8
16
 10
78.9000
 20
58.6000
 30
0.0000
  0
SEQEND
  8
0
  0
POLYLINE
  8
16
 66
1
 10
0.0000
 20
0.0000
 30
0.0000
 40
0.7112
 41
0.7112
 70
0
  0
VERTEX
  8
16
 10
78.5444
 20
58.6000
 30
0.0000
 42
1.0000
  0
VERTEX
  8
16
 10
79.2556
 20
58.6000
 30
0.0000
  0
SEQEND
  8
0
  0
POLYLINE
  8
16
 66
1
 10
0.0000
 20
0.0000
 30
0.0000
 40
0.7112
 41
0.7112
 70
0
  0
VERTEX
  8
16
 10
79.2556
 20
66.1300
 30
0.0000
 42
1.0000
  0
VERTEX
  8
16
 10
78.5444
 20
66.1300
 30
0.0000
  0
SEQEND
  8
0
  0
POLYLINE
  8
16
 66
1
 10
0.0000
 20
0.0000
 30
0.0000
 40
1.6510
 41
1.6510
 70
0
  0
VERTEX
  8
16
 10
56.2500
 20
43.0000
 30
0.0000
  0
VERTEX
  8
16
 10
56.2500
 20
38.7500
 30
0.0000
  0
SEQEND
  8
0
  0
POLYLINE
  8
16
 66
1
 10
0.0000
 20
0.0000
 30
0.0000
 40
0.8255
 41
0.8255
 70
0
  0
VERTEX
  8
16
 10
55.8372
 20
38.7500
 30
0.0000
 42
1.0000
  0
VERTEX
  8
16
 10
56.6628
 20
38.7500
 30
0.0000
  0
SEQEND
  8
0
  0
POLYLINE
  8
16
 66
1
 10
0.0000
 20
0.0000
 30
0.0000
 40
0.8255
 41
0.8255
 70
0
  0
VERTEX
  8
16
 10
56.6628
 20
43.0000
 30
0.0000
 42
1.0000
  0
VERTEX
  8
16
 10
55.8372
 20
43.0000
 30
0.0000
  0
SEQEND
  8
0
  0
POLYLINE
  8
16
 66
1
 10
0.0000
 20
0.0000
 30
0.0000
 40
1.6510
 41
1.6510
 70
0
  0
VERTEX
  8
16
 10
56.2500
 20
38.7500
 30
0.0000
  0
VERTEX
  8
16
 10
56.2400
 20
38.7500
 30
0.0000
  0
SEQEND
  8
0
  0
POLYLINE
  8
16
 66
1
 10
0.0000
 20
0.0000
 30
0.0000
 40
0.8255
 41
0.8255
 70
0
  0
VERTEX
  8
16
 10
56.2400
 20
39.1628
 30
0.0000
 42
1.0000
  0
VERTEX
  8
16
 10
56.2400
 20
38.3372
 30
0.0000
  0
SEQEND
  8
0
  0
POLYLINE
  8
16
 66
1
 10
0.0000
 20
0.0000
 30
0.0000
 40
0.8255
 41
0.8255
 70
0
  0
VERTEX
  8
16
 10
56.2500
 20
38.3372
 30
0.0000
 42
1.0000
  0
VERTEX
  8
16
 10
56.2500
 20
39.1628
 30
0.0000
  0
SEQEND
  8
0
  0
POLYLINE
  8
16
 66
1
 10
0.0000
 20
0.0000
 30
0.0000
 40
1.6510
 41
1.6510
 70
0
  0
VERTEX
  8
16
 10
56.2500
 20
43.0000
 30
0.0000
  0
VERTEX
  8
16
 10
56.1800
 20
43.0000
 30
0.0000
  0
SEQEND
  8
0
  0
POLYLINE
  8
16
 66
1
 10
0.0000
 20
0.0000
 30
0.0000
 40
0.8255
 41
0.8255
 70
0
  0
VERTEX
  8
16
 10
56.1800
 20
43.4128
 30
0.0000
 42
1.0000
  0
VERTEX
  8
16
 10
56.1800
 20
42.5872
 30
0.0000
  0
SEQEND
  8
0
  0
POLYLINE
  8
16
 66
1
 10
0.0000
 20
0.0000
 30
0.0000
 40
0.8255
 41
0.8255
 70
0
  0
VERTEX
  8
16
 10
56.2500
 20
42.5872
 30
0.0000
 42
1.0000
  0
VERTEX
  8
16
 10
56.2500
 20
43.4128
 30
0.0000
  0
SEQEND
  8
0
  0
POLYLINE
  8
16
 66
1
 10
0.0000
 20
0.0000
 30
0.0000
 40
1.4224
 41
1.4224
 70
0
  0
VERTEX
  8
16
 10
53.7400
 20
47.1000
 30
0.0000
  0
VERTEX
  8
16
 10
56.1800
 20
47.1000
 30
0.0000
  0
SEQEND
  8
0
  0
POLYLINE
  8
16
 66
1
 10
0.0000
 20
0.0000
 30
0.0000
 40
0.7112
 41
0.7112
 70
0
  0
VERTEX
  8
16
 10
56.1800
 20
46.7444
 30
0.0000
 42
1.0000
  0
VERTEX
  8
16
 10
56.1800
 20
47.4556
 30
0.0000
  0
SEQEND
  8
0
  0
POLYLINE
  8
16
 66
1
 10
0.0000
 20
0.0000
 30
0.0000
 40
0.7112
 41
0.7112
 70
0
  0
VERTEX
  8
16
 10
53.7400
 20
47.4556
 30
0.0000
 42
1.0000
  0
VERTEX
  8
16
 10
53.7400
 20
46.7444
 30
0.0000
  0
SEQEND
  8
0
  0
POLYLINE
  8
16
 66
1
 10
0.0000
 20
0.0000
 30
0.0000
 40
1.4224
 41
1.4224
 70
0
  0
VERTEX
  8
16
 10
56.1800
 20
47.1000
 30
0.0000
  0
VERTEX
  8
16
 10
56.1800
 20
43.0000
 30
0.0000
  0
SEQEND
  8
0
  0
POLYLINE
  8
16
 66
1
 10
0.0000
 20
0.0000
 30
0.0000
 40
0.7112
 41
0.7112
 70
0
  0
VERTEX
  8
16
 10
55.8244
 20
43.0000
 30
0.0000
 42
1.0000
  0
VERTEX
  8
16
 10
56.5356
 20
43.0000
 30
0.0000
  0
SEQEND
  8
0
  0
POLYLINE
  8
16
 66
1
 10
0.0000
 20
0.0000
 30
0.0000
 40
0.7112
 41
0.7112
 70
0
  0
VERTEX
  8
16
 10
56.5356
 20
47.1000
 30
0.0000
 42
1.0000
  0
VERTEX
  8
16
 10
55.8244
 20
47.1000
 30
0.0000
  0
SEQEND
  8
0
  0
POLYLINE
  8
16
 66
1
 10
0.0000
 20
0.0000
 30
0.0000
 40
1.4224
 41
1.4224
 70
0
  0
VERTEX
  8
16
 10
53.7400
 20
47.1000
 30
0.0000
  0
VERTEX
  8
16
 10
53.7700
 20
51.0000
 30
0.0000
  0
SEQEND
  8
0
  0
POLYLINE
  8
16
 66
1
 10
0.0000
 20
0.0000
 30
0.0000
 40
0.7112
 41
0.7112
 70
0
  0
VERTEX
  8
16
 10
54.1256
 20
50.9973
 30
0.0000
 42
1.0000
  0
VERTEX
  8
16
 10
53.4144
 20
51.0027
 30
0.0000
  0
SEQEND
  8
0
  0
POLYLINE
  8
16
 66
1
 10
0.0000
 20
0.0000
 30
0.0000
 40
0.7112
 41
0.7112
 70
0
  0
VERTEX
  8
16
 10
53.3844
 20
47.1027
 30
0.0000
 42
1.0000
  0
VERTEX
  8
16
 10
54.0956
 20
47.0973
 30
0.0000
  0
SEQEND
  8
0
  0
POLYLINE
  8
16
 66
1
 10
0.0000
 20
0.0000
 30
0.0000
 40
1.4224
 41
1.4224
 70
0
  0
VERTEX
  8
16
 10
53.7700
 20
51.0000
 30
0.0000
  0
VERTEX
  8
16
 10
53.7700
 20
51.2700
 30
0.0000
  0
SEQEND
  8
0
  0
POLYLINE
  8
16
 66
1
 10
0.0000
 20
0.0000
 30
0.0000
 40
0.7112
 41
0.7112
 70
0
  0
VERTEX
  8
16
 10
54.1256
 20
51.2700
 30
0.0000
 42
1.0000
  0
VERTEX
  8
16
 10
53.4144
 20
51.2700
 30
0.0000
  0
SEQEND
  8
0
  0
POLYLINE
  8
16
 66
1
 10
0.0000
 20
0.0000
 30
0.0000
 40
0.7112
 41
0.7112
 70
0
  0
VERTEX
  8
16
 10
53.4144
 20
51.0000
 30
0.0000
 42
1.0000
  0
VERTEX
  8
16
 10
54.1256
 20
51.0000
 30
0.0000
  0
SEQEND
  8
0
  0
POLYLINE
  8
16
 66
1
 10
0.0000
 20
0.0000
 30
0.0000
 40
1.6510
 41
1.6510
 70
0
  0
VERTEX
  8
16
 10
53.7500
 20
43.0000
 30
0.0000
  0
VERTEX
  8
16
 10
53.7500
 20
38.7500
 30
0.0000
  0
SEQEND
  8
0
  0
POLYLINE
  8
16
 66
1
 10
0.0000
 20
0.0000
 30
0.0000
 40
0.8255
 41
0.8255
 70
0
  0
VERTEX
  8
16
 10
53.3372
 20
38.7500
 30
0.0000
 42
1.0000
  0
VERTEX
  8
16
 10
54.1628
 20
38.7500
 30
0.0000
  0
SEQEND
  8
0
  0
POLYLINE
  8
16
 66
1
 10
0.0000
 20
0.0000
 30
0.0000
 40
0.8255
 41
0.8255
 70
0
  0
VERTEX
  8
16
 10
54.1628
 20
43.0000
 30
0.0000
 42
1.0000
  0
VERTEX
  8
16
 10
53.3372
 20
43.0000
 30
0.0000
  0
SEQEND
  8
0
  0
POLYLINE
  8
16
 66
1
 10
0.0000
 20
0.0000
 30
0.0000
 40
1.6510
 41
1.6510
 70
0
  0
VERTEX
  8
16
 10
53.7500
 20
38.7500
 30
0.0000
  0
VERTEX
  8
16
 10
53.7000
 20
38.7500
 30
0.0000
  0
SEQEND
  8
0
  0
POLYLINE
  8
16
 66
1
 10
0.0000
 20
0.0000
 30
0.0000
 40
0.8255
 41
0.8255
 70
0
  0
VERTEX
  8
16
 10
53.7000
 20
39.1628
 30
0.0000
 42
1.0000
  0
VERTEX
  8
16
 10
53.7000
 20
38.3372
 30
0.0000
  0
SEQEND
  8
0
  0
POLYLINE
  8
16
 66
1
 10
0.0000
 20
0.0000
 30
0.0000
 40
0.8255
 41
0.8255
 70
0
  0
VERTEX
  8
16
 10
53.7500
 20
38.3372
 30
0.0000
 42
1.0000
  0
VERTEX
  8
16
 10
53.7500
 20
39.1628
 30
0.0000
  0
SEQEND
  8
0
  0
POLYLINE
  8
16
 66
1
 10
0.0000
 20
0.0000
 30
0.0000
 40
1.6510
 41
1.6510
 70
0
  0
VERTEX
  8
16
 10
53.7500
 20
43.0000
 30
0.0000
  0
VERTEX
  8
16
 10
53.6400
 20
43.0000
 30
0.0000
  0
SEQEND
  8
0
  0
POLYLINE
  8
16
 66
1
 10
0.0000
 20
0.0000
 30
0.0000
 40
0.8255
 41
0.8255
 70
0
  0
VERTEX
  8
16
 10
53.6400
 20
43.4128
 30
0.0000
 42
1.0000
  0
VERTEX
  8
16
 10
53.6400
 20
42.5872
 30
0.0000
  0
SEQEND
  8
0
  0
POLYLINE
  8
16
 66
1
 10
0.0000
 20
0.0000
 30
0.0000
 40
0.8255
 41
0.8255
 70
0
  0
VERTEX
  8
16
 10
53.7500
 20
42.5872
 30
0.0000
 42
1.0000
  0
VERTEX
  8
16
 10
53.7500
 20
43.4128
 30
0.0000
  0
SEQEND
  8
0
  0
POLYLINE
  8
16
 66
1
 10
0.0000
 20
0.0000
 30
0.0000
 40
1.4224
 41
1.4224
 70
0
  0
VERTEX
  8
16
 10
53.6400
 20
43.0000
 30
0.0000
  0
VERTEX
  8
16
 10
53.7000
 20
43.0000
 30
0.0000
  0
SEQEND
  8
0
  0
POLYLINE
  8
16
 66
1
 10
0.0000
 20
0.0000
 30
0.0000
 40
0.7112
 41
0.7112
 70
0
  0
VERTEX
  8
16
 10
53.7000
 20
42.6444
 30
0.0000
 42
1.0000
  0
VERTEX
  8
16
 10
53.7000
 20
43.3556
 30
0.0000
  0
SEQEND
  8
0
  0
POLYLINE
  8
16
 66
1
 10
0.0000
 20
0.0000
 30
0.0000
 40
0.7112
 41
0.7112
 70
0
  0
VERTEX
  8
16
 10
53.6400
 20
43.3556
 30
0.0000
 42
1.0000
  0
VERTEX
  8
16
 10
53.6400
 20
42.6444
 30
0.0000
  0
SEQEND
  8
0
  0
POLYLINE
  8
16
 66
1
 10
0.0000
 20
0.0000
 30
0.0000
 40
1.4224
 41
1.4224
 70
0
  0
VERTEX
  8
16
 10
53.7000
 20
43.0000
 30
0.0000
  0
VERTEX
  8
16
 10
51.2000
 20
47.1000
 30
0.0000
  0
SEQEND
  8
0
  0
POLYLINE
  8
16
 66
1
 10
0.0000
 20
0.0000
 30
0.0000
 40
0.7112
 41
0.7112
 70
0
  0
VERTEX
  8
16
 10
51.5036
 20
47.2851
 30
0.0000
 42
1.0000
  0
VERTEX
  8
16
 10
50.8964
 20
46.9149
 30
0.0000
  0
SEQEND
  8
0
  0
POLYLINE
  8
16
 66
1
 10
0.0000
 20
0.0000
 30
0.0000
 40
0.7112
 41
0.7112
 70
0
  0
VERTEX
  8
16
 10
53.3964
 20
42.8149
 30
0.0000
 42
1.0000
  0
VERTEX
  8
16
 10
54.0036
 20
43.1851
 30
0.0000
  0
SEQEND
  8
0
  0
POLYLINE
  8
16
 66
1
 10
0.0000
 20
0.0000
 30
0.0000
 40
1.4224
 41
1.4224
 70
0
  0
VERTEX
  8
16
 10
51.2000
 20
47.1000
 30
0.0000
  0
VERTEX
  8
16
 10
48.6600
 20
47.1000
 30
0.0000
  0
SEQEND
  8
0
  0
POLYLINE
  8
16
 66
1
 10
0.0000
 20
0.0000
 30
0.0000
 40
0.7112
 41
0.7112
 70
0
  0
VERTEX
  8
16
 10
48.6600
 20
47.4556
 30
0.0000
 42
1.0000
  0
VERTEX
  8
16
 10
48.6600
 20
46.7444
 30
0.0000
  0
SEQEND
  8
0
  0
POLYLINE
  8
16
 66
1
 10
0.0000
 20
0.0000
 30
0.0000
 40
0.7112
 41
0.7112
 70
0
  0
VERTEX
  8
16
 10
51.2000
 20
46.7444
 30
0.0000
 42
1.0000
  0
VERTEX
  8
16
 10
51.2000
 20
47.4556
 30
0.0000
  0
SEQEND
  8
0
  0
POLYLINE
  8
16
 66
1
 10
0.0000
 20
0.0000
 30
0.0000
 40
1.4224
 41
1.4224
 70
0
  0
VERTEX
  8
16
 10
48.6600
 20
47.1000
 30
0.0000
  0
VERTEX
  8
16
 10
48.6700
 20
47.3000
 30
0.0000
  0
SEQEND
  8
0
  0
POLYLINE
  8
16
 66
1
 10
0.0000
 20
0.0000
 30
0.0000
 40
0.7112
 41
0.7112
 70
0
  0
VERTEX
  8
16
 10
49.0252
 20
47.2822
 30
0.0000
 42
1.0000
  0
VERTEX
  8
16
 10
48.3148
 20
47.3178
 30
0.0000
  0
SEQEND
  8
0
  0
POLYLINE
  8
16
 66
1
 10
0.0000
 20
0.0000
 30
0.0000
 40
0.7112
 41
0.7112
 70
0
  0
VERTEX
  8
16
 10
48.3048
 20
47.1178
 30
0.0000
 42
1.0000
  0
VERTEX
  8
16
 10
49.0152
 20
47.0822
 30
0.0000
  0
SEQEND
  8
0
  0
POLYLINE
  8
16
 66
1
 10
0.0000
 20
0.0000
 30
0.0000
 40
1.4224
 41
1.4224
 70
0
  0
VERTEX
  8
16
 10
48.6700
 20
47.3000
 30
0.0000
  0
VERTEX
  8
16
 10
48.6700
 20
51.2900
 30
0.0000
  0
SEQEND
  8
0
  0
POLYLINE
  8
16
 66
1
 10
0.0000
 20
0.0000
 30
0.0000
 40
0.7112
 41
0.7112
 70
0
  0
VERTEX
  8
16
 10
49.0256
 20
51.2900
 30
0.0000
 42
1.0000
  0
VERTEX
  8
16
 10
48.3144
 20
51.2900
 30
0.0000
  0
SEQEND
  8
0
  0
POLYLINE
  8
16
 66
1
 10
0.0000
 20
0.0000
 30
0.0000
 40
0.7112
 41
0.7112
 70
0
  0
VERTEX
  8
16
 10
48.3144
 20
47.3000
 30
0.0000
 42
1.0000
  0
VERTEX
  8
16
 10
49.0256
 20
47.3000
 30
0.0000
  0
SEQEND
  8
0
  0
ENDSEC
  0
EOF
